%TF.GenerationSoftware,KiCad,Pcbnew,9.0.6*%
%TF.CreationDate,2026-03-19T18:49:23+13:00*%
%TF.ProjectId,Galvanized Kaas,47616c76-616e-4697-9a65-64204b616173,rev?*%
%TF.SameCoordinates,Original*%
%TF.FileFunction,Legend,Top*%
%TF.FilePolarity,Positive*%
%FSLAX46Y46*%
G04 Gerber Fmt 4.6, Leading zero omitted, Abs format (unit mm)*
G04 Created by KiCad (PCBNEW 9.0.6) date 2026-03-19 18:49:23*
%MOMM*%
%LPD*%
G01*
G04 APERTURE LIST*
%ADD10C,0.150000*%
%ADD11C,0.120000*%
G04 APERTURE END LIST*
D10*
X239514286Y-98234819D02*
X240085714Y-98234819D01*
X239800000Y-99234819D02*
X239800000Y-98234819D01*
X240419048Y-99234819D02*
X240419048Y-98234819D01*
X240419048Y-98711009D02*
X240990476Y-98711009D01*
X240990476Y-99234819D02*
X240990476Y-98234819D01*
X241990476Y-99234819D02*
X241419048Y-99234819D01*
X241704762Y-99234819D02*
X241704762Y-98234819D01*
X241704762Y-98234819D02*
X241609524Y-98377676D01*
X241609524Y-98377676D02*
X241514286Y-98472914D01*
X241514286Y-98472914D02*
X241419048Y-98520533D01*
X181466667Y-121987200D02*
X181609524Y-122034819D01*
X181609524Y-122034819D02*
X181847619Y-122034819D01*
X181847619Y-122034819D02*
X181942857Y-121987200D01*
X181942857Y-121987200D02*
X181990476Y-121939580D01*
X181990476Y-121939580D02*
X182038095Y-121844342D01*
X182038095Y-121844342D02*
X182038095Y-121749104D01*
X182038095Y-121749104D02*
X181990476Y-121653866D01*
X181990476Y-121653866D02*
X181942857Y-121606247D01*
X181942857Y-121606247D02*
X181847619Y-121558628D01*
X181847619Y-121558628D02*
X181657143Y-121511009D01*
X181657143Y-121511009D02*
X181561905Y-121463390D01*
X181561905Y-121463390D02*
X181514286Y-121415771D01*
X181514286Y-121415771D02*
X181466667Y-121320533D01*
X181466667Y-121320533D02*
X181466667Y-121225295D01*
X181466667Y-121225295D02*
X181514286Y-121130057D01*
X181514286Y-121130057D02*
X181561905Y-121082438D01*
X181561905Y-121082438D02*
X181657143Y-121034819D01*
X181657143Y-121034819D02*
X181895238Y-121034819D01*
X181895238Y-121034819D02*
X182038095Y-121082438D01*
X182371429Y-121034819D02*
X182609524Y-122034819D01*
X182609524Y-122034819D02*
X182800000Y-121320533D01*
X182800000Y-121320533D02*
X182990476Y-122034819D01*
X182990476Y-122034819D02*
X183228572Y-121034819D01*
X183561905Y-121130057D02*
X183609524Y-121082438D01*
X183609524Y-121082438D02*
X183704762Y-121034819D01*
X183704762Y-121034819D02*
X183942857Y-121034819D01*
X183942857Y-121034819D02*
X184038095Y-121082438D01*
X184038095Y-121082438D02*
X184085714Y-121130057D01*
X184085714Y-121130057D02*
X184133333Y-121225295D01*
X184133333Y-121225295D02*
X184133333Y-121320533D01*
X184133333Y-121320533D02*
X184085714Y-121463390D01*
X184085714Y-121463390D02*
X183514286Y-122034819D01*
X183514286Y-122034819D02*
X184133333Y-122034819D01*
X186066667Y-121987200D02*
X186209524Y-122034819D01*
X186209524Y-122034819D02*
X186447619Y-122034819D01*
X186447619Y-122034819D02*
X186542857Y-121987200D01*
X186542857Y-121987200D02*
X186590476Y-121939580D01*
X186590476Y-121939580D02*
X186638095Y-121844342D01*
X186638095Y-121844342D02*
X186638095Y-121749104D01*
X186638095Y-121749104D02*
X186590476Y-121653866D01*
X186590476Y-121653866D02*
X186542857Y-121606247D01*
X186542857Y-121606247D02*
X186447619Y-121558628D01*
X186447619Y-121558628D02*
X186257143Y-121511009D01*
X186257143Y-121511009D02*
X186161905Y-121463390D01*
X186161905Y-121463390D02*
X186114286Y-121415771D01*
X186114286Y-121415771D02*
X186066667Y-121320533D01*
X186066667Y-121320533D02*
X186066667Y-121225295D01*
X186066667Y-121225295D02*
X186114286Y-121130057D01*
X186114286Y-121130057D02*
X186161905Y-121082438D01*
X186161905Y-121082438D02*
X186257143Y-121034819D01*
X186257143Y-121034819D02*
X186495238Y-121034819D01*
X186495238Y-121034819D02*
X186638095Y-121082438D01*
X186971429Y-121034819D02*
X187209524Y-122034819D01*
X187209524Y-122034819D02*
X187400000Y-121320533D01*
X187400000Y-121320533D02*
X187590476Y-122034819D01*
X187590476Y-122034819D02*
X187828572Y-121034819D01*
X188733333Y-122034819D02*
X188161905Y-122034819D01*
X188447619Y-122034819D02*
X188447619Y-121034819D01*
X188447619Y-121034819D02*
X188352381Y-121177676D01*
X188352381Y-121177676D02*
X188257143Y-121272914D01*
X188257143Y-121272914D02*
X188161905Y-121320533D01*
X226585346Y-104120034D02*
X225878239Y-103412927D01*
X226888392Y-103816988D02*
X226518003Y-103446599D01*
X226518003Y-103446599D02*
X226416987Y-103412927D01*
X226416987Y-103412927D02*
X226315972Y-103446599D01*
X226315972Y-103446599D02*
X226214957Y-103547614D01*
X226214957Y-103547614D02*
X226181285Y-103648630D01*
X226181285Y-103648630D02*
X226181285Y-103715973D01*
X227460812Y-103177225D02*
X227427140Y-103278240D01*
X227427140Y-103278240D02*
X227292453Y-103412927D01*
X227292453Y-103412927D02*
X227191438Y-103446599D01*
X227191438Y-103446599D02*
X227090423Y-103412927D01*
X227090423Y-103412927D02*
X226821049Y-103143553D01*
X226821049Y-103143553D02*
X226787377Y-103042538D01*
X226787377Y-103042538D02*
X226821049Y-102941523D01*
X226821049Y-102941523D02*
X226955736Y-102806836D01*
X226955736Y-102806836D02*
X227056751Y-102773164D01*
X227056751Y-102773164D02*
X227157766Y-102806836D01*
X227157766Y-102806836D02*
X227225110Y-102874179D01*
X227225110Y-102874179D02*
X226955736Y-103278240D01*
X228134247Y-102571133D02*
X227763858Y-102200744D01*
X227763858Y-102200744D02*
X227662842Y-102167072D01*
X227662842Y-102167072D02*
X227561827Y-102200744D01*
X227561827Y-102200744D02*
X227427140Y-102335431D01*
X227427140Y-102335431D02*
X227393468Y-102436446D01*
X228100575Y-102537462D02*
X228066903Y-102638477D01*
X228066903Y-102638477D02*
X227898545Y-102806836D01*
X227898545Y-102806836D02*
X227797529Y-102840507D01*
X227797529Y-102840507D02*
X227696514Y-102806836D01*
X227696514Y-102806836D02*
X227629171Y-102739492D01*
X227629171Y-102739492D02*
X227595499Y-102638477D01*
X227595499Y-102638477D02*
X227629171Y-102537462D01*
X227629171Y-102537462D02*
X227797529Y-102369103D01*
X227797529Y-102369103D02*
X227831201Y-102268088D01*
X227898545Y-101864026D02*
X228167919Y-101594652D01*
X227763858Y-101527309D02*
X228369949Y-102133400D01*
X228369949Y-102133400D02*
X228470965Y-102167072D01*
X228470965Y-102167072D02*
X228571980Y-102133400D01*
X228571980Y-102133400D02*
X228639323Y-102066057D01*
X229110728Y-101527309D02*
X229077056Y-101628324D01*
X229077056Y-101628324D02*
X228942369Y-101763011D01*
X228942369Y-101763011D02*
X228841354Y-101796683D01*
X228841354Y-101796683D02*
X228740339Y-101763011D01*
X228740339Y-101763011D02*
X228470965Y-101493637D01*
X228470965Y-101493637D02*
X228437293Y-101392622D01*
X228437293Y-101392622D02*
X228470965Y-101291606D01*
X228470965Y-101291606D02*
X228605652Y-101156919D01*
X228605652Y-101156919D02*
X228706667Y-101123248D01*
X228706667Y-101123248D02*
X228807682Y-101156919D01*
X228807682Y-101156919D02*
X228875026Y-101224263D01*
X228875026Y-101224263D02*
X228605652Y-101628324D01*
X229481117Y-101224263D02*
X229009713Y-100752858D01*
X229144400Y-100887545D02*
X229110728Y-100786530D01*
X229110728Y-100786530D02*
X229110728Y-100719187D01*
X229110728Y-100719187D02*
X229144400Y-100618171D01*
X229144400Y-100618171D02*
X229211743Y-100550828D01*
X230289240Y-100416140D02*
X229885179Y-100820202D01*
X230087209Y-100618171D02*
X229380102Y-99911064D01*
X229380102Y-99911064D02*
X229413774Y-100079423D01*
X229413774Y-100079423D02*
X229413774Y-100214110D01*
X229413774Y-100214110D02*
X229380102Y-100315125D01*
X228209224Y-52790265D02*
X227805163Y-52386204D01*
X228007193Y-52588235D02*
X228714300Y-51881128D01*
X228714300Y-51881128D02*
X228545941Y-51914800D01*
X228545941Y-51914800D02*
X228411254Y-51914800D01*
X228411254Y-51914800D02*
X228310239Y-51881128D01*
X229118361Y-52419876D02*
X229185705Y-52419876D01*
X229185705Y-52419876D02*
X229286720Y-52453548D01*
X229286720Y-52453548D02*
X229455079Y-52621907D01*
X229455079Y-52621907D02*
X229488751Y-52722922D01*
X229488751Y-52722922D02*
X229488751Y-52790265D01*
X229488751Y-52790265D02*
X229455079Y-52891281D01*
X229455079Y-52891281D02*
X229387735Y-52958624D01*
X229387735Y-52958624D02*
X229253048Y-53025968D01*
X229253048Y-53025968D02*
X228444926Y-53025968D01*
X228444926Y-53025968D02*
X228882659Y-53463700D01*
X229589766Y-53227998D02*
X229286720Y-53867761D01*
X229286720Y-53867761D02*
X229926483Y-53564716D01*
X229724453Y-54305494D02*
X230195858Y-53834090D01*
X230128514Y-53901433D02*
X230195858Y-53901433D01*
X230195858Y-53901433D02*
X230296873Y-53935105D01*
X230296873Y-53935105D02*
X230397888Y-54036120D01*
X230397888Y-54036120D02*
X230431560Y-54137136D01*
X230431560Y-54137136D02*
X230397888Y-54238151D01*
X230397888Y-54238151D02*
X230027499Y-54608540D01*
X230397888Y-54238151D02*
X230498903Y-54204479D01*
X230498903Y-54204479D02*
X230599919Y-54238151D01*
X230599919Y-54238151D02*
X230700934Y-54339166D01*
X230700934Y-54339166D02*
X230734606Y-54440181D01*
X230734606Y-54440181D02*
X230700934Y-54541197D01*
X230700934Y-54541197D02*
X230330545Y-54911586D01*
X230970308Y-55551349D02*
X231340697Y-55180960D01*
X231340697Y-55180960D02*
X231374369Y-55079944D01*
X231374369Y-55079944D02*
X231340697Y-54978929D01*
X231340697Y-54978929D02*
X231206010Y-54844242D01*
X231206010Y-54844242D02*
X231104995Y-54810570D01*
X231003979Y-55517677D02*
X230902964Y-55484005D01*
X230902964Y-55484005D02*
X230734605Y-55315647D01*
X230734605Y-55315647D02*
X230700934Y-55214631D01*
X230700934Y-55214631D02*
X230734605Y-55113616D01*
X230734605Y-55113616D02*
X230801949Y-55046273D01*
X230801949Y-55046273D02*
X230902964Y-55012601D01*
X230902964Y-55012601D02*
X231003979Y-55046273D01*
X231003979Y-55046273D02*
X231172338Y-55214631D01*
X231172338Y-55214631D02*
X231273353Y-55248303D01*
X231778430Y-55416662D02*
X231307025Y-55888066D01*
X231711086Y-55484005D02*
X231778430Y-55484005D01*
X231778430Y-55484005D02*
X231879445Y-55517677D01*
X231879445Y-55517677D02*
X231980460Y-55618692D01*
X231980460Y-55618692D02*
X232014132Y-55719708D01*
X232014132Y-55719708D02*
X231980460Y-55820723D01*
X231980460Y-55820723D02*
X231610071Y-56191112D01*
X232350850Y-55989082D02*
X232047804Y-56628845D01*
X232687567Y-56325799D02*
X232047804Y-56628845D01*
X232047804Y-56628845D02*
X231812102Y-56729860D01*
X231812102Y-56729860D02*
X231744758Y-56729860D01*
X231744758Y-56729860D02*
X231643743Y-56696189D01*
X232788582Y-57369624D02*
X233158972Y-56999234D01*
X233158972Y-56999234D02*
X233192643Y-56898219D01*
X233192643Y-56898219D02*
X233158972Y-56797204D01*
X233158972Y-56797204D02*
X233024285Y-56662517D01*
X233024285Y-56662517D02*
X232923269Y-56628845D01*
X232822254Y-57335952D02*
X232721239Y-57302280D01*
X232721239Y-57302280D02*
X232552880Y-57133921D01*
X232552880Y-57133921D02*
X232519208Y-57032906D01*
X232519208Y-57032906D02*
X232552880Y-56931891D01*
X232552880Y-56931891D02*
X232620224Y-56864547D01*
X232620224Y-56864547D02*
X232721239Y-56830876D01*
X232721239Y-56830876D02*
X232822254Y-56864547D01*
X232822254Y-56864547D02*
X232990613Y-57032906D01*
X232990613Y-57032906D02*
X233091628Y-57066578D01*
X233125300Y-57706341D02*
X233596705Y-57234937D01*
X233529361Y-57302280D02*
X233596705Y-57302280D01*
X233596705Y-57302280D02*
X233697720Y-57335952D01*
X233697720Y-57335952D02*
X233798735Y-57436967D01*
X233798735Y-57436967D02*
X233832407Y-57537983D01*
X233832407Y-57537983D02*
X233798735Y-57638998D01*
X233798735Y-57638998D02*
X233428346Y-58009387D01*
X233798735Y-57638998D02*
X233899750Y-57605326D01*
X233899750Y-57605326D02*
X234000766Y-57638998D01*
X234000766Y-57638998D02*
X234101781Y-57740013D01*
X234101781Y-57740013D02*
X234135453Y-57841028D01*
X234135453Y-57841028D02*
X234101781Y-57942044D01*
X234101781Y-57942044D02*
X233731392Y-58312433D01*
X234539513Y-58177746D02*
X233832407Y-58884852D01*
X234505842Y-58211417D02*
X234606857Y-58245089D01*
X234606857Y-58245089D02*
X234741544Y-58379776D01*
X234741544Y-58379776D02*
X234775216Y-58480791D01*
X234775216Y-58480791D02*
X234775216Y-58548135D01*
X234775216Y-58548135D02*
X234741544Y-58649150D01*
X234741544Y-58649150D02*
X234539513Y-58851181D01*
X234539513Y-58851181D02*
X234438498Y-58884852D01*
X234438498Y-58884852D02*
X234371155Y-58884852D01*
X234371155Y-58884852D02*
X234270139Y-58851181D01*
X234270139Y-58851181D02*
X234135452Y-58716494D01*
X234135452Y-58716494D02*
X234101781Y-58615478D01*
X235078261Y-59659303D02*
X234674200Y-59255242D01*
X234876231Y-59457272D02*
X235583338Y-58750165D01*
X235583338Y-58750165D02*
X235414979Y-58783837D01*
X235414979Y-58783837D02*
X235280292Y-58783837D01*
X235280292Y-58783837D02*
X235179277Y-58750165D01*
X220954910Y-44121738D02*
X220618193Y-43785020D01*
X220618193Y-43785020D02*
X220247803Y-44088066D01*
X220247803Y-44088066D02*
X220315147Y-44088066D01*
X220315147Y-44088066D02*
X220416162Y-44121738D01*
X220416162Y-44121738D02*
X220584521Y-44290097D01*
X220584521Y-44290097D02*
X220618193Y-44391112D01*
X220618193Y-44391112D02*
X220618193Y-44458455D01*
X220618193Y-44458455D02*
X220584521Y-44559471D01*
X220584521Y-44559471D02*
X220416162Y-44727829D01*
X220416162Y-44727829D02*
X220315147Y-44761501D01*
X220315147Y-44761501D02*
X220247803Y-44761501D01*
X220247803Y-44761501D02*
X220146788Y-44727829D01*
X220146788Y-44727829D02*
X219978429Y-44559471D01*
X219978429Y-44559471D02*
X219944758Y-44458455D01*
X219944758Y-44458455D02*
X219944758Y-44391112D01*
X220988582Y-44626814D02*
X220685536Y-45266577D01*
X220685536Y-45266577D02*
X221325299Y-44963532D01*
X221123269Y-45704310D02*
X221594674Y-45232906D01*
X221527330Y-45300249D02*
X221594674Y-45300249D01*
X221594674Y-45300249D02*
X221695689Y-45333921D01*
X221695689Y-45333921D02*
X221796704Y-45434936D01*
X221796704Y-45434936D02*
X221830376Y-45535952D01*
X221830376Y-45535952D02*
X221796704Y-45636967D01*
X221796704Y-45636967D02*
X221426315Y-46007356D01*
X221796704Y-45636967D02*
X221897719Y-45603295D01*
X221897719Y-45603295D02*
X221998735Y-45636967D01*
X221998735Y-45636967D02*
X222099750Y-45737982D01*
X222099750Y-45737982D02*
X222133422Y-45838997D01*
X222133422Y-45838997D02*
X222099750Y-45940013D01*
X222099750Y-45940013D02*
X221729361Y-46310402D01*
X222369124Y-46950165D02*
X222739513Y-46579776D01*
X222739513Y-46579776D02*
X222773185Y-46478760D01*
X222773185Y-46478760D02*
X222739513Y-46377745D01*
X222739513Y-46377745D02*
X222604826Y-46243058D01*
X222604826Y-46243058D02*
X222503811Y-46209386D01*
X222402795Y-46916493D02*
X222301780Y-46882821D01*
X222301780Y-46882821D02*
X222133421Y-46714463D01*
X222133421Y-46714463D02*
X222099750Y-46613447D01*
X222099750Y-46613447D02*
X222133421Y-46512432D01*
X222133421Y-46512432D02*
X222200765Y-46445089D01*
X222200765Y-46445089D02*
X222301780Y-46411417D01*
X222301780Y-46411417D02*
X222402795Y-46445089D01*
X222402795Y-46445089D02*
X222571154Y-46613447D01*
X222571154Y-46613447D02*
X222672169Y-46647119D01*
X223177246Y-46815478D02*
X222705841Y-47286883D01*
X223109902Y-46882822D02*
X223177246Y-46882822D01*
X223177246Y-46882822D02*
X223278261Y-46916493D01*
X223278261Y-46916493D02*
X223379276Y-47017509D01*
X223379276Y-47017509D02*
X223412948Y-47118524D01*
X223412948Y-47118524D02*
X223379276Y-47219539D01*
X223379276Y-47219539D02*
X223008887Y-47589928D01*
X223749666Y-47387898D02*
X223446620Y-48027661D01*
X224086383Y-47724615D02*
X223446620Y-48027661D01*
X223446620Y-48027661D02*
X223210918Y-48128676D01*
X223210918Y-48128676D02*
X223143574Y-48128676D01*
X223143574Y-48128676D02*
X223042559Y-48095005D01*
X224187399Y-48768440D02*
X224557788Y-48398051D01*
X224557788Y-48398051D02*
X224591460Y-48297035D01*
X224591460Y-48297035D02*
X224557788Y-48196020D01*
X224557788Y-48196020D02*
X224423101Y-48061333D01*
X224423101Y-48061333D02*
X224322086Y-48027661D01*
X224221070Y-48734768D02*
X224120055Y-48701096D01*
X224120055Y-48701096D02*
X223951696Y-48532738D01*
X223951696Y-48532738D02*
X223918025Y-48431722D01*
X223918025Y-48431722D02*
X223951696Y-48330707D01*
X223951696Y-48330707D02*
X224019040Y-48263364D01*
X224019040Y-48263364D02*
X224120055Y-48229692D01*
X224120055Y-48229692D02*
X224221070Y-48263364D01*
X224221070Y-48263364D02*
X224389429Y-48431722D01*
X224389429Y-48431722D02*
X224490444Y-48465394D01*
X224524116Y-49105157D02*
X224995521Y-48633753D01*
X224928177Y-48701096D02*
X224995521Y-48701096D01*
X224995521Y-48701096D02*
X225096536Y-48734768D01*
X225096536Y-48734768D02*
X225197551Y-48835783D01*
X225197551Y-48835783D02*
X225231223Y-48936799D01*
X225231223Y-48936799D02*
X225197551Y-49037814D01*
X225197551Y-49037814D02*
X224827162Y-49408203D01*
X225197551Y-49037814D02*
X225298566Y-49004142D01*
X225298566Y-49004142D02*
X225399582Y-49037814D01*
X225399582Y-49037814D02*
X225500597Y-49138829D01*
X225500597Y-49138829D02*
X225534269Y-49239844D01*
X225534269Y-49239844D02*
X225500597Y-49340860D01*
X225500597Y-49340860D02*
X225130208Y-49711249D01*
X225938329Y-49576562D02*
X225231223Y-50283668D01*
X225904658Y-49610233D02*
X226005673Y-49643905D01*
X226005673Y-49643905D02*
X226140360Y-49778592D01*
X226140360Y-49778592D02*
X226174032Y-49879607D01*
X226174032Y-49879607D02*
X226174032Y-49946951D01*
X226174032Y-49946951D02*
X226140360Y-50047966D01*
X226140360Y-50047966D02*
X225938329Y-50249997D01*
X225938329Y-50249997D02*
X225837314Y-50283668D01*
X225837314Y-50283668D02*
X225769971Y-50283668D01*
X225769971Y-50283668D02*
X225668955Y-50249997D01*
X225668955Y-50249997D02*
X225534268Y-50115310D01*
X225534268Y-50115310D02*
X225500597Y-50014294D01*
X226477078Y-51058119D02*
X226073017Y-50654058D01*
X226275047Y-50856088D02*
X226982154Y-50148982D01*
X226982154Y-50148982D02*
X226813795Y-50182653D01*
X226813795Y-50182653D02*
X226679108Y-50182653D01*
X226679108Y-50182653D02*
X226578093Y-50148982D01*
X238884819Y-85356666D02*
X238408628Y-85689999D01*
X238884819Y-85928094D02*
X237884819Y-85928094D01*
X237884819Y-85928094D02*
X237884819Y-85547142D01*
X237884819Y-85547142D02*
X237932438Y-85451904D01*
X237932438Y-85451904D02*
X237980057Y-85404285D01*
X237980057Y-85404285D02*
X238075295Y-85356666D01*
X238075295Y-85356666D02*
X238218152Y-85356666D01*
X238218152Y-85356666D02*
X238313390Y-85404285D01*
X238313390Y-85404285D02*
X238361009Y-85451904D01*
X238361009Y-85451904D02*
X238408628Y-85547142D01*
X238408628Y-85547142D02*
X238408628Y-85928094D01*
X237980057Y-84975713D02*
X237932438Y-84928094D01*
X237932438Y-84928094D02*
X237884819Y-84832856D01*
X237884819Y-84832856D02*
X237884819Y-84594761D01*
X237884819Y-84594761D02*
X237932438Y-84499523D01*
X237932438Y-84499523D02*
X237980057Y-84451904D01*
X237980057Y-84451904D02*
X238075295Y-84404285D01*
X238075295Y-84404285D02*
X238170533Y-84404285D01*
X238170533Y-84404285D02*
X238313390Y-84451904D01*
X238313390Y-84451904D02*
X238884819Y-85023332D01*
X238884819Y-85023332D02*
X238884819Y-84404285D01*
X223233333Y-95224819D02*
X222900000Y-94748628D01*
X222661905Y-95224819D02*
X222661905Y-94224819D01*
X222661905Y-94224819D02*
X223042857Y-94224819D01*
X223042857Y-94224819D02*
X223138095Y-94272438D01*
X223138095Y-94272438D02*
X223185714Y-94320057D01*
X223185714Y-94320057D02*
X223233333Y-94415295D01*
X223233333Y-94415295D02*
X223233333Y-94558152D01*
X223233333Y-94558152D02*
X223185714Y-94653390D01*
X223185714Y-94653390D02*
X223138095Y-94701009D01*
X223138095Y-94701009D02*
X223042857Y-94748628D01*
X223042857Y-94748628D02*
X222661905Y-94748628D01*
X224185714Y-95224819D02*
X223614286Y-95224819D01*
X223900000Y-95224819D02*
X223900000Y-94224819D01*
X223900000Y-94224819D02*
X223804762Y-94367676D01*
X223804762Y-94367676D02*
X223709524Y-94462914D01*
X223709524Y-94462914D02*
X223614286Y-94510533D01*
X228748992Y-102683679D02*
X228647977Y-102717351D01*
X228647977Y-102717351D02*
X228513290Y-102717351D01*
X228513290Y-102717351D02*
X228311259Y-102717351D01*
X228311259Y-102717351D02*
X228210244Y-102751023D01*
X228210244Y-102751023D02*
X228142901Y-102818366D01*
X228344931Y-102953053D02*
X228243916Y-102986725D01*
X228243916Y-102986725D02*
X228109229Y-102986725D01*
X228109229Y-102986725D02*
X227940870Y-102885710D01*
X227940870Y-102885710D02*
X227705168Y-102650007D01*
X227705168Y-102650007D02*
X227604153Y-102481649D01*
X227604153Y-102481649D02*
X227604153Y-102346962D01*
X227604153Y-102346962D02*
X227637824Y-102245946D01*
X227637824Y-102245946D02*
X227772511Y-102111259D01*
X227772511Y-102111259D02*
X227873527Y-102077588D01*
X227873527Y-102077588D02*
X228008214Y-102077588D01*
X228008214Y-102077588D02*
X228176572Y-102178603D01*
X228176572Y-102178603D02*
X228412275Y-102414305D01*
X228412275Y-102414305D02*
X228513290Y-102582664D01*
X228513290Y-102582664D02*
X228513290Y-102717351D01*
X228513290Y-102717351D02*
X228479618Y-102818366D01*
X228479618Y-102818366D02*
X228344931Y-102953053D01*
X229321412Y-101976572D02*
X228917351Y-102380633D01*
X229119381Y-102178603D02*
X228412275Y-101471496D01*
X228412275Y-101471496D02*
X228445946Y-101639855D01*
X228445946Y-101639855D02*
X228445946Y-101774542D01*
X228445946Y-101774542D02*
X228412275Y-101875557D01*
X193347200Y-120595237D02*
X193394819Y-120499999D01*
X193394819Y-120499999D02*
X193394819Y-120309523D01*
X193394819Y-120309523D02*
X193347200Y-120214285D01*
X193347200Y-120214285D02*
X193251961Y-120166666D01*
X193251961Y-120166666D02*
X193204342Y-120166666D01*
X193204342Y-120166666D02*
X193109104Y-120214285D01*
X193109104Y-120214285D02*
X193061485Y-120309523D01*
X193061485Y-120309523D02*
X193061485Y-120452380D01*
X193061485Y-120452380D02*
X193013866Y-120547618D01*
X193013866Y-120547618D02*
X192918628Y-120595237D01*
X192918628Y-120595237D02*
X192871009Y-120595237D01*
X192871009Y-120595237D02*
X192775771Y-120547618D01*
X192775771Y-120547618D02*
X192728152Y-120452380D01*
X192728152Y-120452380D02*
X192728152Y-120309523D01*
X192728152Y-120309523D02*
X192775771Y-120214285D01*
X193394819Y-119309523D02*
X192394819Y-119309523D01*
X193347200Y-119309523D02*
X193394819Y-119404761D01*
X193394819Y-119404761D02*
X193394819Y-119595237D01*
X193394819Y-119595237D02*
X193347200Y-119690475D01*
X193347200Y-119690475D02*
X193299580Y-119738094D01*
X193299580Y-119738094D02*
X193204342Y-119785713D01*
X193204342Y-119785713D02*
X192918628Y-119785713D01*
X192918628Y-119785713D02*
X192823390Y-119738094D01*
X192823390Y-119738094D02*
X192775771Y-119690475D01*
X192775771Y-119690475D02*
X192728152Y-119595237D01*
X192728152Y-119595237D02*
X192728152Y-119404761D01*
X192728152Y-119404761D02*
X192775771Y-119309523D01*
X193394819Y-118404761D02*
X192871009Y-118404761D01*
X192871009Y-118404761D02*
X192775771Y-118452380D01*
X192775771Y-118452380D02*
X192728152Y-118547618D01*
X192728152Y-118547618D02*
X192728152Y-118738094D01*
X192728152Y-118738094D02*
X192775771Y-118833332D01*
X193347200Y-118404761D02*
X193394819Y-118499999D01*
X193394819Y-118499999D02*
X193394819Y-118738094D01*
X193394819Y-118738094D02*
X193347200Y-118833332D01*
X193347200Y-118833332D02*
X193251961Y-118880951D01*
X193251961Y-118880951D02*
X193156723Y-118880951D01*
X193156723Y-118880951D02*
X193061485Y-118833332D01*
X193061485Y-118833332D02*
X193013866Y-118738094D01*
X193013866Y-118738094D02*
X193013866Y-118499999D01*
X193013866Y-118499999D02*
X192966247Y-118404761D01*
X193394819Y-117404761D02*
X193394819Y-117976189D01*
X193394819Y-117690475D02*
X192394819Y-117690475D01*
X192394819Y-117690475D02*
X192537676Y-117785713D01*
X192537676Y-117785713D02*
X192632914Y-117880951D01*
X192632914Y-117880951D02*
X192680533Y-117976189D01*
X222317200Y-120333332D02*
X222364819Y-120190475D01*
X222364819Y-120190475D02*
X222364819Y-119952380D01*
X222364819Y-119952380D02*
X222317200Y-119857142D01*
X222317200Y-119857142D02*
X222269580Y-119809523D01*
X222269580Y-119809523D02*
X222174342Y-119761904D01*
X222174342Y-119761904D02*
X222079104Y-119761904D01*
X222079104Y-119761904D02*
X221983866Y-119809523D01*
X221983866Y-119809523D02*
X221936247Y-119857142D01*
X221936247Y-119857142D02*
X221888628Y-119952380D01*
X221888628Y-119952380D02*
X221841009Y-120142856D01*
X221841009Y-120142856D02*
X221793390Y-120238094D01*
X221793390Y-120238094D02*
X221745771Y-120285713D01*
X221745771Y-120285713D02*
X221650533Y-120333332D01*
X221650533Y-120333332D02*
X221555295Y-120333332D01*
X221555295Y-120333332D02*
X221460057Y-120285713D01*
X221460057Y-120285713D02*
X221412438Y-120238094D01*
X221412438Y-120238094D02*
X221364819Y-120142856D01*
X221364819Y-120142856D02*
X221364819Y-119904761D01*
X221364819Y-119904761D02*
X221412438Y-119761904D01*
X221364819Y-119428570D02*
X222364819Y-119190475D01*
X222364819Y-119190475D02*
X221650533Y-118999999D01*
X221650533Y-118999999D02*
X222364819Y-118809523D01*
X222364819Y-118809523D02*
X221364819Y-118571428D01*
X221364819Y-118285713D02*
X221364819Y-117666666D01*
X221364819Y-117666666D02*
X221745771Y-117999999D01*
X221745771Y-117999999D02*
X221745771Y-117857142D01*
X221745771Y-117857142D02*
X221793390Y-117761904D01*
X221793390Y-117761904D02*
X221841009Y-117714285D01*
X221841009Y-117714285D02*
X221936247Y-117666666D01*
X221936247Y-117666666D02*
X222174342Y-117666666D01*
X222174342Y-117666666D02*
X222269580Y-117714285D01*
X222269580Y-117714285D02*
X222317200Y-117761904D01*
X222317200Y-117761904D02*
X222364819Y-117857142D01*
X222364819Y-117857142D02*
X222364819Y-118142856D01*
X222364819Y-118142856D02*
X222317200Y-118238094D01*
X222317200Y-118238094D02*
X222269580Y-118285713D01*
X202095714Y-49239104D02*
X202571904Y-49239104D01*
X202000476Y-49524819D02*
X202333809Y-48524819D01*
X202333809Y-48524819D02*
X202667142Y-49524819D01*
X203524285Y-49524819D02*
X202952857Y-49524819D01*
X203238571Y-49524819D02*
X203238571Y-48524819D01*
X203238571Y-48524819D02*
X203143333Y-48667676D01*
X203143333Y-48667676D02*
X203048095Y-48762914D01*
X203048095Y-48762914D02*
X202952857Y-48810533D01*
X201548095Y-89164819D02*
X201548095Y-89974342D01*
X201548095Y-89974342D02*
X201595714Y-90069580D01*
X201595714Y-90069580D02*
X201643333Y-90117200D01*
X201643333Y-90117200D02*
X201738571Y-90164819D01*
X201738571Y-90164819D02*
X201929047Y-90164819D01*
X201929047Y-90164819D02*
X202024285Y-90117200D01*
X202024285Y-90117200D02*
X202071904Y-90069580D01*
X202071904Y-90069580D02*
X202119523Y-89974342D01*
X202119523Y-89974342D02*
X202119523Y-89164819D01*
X202548095Y-90117200D02*
X202690952Y-90164819D01*
X202690952Y-90164819D02*
X202929047Y-90164819D01*
X202929047Y-90164819D02*
X203024285Y-90117200D01*
X203024285Y-90117200D02*
X203071904Y-90069580D01*
X203071904Y-90069580D02*
X203119523Y-89974342D01*
X203119523Y-89974342D02*
X203119523Y-89879104D01*
X203119523Y-89879104D02*
X203071904Y-89783866D01*
X203071904Y-89783866D02*
X203024285Y-89736247D01*
X203024285Y-89736247D02*
X202929047Y-89688628D01*
X202929047Y-89688628D02*
X202738571Y-89641009D01*
X202738571Y-89641009D02*
X202643333Y-89593390D01*
X202643333Y-89593390D02*
X202595714Y-89545771D01*
X202595714Y-89545771D02*
X202548095Y-89450533D01*
X202548095Y-89450533D02*
X202548095Y-89355295D01*
X202548095Y-89355295D02*
X202595714Y-89260057D01*
X202595714Y-89260057D02*
X202643333Y-89212438D01*
X202643333Y-89212438D02*
X202738571Y-89164819D01*
X202738571Y-89164819D02*
X202976666Y-89164819D01*
X202976666Y-89164819D02*
X203119523Y-89212438D01*
X203881428Y-89641009D02*
X204024285Y-89688628D01*
X204024285Y-89688628D02*
X204071904Y-89736247D01*
X204071904Y-89736247D02*
X204119523Y-89831485D01*
X204119523Y-89831485D02*
X204119523Y-89974342D01*
X204119523Y-89974342D02*
X204071904Y-90069580D01*
X204071904Y-90069580D02*
X204024285Y-90117200D01*
X204024285Y-90117200D02*
X203929047Y-90164819D01*
X203929047Y-90164819D02*
X203548095Y-90164819D01*
X203548095Y-90164819D02*
X203548095Y-89164819D01*
X203548095Y-89164819D02*
X203881428Y-89164819D01*
X203881428Y-89164819D02*
X203976666Y-89212438D01*
X203976666Y-89212438D02*
X204024285Y-89260057D01*
X204024285Y-89260057D02*
X204071904Y-89355295D01*
X204071904Y-89355295D02*
X204071904Y-89450533D01*
X204071904Y-89450533D02*
X204024285Y-89545771D01*
X204024285Y-89545771D02*
X203976666Y-89593390D01*
X203976666Y-89593390D02*
X203881428Y-89641009D01*
X203881428Y-89641009D02*
X203548095Y-89641009D01*
X179495714Y-61139104D02*
X179971904Y-61139104D01*
X179400476Y-61424819D02*
X179733809Y-60424819D01*
X179733809Y-60424819D02*
X180067142Y-61424819D01*
X180352857Y-60520057D02*
X180400476Y-60472438D01*
X180400476Y-60472438D02*
X180495714Y-60424819D01*
X180495714Y-60424819D02*
X180733809Y-60424819D01*
X180733809Y-60424819D02*
X180829047Y-60472438D01*
X180829047Y-60472438D02*
X180876666Y-60520057D01*
X180876666Y-60520057D02*
X180924285Y-60615295D01*
X180924285Y-60615295D02*
X180924285Y-60710533D01*
X180924285Y-60710533D02*
X180876666Y-60853390D01*
X180876666Y-60853390D02*
X180305238Y-61424819D01*
X180305238Y-61424819D02*
X180924285Y-61424819D01*
X163666666Y-65664819D02*
X163666666Y-66379104D01*
X163666666Y-66379104D02*
X163619047Y-66521961D01*
X163619047Y-66521961D02*
X163523809Y-66617200D01*
X163523809Y-66617200D02*
X163380952Y-66664819D01*
X163380952Y-66664819D02*
X163285714Y-66664819D01*
X164047619Y-65664819D02*
X164666666Y-65664819D01*
X164666666Y-65664819D02*
X164333333Y-66045771D01*
X164333333Y-66045771D02*
X164476190Y-66045771D01*
X164476190Y-66045771D02*
X164571428Y-66093390D01*
X164571428Y-66093390D02*
X164619047Y-66141009D01*
X164619047Y-66141009D02*
X164666666Y-66236247D01*
X164666666Y-66236247D02*
X164666666Y-66474342D01*
X164666666Y-66474342D02*
X164619047Y-66569580D01*
X164619047Y-66569580D02*
X164571428Y-66617200D01*
X164571428Y-66617200D02*
X164476190Y-66664819D01*
X164476190Y-66664819D02*
X164190476Y-66664819D01*
X164190476Y-66664819D02*
X164095238Y-66617200D01*
X164095238Y-66617200D02*
X164047619Y-66569580D01*
D11*
%TO.C,TH1*%
X242180000Y-97780000D02*
X240800000Y-97780000D01*
X242180000Y-96400000D02*
X242180000Y-97780000D01*
X242180000Y-95130000D02*
X242180000Y-92480000D01*
X242180000Y-95130000D02*
X239420000Y-95130000D01*
X242180000Y-92480000D02*
X239420000Y-92480000D01*
X239420000Y-95130000D02*
X239420000Y-92480000D01*
%TO.C,SW2*%
X184180000Y-120580000D02*
X182800000Y-120580000D01*
X184180000Y-119200000D02*
X184180000Y-120580000D01*
X184180000Y-117930000D02*
X184180000Y-115280000D01*
X184180000Y-117930000D02*
X181420000Y-117930000D01*
X184180000Y-115280000D02*
X181420000Y-115280000D01*
X181420000Y-117930000D02*
X181420000Y-115280000D01*
%TO.C,SW1*%
X188780000Y-120580000D02*
X187400000Y-120580000D01*
X188780000Y-119200000D02*
X188780000Y-120580000D01*
X188780000Y-117930000D02*
X188780000Y-115280000D01*
X188780000Y-117930000D02*
X186020000Y-117930000D01*
X188780000Y-115280000D02*
X186020000Y-115280000D01*
X186020000Y-117930000D02*
X186020000Y-115280000D01*
%TO.C,heater1*%
X225185572Y-106290812D02*
X232426346Y-99050038D01*
X227321035Y-108426274D02*
X234561808Y-101185501D01*
X230785858Y-111891097D02*
X238026631Y-104650324D01*
X231846518Y-112951758D02*
X239087291Y-105710984D01*
X232284924Y-113390164D02*
X225185572Y-106290812D01*
X233925412Y-111749676D02*
X232284924Y-113390164D01*
X232426346Y-99050038D02*
X239525698Y-106149390D01*
X239525698Y-106149390D02*
X234349676Y-111325412D01*
X234880006Y-111657752D02*
X234257752Y-112280006D01*
X234137544Y-111537544D01*
X234880006Y-111657752D01*
G36*
X234880006Y-111657752D02*
G01*
X234257752Y-112280006D01*
X234137544Y-111537544D01*
X234880006Y-111657752D01*
G37*
%TO.C,12vmanyamp1*%
X236090812Y-58614428D02*
X228850038Y-51373654D01*
X238226274Y-56478965D02*
X230985501Y-49238192D01*
X241691097Y-53014142D02*
X234450324Y-45773369D01*
X242751758Y-51953482D02*
X235510984Y-44712709D01*
X243190164Y-51515076D02*
X236090812Y-58614428D01*
X241549676Y-49874588D02*
X243190164Y-51515076D01*
X228850038Y-51373654D02*
X235949390Y-44274302D01*
X235949390Y-44274302D02*
X241125412Y-49450324D01*
X242080006Y-49542248D02*
X241337544Y-49662456D01*
X241457752Y-48919994D01*
X242080006Y-49542248D01*
G36*
X242080006Y-49542248D02*
G01*
X241337544Y-49662456D01*
X241457752Y-48919994D01*
X242080006Y-49542248D01*
G37*
%TO.C,5vmanyamp1*%
X227826346Y-50349962D02*
X220585572Y-43109188D01*
X229961808Y-48214499D02*
X222721035Y-40973726D01*
X233426631Y-44749676D02*
X226185858Y-37508903D01*
X234487292Y-43689016D02*
X227246518Y-36448243D01*
X234925698Y-43250610D02*
X227826346Y-50349962D01*
X233285210Y-41610122D02*
X234925698Y-43250610D01*
X220585572Y-43109188D02*
X227684924Y-36009836D01*
X227684924Y-36009836D02*
X232860946Y-41185858D01*
X233815540Y-41277782D02*
X233073078Y-41397990D01*
X233193286Y-40655528D01*
X233815540Y-41277782D01*
G36*
X233815540Y-41277782D02*
G01*
X233073078Y-41397990D01*
X233193286Y-40655528D01*
X233815540Y-41277782D01*
G37*
%TO.C,R2*%
X239430000Y-88460000D02*
X239430000Y-81920000D01*
X239760000Y-88460000D02*
X239430000Y-88460000D01*
X241840000Y-88460000D02*
X242170000Y-88460000D01*
X242170000Y-88460000D02*
X242170000Y-81920000D01*
X239430000Y-81920000D02*
X239760000Y-81920000D01*
X242170000Y-81920000D02*
X241840000Y-81920000D01*
%TO.C,R1*%
X226670000Y-93770000D02*
X220130000Y-93770000D01*
X226670000Y-93440000D02*
X226670000Y-93770000D01*
X226670000Y-91360000D02*
X226670000Y-91030000D01*
X226670000Y-91030000D02*
X220130000Y-91030000D01*
X220130000Y-93770000D02*
X220130000Y-93440000D01*
X220130000Y-91030000D02*
X220130000Y-91360000D01*
%TO.C,Q1*%
X231446733Y-98020102D02*
X224220101Y-105246733D01*
X230470925Y-97044294D02*
X223244294Y-104270926D01*
X228179899Y-94753268D02*
X231446733Y-98020102D01*
X229141564Y-100325270D02*
X228165757Y-99349462D01*
X226525269Y-102941565D02*
X225549462Y-101965758D01*
X224220101Y-105246733D02*
X220953268Y-101979900D01*
X220953268Y-101979900D02*
X228179899Y-94753268D01*
%TO.C,sda1*%
X193940000Y-120380000D02*
X193940000Y-119000000D01*
X195320000Y-120380000D02*
X193940000Y-120380000D01*
X196590000Y-117620000D02*
X204320000Y-117620000D01*
X196590000Y-120380000D02*
X196590000Y-117620000D01*
X196590000Y-120380000D02*
X204320000Y-120380000D01*
X204320000Y-120380000D02*
X204320000Y-117620000D01*
%TO.C,SW3*%
X220910000Y-117890000D02*
X220910000Y-119000000D01*
X219800000Y-117890000D02*
X220910000Y-117890000D01*
X218800000Y-117890000D02*
X212690000Y-117890000D01*
X218800000Y-117890000D02*
X218800000Y-120110000D01*
X212690000Y-117890000D02*
X212690000Y-120110000D01*
X218800000Y-120110000D02*
X212690000Y-120110000D01*
%TO.C,A1*%
X193790000Y-50210000D02*
X193790000Y-52880000D01*
X193790000Y-55420000D02*
X193790000Y-93650000D01*
X193790000Y-93650000D02*
X198870000Y-93650000D01*
X196460000Y-52880000D02*
X193790000Y-52880000D01*
X196460000Y-55420000D02*
X193790000Y-55420000D01*
X196460000Y-55420000D02*
X196460000Y-52880000D01*
X196460000Y-55420000D02*
X196460000Y-90980000D01*
X196460000Y-90980000D02*
X193790000Y-90980000D01*
X198870000Y-85770000D02*
X206750000Y-85770000D01*
X198870000Y-96190000D02*
X198870000Y-85770000D01*
X206750000Y-85770000D02*
X206750000Y-96190000D01*
X206750000Y-96190000D02*
X198870000Y-96190000D01*
X209160000Y-52880000D02*
X209160000Y-90980000D01*
X209160000Y-52880000D02*
X211830000Y-52880000D01*
X209160000Y-90980000D02*
X211830000Y-90980000D01*
X211830000Y-50210000D02*
X193790000Y-50210000D01*
X211830000Y-93650000D02*
X206750000Y-93650000D01*
X211830000Y-93650000D02*
X211830000Y-50210000D01*
%TO.C,A2*%
X172460000Y-62110000D02*
X172460000Y-63510000D01*
X172460000Y-64780000D02*
X172460000Y-82690000D01*
X172460000Y-82690000D02*
X187960000Y-82690000D01*
X173860000Y-62110000D02*
X172460000Y-62110000D01*
X175130000Y-62110000D02*
X175130000Y-64780000D01*
X175130000Y-64780000D02*
X172460000Y-64780000D01*
X175130000Y-64780000D02*
X175130000Y-82690000D01*
X185290000Y-62110000D02*
X185290000Y-82690000D01*
X187960000Y-62110000D02*
X175130000Y-62110000D01*
X187960000Y-82690000D02*
X187960000Y-62110000D01*
%TO.C,J3*%
X162620000Y-67210000D02*
X164000000Y-67210000D01*
X162620000Y-68590000D02*
X162620000Y-67210000D01*
X162620000Y-69860000D02*
X162620000Y-77590000D01*
X162620000Y-69860000D02*
X165380000Y-69860000D01*
X162620000Y-77590000D02*
X165380000Y-77590000D01*
X165380000Y-69860000D02*
X165380000Y-77590000D01*
%TD*%
M02*
