%TF.GenerationSoftware,KiCad,Pcbnew,9.0.6*%
%TF.CreationDate,2026-03-19T18:49:49+13:00*%
%TF.ProjectId,Galvanized Kaas,47616c76-616e-4697-9a65-64204b616173,rev?*%
%TF.SameCoordinates,Original*%
%TF.FileFunction,Plated,1,2,PTH,Drill*%
%TF.FilePolarity,Positive*%
%FSLAX46Y46*%
G04 Gerber Fmt 4.6, Leading zero omitted, Abs format (unit mm)*
G04 Created by KiCad (PCBNEW 9.0.6) date 2026-03-19 18:49:49*
%MOMM*%
%LPD*%
G01*
G04 APERTURE LIST*
%TA.AperFunction,ComponentDrill*%
%ADD10C,0.800000*%
%TD*%
%TA.AperFunction,ComponentDrill*%
%ADD11C,1.000000*%
%TD*%
%TA.AperFunction,ComponentDrill*%
%ADD12C,1.100000*%
%TD*%
%TA.AperFunction,ComponentDrill*%
%ADD13C,1.300000*%
%TD*%
G04 APERTURE END LIST*
D10*
%TO.C,A2*%
X173860000Y-63510000D03*
X173860000Y-66050000D03*
X173860000Y-68590000D03*
X173860000Y-71130000D03*
X173860000Y-73670000D03*
X173860000Y-76210000D03*
X173860000Y-78750000D03*
X173860000Y-81290000D03*
X186560000Y-63510000D03*
X186560000Y-66050000D03*
X186560000Y-68590000D03*
X186560000Y-71130000D03*
X186560000Y-73670000D03*
X186560000Y-76210000D03*
X186560000Y-78750000D03*
X186560000Y-81290000D03*
%TO.C,SW3*%
X213800000Y-119000000D03*
X215800000Y-119000000D03*
X217800000Y-119000000D03*
%TO.C,R1*%
X219590000Y-92400000D03*
%TO.C,SW3*%
X219800000Y-119000000D03*
%TO.C,R1*%
X227210000Y-92400000D03*
%TO.C,R2*%
X240800000Y-81380000D03*
X240800000Y-89000000D03*
D11*
%TO.C,J3*%
X164000000Y-68590000D03*
X164000000Y-71130000D03*
X164000000Y-73670000D03*
X164000000Y-76210000D03*
%TO.C,SW2*%
X182800000Y-116660000D03*
X182800000Y-119200000D03*
%TO.C,SW1*%
X187400000Y-116660000D03*
X187400000Y-119200000D03*
%TO.C,A1*%
X195190000Y-54150000D03*
X195190000Y-56690000D03*
X195190000Y-59230000D03*
X195190000Y-61770000D03*
X195190000Y-64310000D03*
X195190000Y-66850000D03*
X195190000Y-69390000D03*
X195190000Y-71930000D03*
X195190000Y-74470000D03*
X195190000Y-77010000D03*
X195190000Y-79550000D03*
X195190000Y-82090000D03*
X195190000Y-84630000D03*
X195190000Y-87170000D03*
X195190000Y-89710000D03*
%TO.C,sda1*%
X195320000Y-119000000D03*
X197860000Y-119000000D03*
X200400000Y-119000000D03*
X202940000Y-119000000D03*
%TO.C,A1*%
X210430000Y-54150000D03*
X210430000Y-56690000D03*
X210430000Y-59230000D03*
X210430000Y-61770000D03*
X210430000Y-64310000D03*
X210430000Y-66850000D03*
X210430000Y-69390000D03*
X210430000Y-71930000D03*
X210430000Y-74470000D03*
X210430000Y-77010000D03*
X210430000Y-79550000D03*
X210430000Y-82090000D03*
X210430000Y-84630000D03*
X210430000Y-87170000D03*
X210430000Y-89710000D03*
%TO.C,TH1*%
X240800000Y-93860000D03*
X240800000Y-96400000D03*
D12*
%TO.C,Q1*%
X223732198Y-101124300D03*
X225528249Y-99328249D03*
X227324300Y-97532198D03*
D13*
%TO.C,5vmanyamp1*%
X226200000Y-41200000D03*
X229735534Y-44735534D03*
%TO.C,heater1*%
X230800000Y-108200000D03*
X234335534Y-104664466D03*
%TO.C,12vmanyamp1*%
X234464466Y-49464466D03*
X238000000Y-53000000D03*
M02*
