%TF.GenerationSoftware,KiCad,Pcbnew,9.0.6*%
%TF.CreationDate,2026-03-19T18:49:49+13:00*%
%TF.ProjectId,Galvanized Kaas,47616c76-616e-4697-9a65-64204b616173,rev?*%
%TF.SameCoordinates,Original*%
%TF.FileFunction,Drillmap*%
%TF.FilePolarity,Positive*%
%FSLAX45Y45*%
G04 Gerber Fmt 4.5, Leading zero omitted, Abs format (unit mm)*
G04 Created by KiCad (PCBNEW 9.0.6) date 2026-03-19 18:49:49*
%MOMM*%
%LPD*%
G01*
G04 APERTURE LIST*
%ADD10C,0.050000*%
%ADD11C,0.200000*%
%ADD12C,0.100000*%
%ADD13C,0.110000*%
%ADD14C,0.130000*%
G04 APERTURE END LIST*
D10*
X15780000Y-2640000D02*
X22280000Y-2640000D01*
X15780000Y-12640000D02*
X15780000Y-2640000D01*
X22280000Y-12640000D02*
X15780000Y-12640000D01*
X25280000Y-5640000D02*
X25280000Y-9640000D01*
X22280000Y-12640000D02*
X25280000Y-9640000D01*
X22280000Y-2640000D02*
X25280000Y-5640000D01*
D11*
D12*
X17346000Y-6311000D02*
X17426000Y-6391000D01*
X17426000Y-6311000D02*
X17346000Y-6391000D01*
X17346000Y-6565000D02*
X17426000Y-6645000D01*
X17426000Y-6565000D02*
X17346000Y-6645000D01*
X17346000Y-6819000D02*
X17426000Y-6899000D01*
X17426000Y-6819000D02*
X17346000Y-6899000D01*
X17346000Y-7073000D02*
X17426000Y-7153000D01*
X17426000Y-7073000D02*
X17346000Y-7153000D01*
X17346000Y-7327000D02*
X17426000Y-7407000D01*
X17426000Y-7327000D02*
X17346000Y-7407000D01*
X17346000Y-7581000D02*
X17426000Y-7661000D01*
X17426000Y-7581000D02*
X17346000Y-7661000D01*
X17346000Y-7835000D02*
X17426000Y-7915000D01*
X17426000Y-7835000D02*
X17346000Y-7915000D01*
X17346000Y-8089000D02*
X17426000Y-8169000D01*
X17426000Y-8089000D02*
X17346000Y-8169000D01*
X18616000Y-6311000D02*
X18696000Y-6391000D01*
X18696000Y-6311000D02*
X18616000Y-6391000D01*
X18616000Y-6565000D02*
X18696000Y-6645000D01*
X18696000Y-6565000D02*
X18616000Y-6645000D01*
X18616000Y-6819000D02*
X18696000Y-6899000D01*
X18696000Y-6819000D02*
X18616000Y-6899000D01*
X18616000Y-7073000D02*
X18696000Y-7153000D01*
X18696000Y-7073000D02*
X18616000Y-7153000D01*
X18616000Y-7327000D02*
X18696000Y-7407000D01*
X18696000Y-7327000D02*
X18616000Y-7407000D01*
X18616000Y-7581000D02*
X18696000Y-7661000D01*
X18696000Y-7581000D02*
X18616000Y-7661000D01*
X18616000Y-7835000D02*
X18696000Y-7915000D01*
X18696000Y-7835000D02*
X18616000Y-7915000D01*
X18616000Y-8089000D02*
X18696000Y-8169000D01*
X18696000Y-8089000D02*
X18616000Y-8169000D01*
X21340000Y-11860000D02*
X21420000Y-11940000D01*
X21420000Y-11860000D02*
X21340000Y-11940000D01*
X21540000Y-11860000D02*
X21620000Y-11940000D01*
X21620000Y-11860000D02*
X21540000Y-11940000D01*
X21740000Y-11860000D02*
X21820000Y-11940000D01*
X21820000Y-11860000D02*
X21740000Y-11940000D01*
X21919000Y-9200000D02*
X21999000Y-9280000D01*
X21999000Y-9200000D02*
X21919000Y-9280000D01*
X21940000Y-11860000D02*
X22020000Y-11940000D01*
X22020000Y-11860000D02*
X21940000Y-11940000D01*
X22681000Y-9200000D02*
X22761000Y-9280000D01*
X22761000Y-9200000D02*
X22681000Y-9280000D01*
X24040000Y-8098000D02*
X24120000Y-8178000D01*
X24120000Y-8098000D02*
X24040000Y-8178000D01*
X24040000Y-8860000D02*
X24120000Y-8940000D01*
X24120000Y-8860000D02*
X24040000Y-8940000D01*
X16450000Y-6859000D02*
G75*
G02*
X16350000Y-6859000I-50000J0D01*
G01*
X16350000Y-6859000D02*
G75*
G02*
X16450000Y-6859000I50000J0D01*
G01*
X16450000Y-7113000D02*
G75*
G02*
X16350000Y-7113000I-50000J0D01*
G01*
X16350000Y-7113000D02*
G75*
G02*
X16450000Y-7113000I50000J0D01*
G01*
X16450000Y-7367000D02*
G75*
G02*
X16350000Y-7367000I-50000J0D01*
G01*
X16350000Y-7367000D02*
G75*
G02*
X16450000Y-7367000I50000J0D01*
G01*
X16450000Y-7621000D02*
G75*
G02*
X16350000Y-7621000I-50000J0D01*
G01*
X16350000Y-7621000D02*
G75*
G02*
X16450000Y-7621000I50000J0D01*
G01*
X18330000Y-11666000D02*
G75*
G02*
X18230000Y-11666000I-50000J0D01*
G01*
X18230000Y-11666000D02*
G75*
G02*
X18330000Y-11666000I50000J0D01*
G01*
X18330000Y-11920000D02*
G75*
G02*
X18230000Y-11920000I-50000J0D01*
G01*
X18230000Y-11920000D02*
G75*
G02*
X18330000Y-11920000I50000J0D01*
G01*
X18790000Y-11666000D02*
G75*
G02*
X18690000Y-11666000I-50000J0D01*
G01*
X18690000Y-11666000D02*
G75*
G02*
X18790000Y-11666000I50000J0D01*
G01*
X18790000Y-11920000D02*
G75*
G02*
X18690000Y-11920000I-50000J0D01*
G01*
X18690000Y-11920000D02*
G75*
G02*
X18790000Y-11920000I50000J0D01*
G01*
X19569000Y-5415000D02*
G75*
G02*
X19469000Y-5415000I-50000J0D01*
G01*
X19469000Y-5415000D02*
G75*
G02*
X19569000Y-5415000I50000J0D01*
G01*
X19569000Y-5669000D02*
G75*
G02*
X19469000Y-5669000I-50000J0D01*
G01*
X19469000Y-5669000D02*
G75*
G02*
X19569000Y-5669000I50000J0D01*
G01*
X19569000Y-5923000D02*
G75*
G02*
X19469000Y-5923000I-50000J0D01*
G01*
X19469000Y-5923000D02*
G75*
G02*
X19569000Y-5923000I50000J0D01*
G01*
X19569000Y-6177000D02*
G75*
G02*
X19469000Y-6177000I-50000J0D01*
G01*
X19469000Y-6177000D02*
G75*
G02*
X19569000Y-6177000I50000J0D01*
G01*
X19569000Y-6431000D02*
G75*
G02*
X19469000Y-6431000I-50000J0D01*
G01*
X19469000Y-6431000D02*
G75*
G02*
X19569000Y-6431000I50000J0D01*
G01*
X19569000Y-6685000D02*
G75*
G02*
X19469000Y-6685000I-50000J0D01*
G01*
X19469000Y-6685000D02*
G75*
G02*
X19569000Y-6685000I50000J0D01*
G01*
X19569000Y-6939000D02*
G75*
G02*
X19469000Y-6939000I-50000J0D01*
G01*
X19469000Y-6939000D02*
G75*
G02*
X19569000Y-6939000I50000J0D01*
G01*
X19569000Y-7193000D02*
G75*
G02*
X19469000Y-7193000I-50000J0D01*
G01*
X19469000Y-7193000D02*
G75*
G02*
X19569000Y-7193000I50000J0D01*
G01*
X19569000Y-7447000D02*
G75*
G02*
X19469000Y-7447000I-50000J0D01*
G01*
X19469000Y-7447000D02*
G75*
G02*
X19569000Y-7447000I50000J0D01*
G01*
X19569000Y-7701000D02*
G75*
G02*
X19469000Y-7701000I-50000J0D01*
G01*
X19469000Y-7701000D02*
G75*
G02*
X19569000Y-7701000I50000J0D01*
G01*
X19569000Y-7955000D02*
G75*
G02*
X19469000Y-7955000I-50000J0D01*
G01*
X19469000Y-7955000D02*
G75*
G02*
X19569000Y-7955000I50000J0D01*
G01*
X19569000Y-8209000D02*
G75*
G02*
X19469000Y-8209000I-50000J0D01*
G01*
X19469000Y-8209000D02*
G75*
G02*
X19569000Y-8209000I50000J0D01*
G01*
X19569000Y-8463000D02*
G75*
G02*
X19469000Y-8463000I-50000J0D01*
G01*
X19469000Y-8463000D02*
G75*
G02*
X19569000Y-8463000I50000J0D01*
G01*
X19569000Y-8717000D02*
G75*
G02*
X19469000Y-8717000I-50000J0D01*
G01*
X19469000Y-8717000D02*
G75*
G02*
X19569000Y-8717000I50000J0D01*
G01*
X19569000Y-8971000D02*
G75*
G02*
X19469000Y-8971000I-50000J0D01*
G01*
X19469000Y-8971000D02*
G75*
G02*
X19569000Y-8971000I50000J0D01*
G01*
X19582000Y-11900000D02*
G75*
G02*
X19482000Y-11900000I-50000J0D01*
G01*
X19482000Y-11900000D02*
G75*
G02*
X19582000Y-11900000I50000J0D01*
G01*
X19836000Y-11900000D02*
G75*
G02*
X19736000Y-11900000I-50000J0D01*
G01*
X19736000Y-11900000D02*
G75*
G02*
X19836000Y-11900000I50000J0D01*
G01*
X20090000Y-11900000D02*
G75*
G02*
X19990000Y-11900000I-50000J0D01*
G01*
X19990000Y-11900000D02*
G75*
G02*
X20090000Y-11900000I50000J0D01*
G01*
X20344000Y-11900000D02*
G75*
G02*
X20244000Y-11900000I-50000J0D01*
G01*
X20244000Y-11900000D02*
G75*
G02*
X20344000Y-11900000I50000J0D01*
G01*
X21093000Y-5415000D02*
G75*
G02*
X20993000Y-5415000I-50000J0D01*
G01*
X20993000Y-5415000D02*
G75*
G02*
X21093000Y-5415000I50000J0D01*
G01*
X21093000Y-5669000D02*
G75*
G02*
X20993000Y-5669000I-50000J0D01*
G01*
X20993000Y-5669000D02*
G75*
G02*
X21093000Y-5669000I50000J0D01*
G01*
X21093000Y-5923000D02*
G75*
G02*
X20993000Y-5923000I-50000J0D01*
G01*
X20993000Y-5923000D02*
G75*
G02*
X21093000Y-5923000I50000J0D01*
G01*
X21093000Y-6177000D02*
G75*
G02*
X20993000Y-6177000I-50000J0D01*
G01*
X20993000Y-6177000D02*
G75*
G02*
X21093000Y-6177000I50000J0D01*
G01*
X21093000Y-6431000D02*
G75*
G02*
X20993000Y-6431000I-50000J0D01*
G01*
X20993000Y-6431000D02*
G75*
G02*
X21093000Y-6431000I50000J0D01*
G01*
X21093000Y-6685000D02*
G75*
G02*
X20993000Y-6685000I-50000J0D01*
G01*
X20993000Y-6685000D02*
G75*
G02*
X21093000Y-6685000I50000J0D01*
G01*
X21093000Y-6939000D02*
G75*
G02*
X20993000Y-6939000I-50000J0D01*
G01*
X20993000Y-6939000D02*
G75*
G02*
X21093000Y-6939000I50000J0D01*
G01*
X21093000Y-7193000D02*
G75*
G02*
X20993000Y-7193000I-50000J0D01*
G01*
X20993000Y-7193000D02*
G75*
G02*
X21093000Y-7193000I50000J0D01*
G01*
X21093000Y-7447000D02*
G75*
G02*
X20993000Y-7447000I-50000J0D01*
G01*
X20993000Y-7447000D02*
G75*
G02*
X21093000Y-7447000I50000J0D01*
G01*
X21093000Y-7701000D02*
G75*
G02*
X20993000Y-7701000I-50000J0D01*
G01*
X20993000Y-7701000D02*
G75*
G02*
X21093000Y-7701000I50000J0D01*
G01*
X21093000Y-7955000D02*
G75*
G02*
X20993000Y-7955000I-50000J0D01*
G01*
X20993000Y-7955000D02*
G75*
G02*
X21093000Y-7955000I50000J0D01*
G01*
X21093000Y-8209000D02*
G75*
G02*
X20993000Y-8209000I-50000J0D01*
G01*
X20993000Y-8209000D02*
G75*
G02*
X21093000Y-8209000I50000J0D01*
G01*
X21093000Y-8463000D02*
G75*
G02*
X20993000Y-8463000I-50000J0D01*
G01*
X20993000Y-8463000D02*
G75*
G02*
X21093000Y-8463000I50000J0D01*
G01*
X21093000Y-8717000D02*
G75*
G02*
X20993000Y-8717000I-50000J0D01*
G01*
X20993000Y-8717000D02*
G75*
G02*
X21093000Y-8717000I50000J0D01*
G01*
X21093000Y-8971000D02*
G75*
G02*
X20993000Y-8971000I-50000J0D01*
G01*
X20993000Y-8971000D02*
G75*
G02*
X21093000Y-8971000I50000J0D01*
G01*
X24130000Y-9386000D02*
G75*
G02*
X24030000Y-9386000I-50000J0D01*
G01*
X24030000Y-9386000D02*
G75*
G02*
X24130000Y-9386000I50000J0D01*
G01*
X24130000Y-9640000D02*
G75*
G02*
X24030000Y-9640000I-50000J0D01*
G01*
X24030000Y-9640000D02*
G75*
G02*
X24130000Y-9640000I50000J0D01*
G01*
D13*
X22373220Y-10057430D02*
X22373220Y-10167430D01*
X22318220Y-10112430D02*
X22428220Y-10112430D01*
X22552825Y-9877825D02*
X22552825Y-9987825D01*
X22497825Y-9932825D02*
X22607825Y-9932825D01*
X22732430Y-9698220D02*
X22732430Y-9808220D01*
X22677430Y-9753220D02*
X22787430Y-9753220D01*
D14*
X22665962Y-4165962D02*
X22665962Y-4074038D01*
X22574038Y-4074038D01*
X22574038Y-4165962D01*
X22665962Y-4165962D01*
X23019516Y-4519516D02*
X23019516Y-4427591D01*
X22927591Y-4427591D01*
X22927591Y-4519516D01*
X23019516Y-4519516D01*
X23125962Y-10865962D02*
X23125962Y-10774038D01*
X23034038Y-10774038D01*
X23034038Y-10865962D01*
X23125962Y-10865962D01*
X23479516Y-10512409D02*
X23479516Y-10420484D01*
X23387591Y-10420484D01*
X23387591Y-10512409D01*
X23479516Y-10512409D01*
X23492409Y-4992409D02*
X23492409Y-4900484D01*
X23400484Y-4900484D01*
X23400484Y-4992409D01*
X23492409Y-4992409D01*
X23845962Y-5345962D02*
X23845962Y-5254038D01*
X23754038Y-5254038D01*
X23754038Y-5345962D01*
X23845962Y-5345962D01*
D11*
X16038277Y-12953984D02*
X16038277Y-12753984D01*
X16038277Y-12753984D02*
X16085896Y-12753984D01*
X16085896Y-12753984D02*
X16114467Y-12763508D01*
X16114467Y-12763508D02*
X16133515Y-12782555D01*
X16133515Y-12782555D02*
X16143039Y-12801603D01*
X16143039Y-12801603D02*
X16152562Y-12839698D01*
X16152562Y-12839698D02*
X16152562Y-12868269D01*
X16152562Y-12868269D02*
X16143039Y-12906365D01*
X16143039Y-12906365D02*
X16133515Y-12925412D01*
X16133515Y-12925412D02*
X16114467Y-12944460D01*
X16114467Y-12944460D02*
X16085896Y-12953984D01*
X16085896Y-12953984D02*
X16038277Y-12953984D01*
X16238277Y-12953984D02*
X16238277Y-12820650D01*
X16238277Y-12858746D02*
X16247801Y-12839698D01*
X16247801Y-12839698D02*
X16257324Y-12830174D01*
X16257324Y-12830174D02*
X16276372Y-12820650D01*
X16276372Y-12820650D02*
X16295420Y-12820650D01*
X16362086Y-12953984D02*
X16362086Y-12820650D01*
X16362086Y-12753984D02*
X16352562Y-12763508D01*
X16352562Y-12763508D02*
X16362086Y-12773031D01*
X16362086Y-12773031D02*
X16371610Y-12763508D01*
X16371610Y-12763508D02*
X16362086Y-12753984D01*
X16362086Y-12753984D02*
X16362086Y-12773031D01*
X16485896Y-12953984D02*
X16466848Y-12944460D01*
X16466848Y-12944460D02*
X16457324Y-12925412D01*
X16457324Y-12925412D02*
X16457324Y-12753984D01*
X16590658Y-12953984D02*
X16571610Y-12944460D01*
X16571610Y-12944460D02*
X16562086Y-12925412D01*
X16562086Y-12925412D02*
X16562086Y-12753984D01*
X16819229Y-12953984D02*
X16819229Y-12753984D01*
X16819229Y-12753984D02*
X16885896Y-12896841D01*
X16885896Y-12896841D02*
X16952563Y-12753984D01*
X16952563Y-12753984D02*
X16952563Y-12953984D01*
X17133515Y-12953984D02*
X17133515Y-12849222D01*
X17133515Y-12849222D02*
X17123991Y-12830174D01*
X17123991Y-12830174D02*
X17104944Y-12820650D01*
X17104944Y-12820650D02*
X17066848Y-12820650D01*
X17066848Y-12820650D02*
X17047801Y-12830174D01*
X17133515Y-12944460D02*
X17114467Y-12953984D01*
X17114467Y-12953984D02*
X17066848Y-12953984D01*
X17066848Y-12953984D02*
X17047801Y-12944460D01*
X17047801Y-12944460D02*
X17038277Y-12925412D01*
X17038277Y-12925412D02*
X17038277Y-12906365D01*
X17038277Y-12906365D02*
X17047801Y-12887317D01*
X17047801Y-12887317D02*
X17066848Y-12877793D01*
X17066848Y-12877793D02*
X17114467Y-12877793D01*
X17114467Y-12877793D02*
X17133515Y-12868269D01*
X17228753Y-12820650D02*
X17228753Y-13020650D01*
X17228753Y-12830174D02*
X17247801Y-12820650D01*
X17247801Y-12820650D02*
X17285896Y-12820650D01*
X17285896Y-12820650D02*
X17304944Y-12830174D01*
X17304944Y-12830174D02*
X17314467Y-12839698D01*
X17314467Y-12839698D02*
X17323991Y-12858746D01*
X17323991Y-12858746D02*
X17323991Y-12915888D01*
X17323991Y-12915888D02*
X17314467Y-12934936D01*
X17314467Y-12934936D02*
X17304944Y-12944460D01*
X17304944Y-12944460D02*
X17285896Y-12953984D01*
X17285896Y-12953984D02*
X17247801Y-12953984D01*
X17247801Y-12953984D02*
X17228753Y-12944460D01*
X17409705Y-12934936D02*
X17419229Y-12944460D01*
X17419229Y-12944460D02*
X17409705Y-12953984D01*
X17409705Y-12953984D02*
X17400182Y-12944460D01*
X17400182Y-12944460D02*
X17409705Y-12934936D01*
X17409705Y-12934936D02*
X17409705Y-12953984D01*
X17409705Y-12830174D02*
X17419229Y-12839698D01*
X17419229Y-12839698D02*
X17409705Y-12849222D01*
X17409705Y-12849222D02*
X17400182Y-12839698D01*
X17400182Y-12839698D02*
X17409705Y-12830174D01*
X17409705Y-12830174D02*
X17409705Y-12849222D01*
D12*
X15697500Y-13242500D02*
X15777500Y-13322500D01*
X15777500Y-13242500D02*
X15697500Y-13322500D01*
D11*
X16076372Y-13173984D02*
X16095420Y-13173984D01*
X16095420Y-13173984D02*
X16114467Y-13183508D01*
X16114467Y-13183508D02*
X16123991Y-13193031D01*
X16123991Y-13193031D02*
X16133515Y-13212079D01*
X16133515Y-13212079D02*
X16143039Y-13250174D01*
X16143039Y-13250174D02*
X16143039Y-13297793D01*
X16143039Y-13297793D02*
X16133515Y-13335888D01*
X16133515Y-13335888D02*
X16123991Y-13354936D01*
X16123991Y-13354936D02*
X16114467Y-13364460D01*
X16114467Y-13364460D02*
X16095420Y-13373984D01*
X16095420Y-13373984D02*
X16076372Y-13373984D01*
X16076372Y-13373984D02*
X16057324Y-13364460D01*
X16057324Y-13364460D02*
X16047801Y-13354936D01*
X16047801Y-13354936D02*
X16038277Y-13335888D01*
X16038277Y-13335888D02*
X16028753Y-13297793D01*
X16028753Y-13297793D02*
X16028753Y-13250174D01*
X16028753Y-13250174D02*
X16038277Y-13212079D01*
X16038277Y-13212079D02*
X16047801Y-13193031D01*
X16047801Y-13193031D02*
X16057324Y-13183508D01*
X16057324Y-13183508D02*
X16076372Y-13173984D01*
X16228753Y-13354936D02*
X16238277Y-13364460D01*
X16238277Y-13364460D02*
X16228753Y-13373984D01*
X16228753Y-13373984D02*
X16219229Y-13364460D01*
X16219229Y-13364460D02*
X16228753Y-13354936D01*
X16228753Y-13354936D02*
X16228753Y-13373984D01*
X16352562Y-13259698D02*
X16333515Y-13250174D01*
X16333515Y-13250174D02*
X16323991Y-13240650D01*
X16323991Y-13240650D02*
X16314467Y-13221603D01*
X16314467Y-13221603D02*
X16314467Y-13212079D01*
X16314467Y-13212079D02*
X16323991Y-13193031D01*
X16323991Y-13193031D02*
X16333515Y-13183508D01*
X16333515Y-13183508D02*
X16352562Y-13173984D01*
X16352562Y-13173984D02*
X16390658Y-13173984D01*
X16390658Y-13173984D02*
X16409705Y-13183508D01*
X16409705Y-13183508D02*
X16419229Y-13193031D01*
X16419229Y-13193031D02*
X16428753Y-13212079D01*
X16428753Y-13212079D02*
X16428753Y-13221603D01*
X16428753Y-13221603D02*
X16419229Y-13240650D01*
X16419229Y-13240650D02*
X16409705Y-13250174D01*
X16409705Y-13250174D02*
X16390658Y-13259698D01*
X16390658Y-13259698D02*
X16352562Y-13259698D01*
X16352562Y-13259698D02*
X16333515Y-13269222D01*
X16333515Y-13269222D02*
X16323991Y-13278746D01*
X16323991Y-13278746D02*
X16314467Y-13297793D01*
X16314467Y-13297793D02*
X16314467Y-13335888D01*
X16314467Y-13335888D02*
X16323991Y-13354936D01*
X16323991Y-13354936D02*
X16333515Y-13364460D01*
X16333515Y-13364460D02*
X16352562Y-13373984D01*
X16352562Y-13373984D02*
X16390658Y-13373984D01*
X16390658Y-13373984D02*
X16409705Y-13364460D01*
X16409705Y-13364460D02*
X16419229Y-13354936D01*
X16419229Y-13354936D02*
X16428753Y-13335888D01*
X16428753Y-13335888D02*
X16428753Y-13297793D01*
X16428753Y-13297793D02*
X16419229Y-13278746D01*
X16419229Y-13278746D02*
X16409705Y-13269222D01*
X16409705Y-13269222D02*
X16390658Y-13259698D01*
X16552562Y-13173984D02*
X16571610Y-13173984D01*
X16571610Y-13173984D02*
X16590658Y-13183508D01*
X16590658Y-13183508D02*
X16600182Y-13193031D01*
X16600182Y-13193031D02*
X16609705Y-13212079D01*
X16609705Y-13212079D02*
X16619229Y-13250174D01*
X16619229Y-13250174D02*
X16619229Y-13297793D01*
X16619229Y-13297793D02*
X16609705Y-13335888D01*
X16609705Y-13335888D02*
X16600182Y-13354936D01*
X16600182Y-13354936D02*
X16590658Y-13364460D01*
X16590658Y-13364460D02*
X16571610Y-13373984D01*
X16571610Y-13373984D02*
X16552562Y-13373984D01*
X16552562Y-13373984D02*
X16533515Y-13364460D01*
X16533515Y-13364460D02*
X16523991Y-13354936D01*
X16523991Y-13354936D02*
X16514467Y-13335888D01*
X16514467Y-13335888D02*
X16504943Y-13297793D01*
X16504943Y-13297793D02*
X16504943Y-13250174D01*
X16504943Y-13250174D02*
X16514467Y-13212079D01*
X16514467Y-13212079D02*
X16523991Y-13193031D01*
X16523991Y-13193031D02*
X16533515Y-13183508D01*
X16533515Y-13183508D02*
X16552562Y-13173984D01*
X16743039Y-13173984D02*
X16762086Y-13173984D01*
X16762086Y-13173984D02*
X16781134Y-13183508D01*
X16781134Y-13183508D02*
X16790658Y-13193031D01*
X16790658Y-13193031D02*
X16800182Y-13212079D01*
X16800182Y-13212079D02*
X16809705Y-13250174D01*
X16809705Y-13250174D02*
X16809705Y-13297793D01*
X16809705Y-13297793D02*
X16800182Y-13335888D01*
X16800182Y-13335888D02*
X16790658Y-13354936D01*
X16790658Y-13354936D02*
X16781134Y-13364460D01*
X16781134Y-13364460D02*
X16762086Y-13373984D01*
X16762086Y-13373984D02*
X16743039Y-13373984D01*
X16743039Y-13373984D02*
X16723991Y-13364460D01*
X16723991Y-13364460D02*
X16714467Y-13354936D01*
X16714467Y-13354936D02*
X16704943Y-13335888D01*
X16704943Y-13335888D02*
X16695420Y-13297793D01*
X16695420Y-13297793D02*
X16695420Y-13250174D01*
X16695420Y-13250174D02*
X16704943Y-13212079D01*
X16704943Y-13212079D02*
X16714467Y-13193031D01*
X16714467Y-13193031D02*
X16723991Y-13183508D01*
X16723991Y-13183508D02*
X16743039Y-13173984D01*
X16895420Y-13373984D02*
X16895420Y-13240650D01*
X16895420Y-13259698D02*
X16904944Y-13250174D01*
X16904944Y-13250174D02*
X16923991Y-13240650D01*
X16923991Y-13240650D02*
X16952563Y-13240650D01*
X16952563Y-13240650D02*
X16971610Y-13250174D01*
X16971610Y-13250174D02*
X16981134Y-13269222D01*
X16981134Y-13269222D02*
X16981134Y-13373984D01*
X16981134Y-13269222D02*
X16990658Y-13250174D01*
X16990658Y-13250174D02*
X17009705Y-13240650D01*
X17009705Y-13240650D02*
X17038277Y-13240650D01*
X17038277Y-13240650D02*
X17057325Y-13250174D01*
X17057325Y-13250174D02*
X17066848Y-13269222D01*
X17066848Y-13269222D02*
X17066848Y-13373984D01*
X17162086Y-13373984D02*
X17162086Y-13240650D01*
X17162086Y-13259698D02*
X17171610Y-13250174D01*
X17171610Y-13250174D02*
X17190658Y-13240650D01*
X17190658Y-13240650D02*
X17219229Y-13240650D01*
X17219229Y-13240650D02*
X17238277Y-13250174D01*
X17238277Y-13250174D02*
X17247801Y-13269222D01*
X17247801Y-13269222D02*
X17247801Y-13373984D01*
X17247801Y-13269222D02*
X17257325Y-13250174D01*
X17257325Y-13250174D02*
X17276372Y-13240650D01*
X17276372Y-13240650D02*
X17304944Y-13240650D01*
X17304944Y-13240650D02*
X17323991Y-13250174D01*
X17323991Y-13250174D02*
X17333515Y-13269222D01*
X17333515Y-13269222D02*
X17333515Y-13373984D01*
X17723991Y-13164460D02*
X17552563Y-13421603D01*
X17981134Y-13173984D02*
X18000182Y-13173984D01*
X18000182Y-13173984D02*
X18019229Y-13183508D01*
X18019229Y-13183508D02*
X18028753Y-13193031D01*
X18028753Y-13193031D02*
X18038277Y-13212079D01*
X18038277Y-13212079D02*
X18047801Y-13250174D01*
X18047801Y-13250174D02*
X18047801Y-13297793D01*
X18047801Y-13297793D02*
X18038277Y-13335888D01*
X18038277Y-13335888D02*
X18028753Y-13354936D01*
X18028753Y-13354936D02*
X18019229Y-13364460D01*
X18019229Y-13364460D02*
X18000182Y-13373984D01*
X18000182Y-13373984D02*
X17981134Y-13373984D01*
X17981134Y-13373984D02*
X17962087Y-13364460D01*
X17962087Y-13364460D02*
X17952563Y-13354936D01*
X17952563Y-13354936D02*
X17943039Y-13335888D01*
X17943039Y-13335888D02*
X17933515Y-13297793D01*
X17933515Y-13297793D02*
X17933515Y-13250174D01*
X17933515Y-13250174D02*
X17943039Y-13212079D01*
X17943039Y-13212079D02*
X17952563Y-13193031D01*
X17952563Y-13193031D02*
X17962087Y-13183508D01*
X17962087Y-13183508D02*
X17981134Y-13173984D01*
X18133515Y-13354936D02*
X18143039Y-13364460D01*
X18143039Y-13364460D02*
X18133515Y-13373984D01*
X18133515Y-13373984D02*
X18123991Y-13364460D01*
X18123991Y-13364460D02*
X18133515Y-13354936D01*
X18133515Y-13354936D02*
X18133515Y-13373984D01*
X18266848Y-13173984D02*
X18285896Y-13173984D01*
X18285896Y-13173984D02*
X18304944Y-13183508D01*
X18304944Y-13183508D02*
X18314468Y-13193031D01*
X18314468Y-13193031D02*
X18323991Y-13212079D01*
X18323991Y-13212079D02*
X18333515Y-13250174D01*
X18333515Y-13250174D02*
X18333515Y-13297793D01*
X18333515Y-13297793D02*
X18323991Y-13335888D01*
X18323991Y-13335888D02*
X18314468Y-13354936D01*
X18314468Y-13354936D02*
X18304944Y-13364460D01*
X18304944Y-13364460D02*
X18285896Y-13373984D01*
X18285896Y-13373984D02*
X18266848Y-13373984D01*
X18266848Y-13373984D02*
X18247801Y-13364460D01*
X18247801Y-13364460D02*
X18238277Y-13354936D01*
X18238277Y-13354936D02*
X18228753Y-13335888D01*
X18228753Y-13335888D02*
X18219229Y-13297793D01*
X18219229Y-13297793D02*
X18219229Y-13250174D01*
X18219229Y-13250174D02*
X18228753Y-13212079D01*
X18228753Y-13212079D02*
X18238277Y-13193031D01*
X18238277Y-13193031D02*
X18247801Y-13183508D01*
X18247801Y-13183508D02*
X18266848Y-13173984D01*
X18400182Y-13173984D02*
X18523991Y-13173984D01*
X18523991Y-13173984D02*
X18457325Y-13250174D01*
X18457325Y-13250174D02*
X18485896Y-13250174D01*
X18485896Y-13250174D02*
X18504944Y-13259698D01*
X18504944Y-13259698D02*
X18514468Y-13269222D01*
X18514468Y-13269222D02*
X18523991Y-13288269D01*
X18523991Y-13288269D02*
X18523991Y-13335888D01*
X18523991Y-13335888D02*
X18514468Y-13354936D01*
X18514468Y-13354936D02*
X18504944Y-13364460D01*
X18504944Y-13364460D02*
X18485896Y-13373984D01*
X18485896Y-13373984D02*
X18428753Y-13373984D01*
X18428753Y-13373984D02*
X18409706Y-13364460D01*
X18409706Y-13364460D02*
X18400182Y-13354936D01*
X18714468Y-13373984D02*
X18600182Y-13373984D01*
X18657325Y-13373984D02*
X18657325Y-13173984D01*
X18657325Y-13173984D02*
X18638277Y-13202555D01*
X18638277Y-13202555D02*
X18619229Y-13221603D01*
X18619229Y-13221603D02*
X18600182Y-13231127D01*
X18895420Y-13173984D02*
X18800182Y-13173984D01*
X18800182Y-13173984D02*
X18790658Y-13269222D01*
X18790658Y-13269222D02*
X18800182Y-13259698D01*
X18800182Y-13259698D02*
X18819229Y-13250174D01*
X18819229Y-13250174D02*
X18866849Y-13250174D01*
X18866849Y-13250174D02*
X18885896Y-13259698D01*
X18885896Y-13259698D02*
X18895420Y-13269222D01*
X18895420Y-13269222D02*
X18904944Y-13288269D01*
X18904944Y-13288269D02*
X18904944Y-13335888D01*
X18904944Y-13335888D02*
X18895420Y-13354936D01*
X18895420Y-13354936D02*
X18885896Y-13364460D01*
X18885896Y-13364460D02*
X18866849Y-13373984D01*
X18866849Y-13373984D02*
X18819229Y-13373984D01*
X18819229Y-13373984D02*
X18800182Y-13364460D01*
X18800182Y-13364460D02*
X18790658Y-13354936D01*
X18981134Y-13173984D02*
X18981134Y-13212079D01*
X19057325Y-13173984D02*
X19057325Y-13212079D01*
X19352563Y-13450174D02*
X19343039Y-13440650D01*
X19343039Y-13440650D02*
X19323991Y-13412079D01*
X19323991Y-13412079D02*
X19314468Y-13393031D01*
X19314468Y-13393031D02*
X19304944Y-13364460D01*
X19304944Y-13364460D02*
X19295420Y-13316841D01*
X19295420Y-13316841D02*
X19295420Y-13278746D01*
X19295420Y-13278746D02*
X19304944Y-13231127D01*
X19304944Y-13231127D02*
X19314468Y-13202555D01*
X19314468Y-13202555D02*
X19323991Y-13183508D01*
X19323991Y-13183508D02*
X19343039Y-13154936D01*
X19343039Y-13154936D02*
X19352563Y-13145412D01*
X19419230Y-13193031D02*
X19428753Y-13183508D01*
X19428753Y-13183508D02*
X19447801Y-13173984D01*
X19447801Y-13173984D02*
X19495420Y-13173984D01*
X19495420Y-13173984D02*
X19514468Y-13183508D01*
X19514468Y-13183508D02*
X19523991Y-13193031D01*
X19523991Y-13193031D02*
X19533515Y-13212079D01*
X19533515Y-13212079D02*
X19533515Y-13231127D01*
X19533515Y-13231127D02*
X19523991Y-13259698D01*
X19523991Y-13259698D02*
X19409706Y-13373984D01*
X19409706Y-13373984D02*
X19533515Y-13373984D01*
X19704944Y-13240650D02*
X19704944Y-13373984D01*
X19657325Y-13164460D02*
X19609706Y-13307317D01*
X19609706Y-13307317D02*
X19733515Y-13307317D01*
X19962087Y-13373984D02*
X19962087Y-13173984D01*
X20047801Y-13373984D02*
X20047801Y-13269222D01*
X20047801Y-13269222D02*
X20038277Y-13250174D01*
X20038277Y-13250174D02*
X20019230Y-13240650D01*
X20019230Y-13240650D02*
X19990658Y-13240650D01*
X19990658Y-13240650D02*
X19971611Y-13250174D01*
X19971611Y-13250174D02*
X19962087Y-13259698D01*
X20171611Y-13373984D02*
X20152563Y-13364460D01*
X20152563Y-13364460D02*
X20143039Y-13354936D01*
X20143039Y-13354936D02*
X20133515Y-13335888D01*
X20133515Y-13335888D02*
X20133515Y-13278746D01*
X20133515Y-13278746D02*
X20143039Y-13259698D01*
X20143039Y-13259698D02*
X20152563Y-13250174D01*
X20152563Y-13250174D02*
X20171611Y-13240650D01*
X20171611Y-13240650D02*
X20200182Y-13240650D01*
X20200182Y-13240650D02*
X20219230Y-13250174D01*
X20219230Y-13250174D02*
X20228753Y-13259698D01*
X20228753Y-13259698D02*
X20238277Y-13278746D01*
X20238277Y-13278746D02*
X20238277Y-13335888D01*
X20238277Y-13335888D02*
X20228753Y-13354936D01*
X20228753Y-13354936D02*
X20219230Y-13364460D01*
X20219230Y-13364460D02*
X20200182Y-13373984D01*
X20200182Y-13373984D02*
X20171611Y-13373984D01*
X20352563Y-13373984D02*
X20333515Y-13364460D01*
X20333515Y-13364460D02*
X20323992Y-13345412D01*
X20323992Y-13345412D02*
X20323992Y-13173984D01*
X20504944Y-13364460D02*
X20485896Y-13373984D01*
X20485896Y-13373984D02*
X20447801Y-13373984D01*
X20447801Y-13373984D02*
X20428753Y-13364460D01*
X20428753Y-13364460D02*
X20419230Y-13345412D01*
X20419230Y-13345412D02*
X20419230Y-13269222D01*
X20419230Y-13269222D02*
X20428753Y-13250174D01*
X20428753Y-13250174D02*
X20447801Y-13240650D01*
X20447801Y-13240650D02*
X20485896Y-13240650D01*
X20485896Y-13240650D02*
X20504944Y-13250174D01*
X20504944Y-13250174D02*
X20514468Y-13269222D01*
X20514468Y-13269222D02*
X20514468Y-13288269D01*
X20514468Y-13288269D02*
X20419230Y-13307317D01*
X20590658Y-13364460D02*
X20609706Y-13373984D01*
X20609706Y-13373984D02*
X20647801Y-13373984D01*
X20647801Y-13373984D02*
X20666849Y-13364460D01*
X20666849Y-13364460D02*
X20676373Y-13345412D01*
X20676373Y-13345412D02*
X20676373Y-13335888D01*
X20676373Y-13335888D02*
X20666849Y-13316841D01*
X20666849Y-13316841D02*
X20647801Y-13307317D01*
X20647801Y-13307317D02*
X20619230Y-13307317D01*
X20619230Y-13307317D02*
X20600182Y-13297793D01*
X20600182Y-13297793D02*
X20590658Y-13278746D01*
X20590658Y-13278746D02*
X20590658Y-13269222D01*
X20590658Y-13269222D02*
X20600182Y-13250174D01*
X20600182Y-13250174D02*
X20619230Y-13240650D01*
X20619230Y-13240650D02*
X20647801Y-13240650D01*
X20647801Y-13240650D02*
X20666849Y-13250174D01*
X20743039Y-13450174D02*
X20752563Y-13440650D01*
X20752563Y-13440650D02*
X20771611Y-13412079D01*
X20771611Y-13412079D02*
X20781134Y-13393031D01*
X20781134Y-13393031D02*
X20790658Y-13364460D01*
X20790658Y-13364460D02*
X20800182Y-13316841D01*
X20800182Y-13316841D02*
X20800182Y-13278746D01*
X20800182Y-13278746D02*
X20790658Y-13231127D01*
X20790658Y-13231127D02*
X20781134Y-13202555D01*
X20781134Y-13202555D02*
X20771611Y-13183508D01*
X20771611Y-13183508D02*
X20752563Y-13154936D01*
X20752563Y-13154936D02*
X20743039Y-13145412D01*
D12*
X15777500Y-13546500D02*
G75*
G02*
X15677500Y-13546500I-50000J0D01*
G01*
X15677500Y-13546500D02*
G75*
G02*
X15777500Y-13546500I50000J0D01*
G01*
D11*
X16143039Y-13637984D02*
X16028753Y-13637984D01*
X16085896Y-13637984D02*
X16085896Y-13437984D01*
X16085896Y-13437984D02*
X16066848Y-13466555D01*
X16066848Y-13466555D02*
X16047801Y-13485603D01*
X16047801Y-13485603D02*
X16028753Y-13495127D01*
X16228753Y-13618936D02*
X16238277Y-13628460D01*
X16238277Y-13628460D02*
X16228753Y-13637984D01*
X16228753Y-13637984D02*
X16219229Y-13628460D01*
X16219229Y-13628460D02*
X16228753Y-13618936D01*
X16228753Y-13618936D02*
X16228753Y-13637984D01*
X16362086Y-13437984D02*
X16381134Y-13437984D01*
X16381134Y-13437984D02*
X16400182Y-13447508D01*
X16400182Y-13447508D02*
X16409705Y-13457031D01*
X16409705Y-13457031D02*
X16419229Y-13476079D01*
X16419229Y-13476079D02*
X16428753Y-13514174D01*
X16428753Y-13514174D02*
X16428753Y-13561793D01*
X16428753Y-13561793D02*
X16419229Y-13599888D01*
X16419229Y-13599888D02*
X16409705Y-13618936D01*
X16409705Y-13618936D02*
X16400182Y-13628460D01*
X16400182Y-13628460D02*
X16381134Y-13637984D01*
X16381134Y-13637984D02*
X16362086Y-13637984D01*
X16362086Y-13637984D02*
X16343039Y-13628460D01*
X16343039Y-13628460D02*
X16333515Y-13618936D01*
X16333515Y-13618936D02*
X16323991Y-13599888D01*
X16323991Y-13599888D02*
X16314467Y-13561793D01*
X16314467Y-13561793D02*
X16314467Y-13514174D01*
X16314467Y-13514174D02*
X16323991Y-13476079D01*
X16323991Y-13476079D02*
X16333515Y-13457031D01*
X16333515Y-13457031D02*
X16343039Y-13447508D01*
X16343039Y-13447508D02*
X16362086Y-13437984D01*
X16552562Y-13437984D02*
X16571610Y-13437984D01*
X16571610Y-13437984D02*
X16590658Y-13447508D01*
X16590658Y-13447508D02*
X16600182Y-13457031D01*
X16600182Y-13457031D02*
X16609705Y-13476079D01*
X16609705Y-13476079D02*
X16619229Y-13514174D01*
X16619229Y-13514174D02*
X16619229Y-13561793D01*
X16619229Y-13561793D02*
X16609705Y-13599888D01*
X16609705Y-13599888D02*
X16600182Y-13618936D01*
X16600182Y-13618936D02*
X16590658Y-13628460D01*
X16590658Y-13628460D02*
X16571610Y-13637984D01*
X16571610Y-13637984D02*
X16552562Y-13637984D01*
X16552562Y-13637984D02*
X16533515Y-13628460D01*
X16533515Y-13628460D02*
X16523991Y-13618936D01*
X16523991Y-13618936D02*
X16514467Y-13599888D01*
X16514467Y-13599888D02*
X16504943Y-13561793D01*
X16504943Y-13561793D02*
X16504943Y-13514174D01*
X16504943Y-13514174D02*
X16514467Y-13476079D01*
X16514467Y-13476079D02*
X16523991Y-13457031D01*
X16523991Y-13457031D02*
X16533515Y-13447508D01*
X16533515Y-13447508D02*
X16552562Y-13437984D01*
X16743039Y-13437984D02*
X16762086Y-13437984D01*
X16762086Y-13437984D02*
X16781134Y-13447508D01*
X16781134Y-13447508D02*
X16790658Y-13457031D01*
X16790658Y-13457031D02*
X16800182Y-13476079D01*
X16800182Y-13476079D02*
X16809705Y-13514174D01*
X16809705Y-13514174D02*
X16809705Y-13561793D01*
X16809705Y-13561793D02*
X16800182Y-13599888D01*
X16800182Y-13599888D02*
X16790658Y-13618936D01*
X16790658Y-13618936D02*
X16781134Y-13628460D01*
X16781134Y-13628460D02*
X16762086Y-13637984D01*
X16762086Y-13637984D02*
X16743039Y-13637984D01*
X16743039Y-13637984D02*
X16723991Y-13628460D01*
X16723991Y-13628460D02*
X16714467Y-13618936D01*
X16714467Y-13618936D02*
X16704943Y-13599888D01*
X16704943Y-13599888D02*
X16695420Y-13561793D01*
X16695420Y-13561793D02*
X16695420Y-13514174D01*
X16695420Y-13514174D02*
X16704943Y-13476079D01*
X16704943Y-13476079D02*
X16714467Y-13457031D01*
X16714467Y-13457031D02*
X16723991Y-13447508D01*
X16723991Y-13447508D02*
X16743039Y-13437984D01*
X16895420Y-13637984D02*
X16895420Y-13504650D01*
X16895420Y-13523698D02*
X16904944Y-13514174D01*
X16904944Y-13514174D02*
X16923991Y-13504650D01*
X16923991Y-13504650D02*
X16952563Y-13504650D01*
X16952563Y-13504650D02*
X16971610Y-13514174D01*
X16971610Y-13514174D02*
X16981134Y-13533222D01*
X16981134Y-13533222D02*
X16981134Y-13637984D01*
X16981134Y-13533222D02*
X16990658Y-13514174D01*
X16990658Y-13514174D02*
X17009705Y-13504650D01*
X17009705Y-13504650D02*
X17038277Y-13504650D01*
X17038277Y-13504650D02*
X17057325Y-13514174D01*
X17057325Y-13514174D02*
X17066848Y-13533222D01*
X17066848Y-13533222D02*
X17066848Y-13637984D01*
X17162086Y-13637984D02*
X17162086Y-13504650D01*
X17162086Y-13523698D02*
X17171610Y-13514174D01*
X17171610Y-13514174D02*
X17190658Y-13504650D01*
X17190658Y-13504650D02*
X17219229Y-13504650D01*
X17219229Y-13504650D02*
X17238277Y-13514174D01*
X17238277Y-13514174D02*
X17247801Y-13533222D01*
X17247801Y-13533222D02*
X17247801Y-13637984D01*
X17247801Y-13533222D02*
X17257325Y-13514174D01*
X17257325Y-13514174D02*
X17276372Y-13504650D01*
X17276372Y-13504650D02*
X17304944Y-13504650D01*
X17304944Y-13504650D02*
X17323991Y-13514174D01*
X17323991Y-13514174D02*
X17333515Y-13533222D01*
X17333515Y-13533222D02*
X17333515Y-13637984D01*
X17723991Y-13428460D02*
X17552563Y-13685603D01*
X17981134Y-13437984D02*
X18000182Y-13437984D01*
X18000182Y-13437984D02*
X18019229Y-13447508D01*
X18019229Y-13447508D02*
X18028753Y-13457031D01*
X18028753Y-13457031D02*
X18038277Y-13476079D01*
X18038277Y-13476079D02*
X18047801Y-13514174D01*
X18047801Y-13514174D02*
X18047801Y-13561793D01*
X18047801Y-13561793D02*
X18038277Y-13599888D01*
X18038277Y-13599888D02*
X18028753Y-13618936D01*
X18028753Y-13618936D02*
X18019229Y-13628460D01*
X18019229Y-13628460D02*
X18000182Y-13637984D01*
X18000182Y-13637984D02*
X17981134Y-13637984D01*
X17981134Y-13637984D02*
X17962087Y-13628460D01*
X17962087Y-13628460D02*
X17952563Y-13618936D01*
X17952563Y-13618936D02*
X17943039Y-13599888D01*
X17943039Y-13599888D02*
X17933515Y-13561793D01*
X17933515Y-13561793D02*
X17933515Y-13514174D01*
X17933515Y-13514174D02*
X17943039Y-13476079D01*
X17943039Y-13476079D02*
X17952563Y-13457031D01*
X17952563Y-13457031D02*
X17962087Y-13447508D01*
X17962087Y-13447508D02*
X17981134Y-13437984D01*
X18133515Y-13618936D02*
X18143039Y-13628460D01*
X18143039Y-13628460D02*
X18133515Y-13637984D01*
X18133515Y-13637984D02*
X18123991Y-13628460D01*
X18123991Y-13628460D02*
X18133515Y-13618936D01*
X18133515Y-13618936D02*
X18133515Y-13637984D01*
X18266848Y-13437984D02*
X18285896Y-13437984D01*
X18285896Y-13437984D02*
X18304944Y-13447508D01*
X18304944Y-13447508D02*
X18314468Y-13457031D01*
X18314468Y-13457031D02*
X18323991Y-13476079D01*
X18323991Y-13476079D02*
X18333515Y-13514174D01*
X18333515Y-13514174D02*
X18333515Y-13561793D01*
X18333515Y-13561793D02*
X18323991Y-13599888D01*
X18323991Y-13599888D02*
X18314468Y-13618936D01*
X18314468Y-13618936D02*
X18304944Y-13628460D01*
X18304944Y-13628460D02*
X18285896Y-13637984D01*
X18285896Y-13637984D02*
X18266848Y-13637984D01*
X18266848Y-13637984D02*
X18247801Y-13628460D01*
X18247801Y-13628460D02*
X18238277Y-13618936D01*
X18238277Y-13618936D02*
X18228753Y-13599888D01*
X18228753Y-13599888D02*
X18219229Y-13561793D01*
X18219229Y-13561793D02*
X18219229Y-13514174D01*
X18219229Y-13514174D02*
X18228753Y-13476079D01*
X18228753Y-13476079D02*
X18238277Y-13457031D01*
X18238277Y-13457031D02*
X18247801Y-13447508D01*
X18247801Y-13447508D02*
X18266848Y-13437984D01*
X18400182Y-13437984D02*
X18523991Y-13437984D01*
X18523991Y-13437984D02*
X18457325Y-13514174D01*
X18457325Y-13514174D02*
X18485896Y-13514174D01*
X18485896Y-13514174D02*
X18504944Y-13523698D01*
X18504944Y-13523698D02*
X18514468Y-13533222D01*
X18514468Y-13533222D02*
X18523991Y-13552269D01*
X18523991Y-13552269D02*
X18523991Y-13599888D01*
X18523991Y-13599888D02*
X18514468Y-13618936D01*
X18514468Y-13618936D02*
X18504944Y-13628460D01*
X18504944Y-13628460D02*
X18485896Y-13637984D01*
X18485896Y-13637984D02*
X18428753Y-13637984D01*
X18428753Y-13637984D02*
X18409706Y-13628460D01*
X18409706Y-13628460D02*
X18400182Y-13618936D01*
X18619229Y-13637984D02*
X18657325Y-13637984D01*
X18657325Y-13637984D02*
X18676372Y-13628460D01*
X18676372Y-13628460D02*
X18685896Y-13618936D01*
X18685896Y-13618936D02*
X18704944Y-13590365D01*
X18704944Y-13590365D02*
X18714468Y-13552269D01*
X18714468Y-13552269D02*
X18714468Y-13476079D01*
X18714468Y-13476079D02*
X18704944Y-13457031D01*
X18704944Y-13457031D02*
X18695420Y-13447508D01*
X18695420Y-13447508D02*
X18676372Y-13437984D01*
X18676372Y-13437984D02*
X18638277Y-13437984D01*
X18638277Y-13437984D02*
X18619229Y-13447508D01*
X18619229Y-13447508D02*
X18609706Y-13457031D01*
X18609706Y-13457031D02*
X18600182Y-13476079D01*
X18600182Y-13476079D02*
X18600182Y-13523698D01*
X18600182Y-13523698D02*
X18609706Y-13542746D01*
X18609706Y-13542746D02*
X18619229Y-13552269D01*
X18619229Y-13552269D02*
X18638277Y-13561793D01*
X18638277Y-13561793D02*
X18676372Y-13561793D01*
X18676372Y-13561793D02*
X18695420Y-13552269D01*
X18695420Y-13552269D02*
X18704944Y-13542746D01*
X18704944Y-13542746D02*
X18714468Y-13523698D01*
X18885896Y-13504650D02*
X18885896Y-13637984D01*
X18838277Y-13428460D02*
X18790658Y-13571317D01*
X18790658Y-13571317D02*
X18914468Y-13571317D01*
X18981134Y-13437984D02*
X18981134Y-13476079D01*
X19057325Y-13437984D02*
X19057325Y-13476079D01*
X19352563Y-13714174D02*
X19343039Y-13704650D01*
X19343039Y-13704650D02*
X19323991Y-13676079D01*
X19323991Y-13676079D02*
X19314468Y-13657031D01*
X19314468Y-13657031D02*
X19304944Y-13628460D01*
X19304944Y-13628460D02*
X19295420Y-13580841D01*
X19295420Y-13580841D02*
X19295420Y-13542746D01*
X19295420Y-13542746D02*
X19304944Y-13495127D01*
X19304944Y-13495127D02*
X19314468Y-13466555D01*
X19314468Y-13466555D02*
X19323991Y-13447508D01*
X19323991Y-13447508D02*
X19343039Y-13418936D01*
X19343039Y-13418936D02*
X19352563Y-13409412D01*
X19514468Y-13504650D02*
X19514468Y-13637984D01*
X19466849Y-13428460D02*
X19419230Y-13571317D01*
X19419230Y-13571317D02*
X19543039Y-13571317D01*
X19704944Y-13504650D02*
X19704944Y-13637984D01*
X19657325Y-13428460D02*
X19609706Y-13571317D01*
X19609706Y-13571317D02*
X19733515Y-13571317D01*
X19962087Y-13637984D02*
X19962087Y-13437984D01*
X20047801Y-13637984D02*
X20047801Y-13533222D01*
X20047801Y-13533222D02*
X20038277Y-13514174D01*
X20038277Y-13514174D02*
X20019230Y-13504650D01*
X20019230Y-13504650D02*
X19990658Y-13504650D01*
X19990658Y-13504650D02*
X19971611Y-13514174D01*
X19971611Y-13514174D02*
X19962087Y-13523698D01*
X20171611Y-13637984D02*
X20152563Y-13628460D01*
X20152563Y-13628460D02*
X20143039Y-13618936D01*
X20143039Y-13618936D02*
X20133515Y-13599888D01*
X20133515Y-13599888D02*
X20133515Y-13542746D01*
X20133515Y-13542746D02*
X20143039Y-13523698D01*
X20143039Y-13523698D02*
X20152563Y-13514174D01*
X20152563Y-13514174D02*
X20171611Y-13504650D01*
X20171611Y-13504650D02*
X20200182Y-13504650D01*
X20200182Y-13504650D02*
X20219230Y-13514174D01*
X20219230Y-13514174D02*
X20228753Y-13523698D01*
X20228753Y-13523698D02*
X20238277Y-13542746D01*
X20238277Y-13542746D02*
X20238277Y-13599888D01*
X20238277Y-13599888D02*
X20228753Y-13618936D01*
X20228753Y-13618936D02*
X20219230Y-13628460D01*
X20219230Y-13628460D02*
X20200182Y-13637984D01*
X20200182Y-13637984D02*
X20171611Y-13637984D01*
X20352563Y-13637984D02*
X20333515Y-13628460D01*
X20333515Y-13628460D02*
X20323992Y-13609412D01*
X20323992Y-13609412D02*
X20323992Y-13437984D01*
X20504944Y-13628460D02*
X20485896Y-13637984D01*
X20485896Y-13637984D02*
X20447801Y-13637984D01*
X20447801Y-13637984D02*
X20428753Y-13628460D01*
X20428753Y-13628460D02*
X20419230Y-13609412D01*
X20419230Y-13609412D02*
X20419230Y-13533222D01*
X20419230Y-13533222D02*
X20428753Y-13514174D01*
X20428753Y-13514174D02*
X20447801Y-13504650D01*
X20447801Y-13504650D02*
X20485896Y-13504650D01*
X20485896Y-13504650D02*
X20504944Y-13514174D01*
X20504944Y-13514174D02*
X20514468Y-13533222D01*
X20514468Y-13533222D02*
X20514468Y-13552269D01*
X20514468Y-13552269D02*
X20419230Y-13571317D01*
X20590658Y-13628460D02*
X20609706Y-13637984D01*
X20609706Y-13637984D02*
X20647801Y-13637984D01*
X20647801Y-13637984D02*
X20666849Y-13628460D01*
X20666849Y-13628460D02*
X20676373Y-13609412D01*
X20676373Y-13609412D02*
X20676373Y-13599888D01*
X20676373Y-13599888D02*
X20666849Y-13580841D01*
X20666849Y-13580841D02*
X20647801Y-13571317D01*
X20647801Y-13571317D02*
X20619230Y-13571317D01*
X20619230Y-13571317D02*
X20600182Y-13561793D01*
X20600182Y-13561793D02*
X20590658Y-13542746D01*
X20590658Y-13542746D02*
X20590658Y-13533222D01*
X20590658Y-13533222D02*
X20600182Y-13514174D01*
X20600182Y-13514174D02*
X20619230Y-13504650D01*
X20619230Y-13504650D02*
X20647801Y-13504650D01*
X20647801Y-13504650D02*
X20666849Y-13514174D01*
X20743039Y-13714174D02*
X20752563Y-13704650D01*
X20752563Y-13704650D02*
X20771611Y-13676079D01*
X20771611Y-13676079D02*
X20781134Y-13657031D01*
X20781134Y-13657031D02*
X20790658Y-13628460D01*
X20790658Y-13628460D02*
X20800182Y-13580841D01*
X20800182Y-13580841D02*
X20800182Y-13542746D01*
X20800182Y-13542746D02*
X20790658Y-13495127D01*
X20790658Y-13495127D02*
X20781134Y-13466555D01*
X20781134Y-13466555D02*
X20771611Y-13447508D01*
X20771611Y-13447508D02*
X20752563Y-13418936D01*
X20752563Y-13418936D02*
X20743039Y-13409412D01*
D13*
X15722500Y-13755500D02*
X15722500Y-13865500D01*
X15667500Y-13810500D02*
X15777500Y-13810500D01*
D11*
X16143039Y-13901984D02*
X16028753Y-13901984D01*
X16085896Y-13901984D02*
X16085896Y-13701984D01*
X16085896Y-13701984D02*
X16066848Y-13730555D01*
X16066848Y-13730555D02*
X16047801Y-13749603D01*
X16047801Y-13749603D02*
X16028753Y-13759127D01*
X16228753Y-13882936D02*
X16238277Y-13892460D01*
X16238277Y-13892460D02*
X16228753Y-13901984D01*
X16228753Y-13901984D02*
X16219229Y-13892460D01*
X16219229Y-13892460D02*
X16228753Y-13882936D01*
X16228753Y-13882936D02*
X16228753Y-13901984D01*
X16428753Y-13901984D02*
X16314467Y-13901984D01*
X16371610Y-13901984D02*
X16371610Y-13701984D01*
X16371610Y-13701984D02*
X16352562Y-13730555D01*
X16352562Y-13730555D02*
X16333515Y-13749603D01*
X16333515Y-13749603D02*
X16314467Y-13759127D01*
X16552562Y-13701984D02*
X16571610Y-13701984D01*
X16571610Y-13701984D02*
X16590658Y-13711508D01*
X16590658Y-13711508D02*
X16600182Y-13721031D01*
X16600182Y-13721031D02*
X16609705Y-13740079D01*
X16609705Y-13740079D02*
X16619229Y-13778174D01*
X16619229Y-13778174D02*
X16619229Y-13825793D01*
X16619229Y-13825793D02*
X16609705Y-13863888D01*
X16609705Y-13863888D02*
X16600182Y-13882936D01*
X16600182Y-13882936D02*
X16590658Y-13892460D01*
X16590658Y-13892460D02*
X16571610Y-13901984D01*
X16571610Y-13901984D02*
X16552562Y-13901984D01*
X16552562Y-13901984D02*
X16533515Y-13892460D01*
X16533515Y-13892460D02*
X16523991Y-13882936D01*
X16523991Y-13882936D02*
X16514467Y-13863888D01*
X16514467Y-13863888D02*
X16504943Y-13825793D01*
X16504943Y-13825793D02*
X16504943Y-13778174D01*
X16504943Y-13778174D02*
X16514467Y-13740079D01*
X16514467Y-13740079D02*
X16523991Y-13721031D01*
X16523991Y-13721031D02*
X16533515Y-13711508D01*
X16533515Y-13711508D02*
X16552562Y-13701984D01*
X16743039Y-13701984D02*
X16762086Y-13701984D01*
X16762086Y-13701984D02*
X16781134Y-13711508D01*
X16781134Y-13711508D02*
X16790658Y-13721031D01*
X16790658Y-13721031D02*
X16800182Y-13740079D01*
X16800182Y-13740079D02*
X16809705Y-13778174D01*
X16809705Y-13778174D02*
X16809705Y-13825793D01*
X16809705Y-13825793D02*
X16800182Y-13863888D01*
X16800182Y-13863888D02*
X16790658Y-13882936D01*
X16790658Y-13882936D02*
X16781134Y-13892460D01*
X16781134Y-13892460D02*
X16762086Y-13901984D01*
X16762086Y-13901984D02*
X16743039Y-13901984D01*
X16743039Y-13901984D02*
X16723991Y-13892460D01*
X16723991Y-13892460D02*
X16714467Y-13882936D01*
X16714467Y-13882936D02*
X16704943Y-13863888D01*
X16704943Y-13863888D02*
X16695420Y-13825793D01*
X16695420Y-13825793D02*
X16695420Y-13778174D01*
X16695420Y-13778174D02*
X16704943Y-13740079D01*
X16704943Y-13740079D02*
X16714467Y-13721031D01*
X16714467Y-13721031D02*
X16723991Y-13711508D01*
X16723991Y-13711508D02*
X16743039Y-13701984D01*
X16895420Y-13901984D02*
X16895420Y-13768650D01*
X16895420Y-13787698D02*
X16904944Y-13778174D01*
X16904944Y-13778174D02*
X16923991Y-13768650D01*
X16923991Y-13768650D02*
X16952563Y-13768650D01*
X16952563Y-13768650D02*
X16971610Y-13778174D01*
X16971610Y-13778174D02*
X16981134Y-13797222D01*
X16981134Y-13797222D02*
X16981134Y-13901984D01*
X16981134Y-13797222D02*
X16990658Y-13778174D01*
X16990658Y-13778174D02*
X17009705Y-13768650D01*
X17009705Y-13768650D02*
X17038277Y-13768650D01*
X17038277Y-13768650D02*
X17057325Y-13778174D01*
X17057325Y-13778174D02*
X17066848Y-13797222D01*
X17066848Y-13797222D02*
X17066848Y-13901984D01*
X17162086Y-13901984D02*
X17162086Y-13768650D01*
X17162086Y-13787698D02*
X17171610Y-13778174D01*
X17171610Y-13778174D02*
X17190658Y-13768650D01*
X17190658Y-13768650D02*
X17219229Y-13768650D01*
X17219229Y-13768650D02*
X17238277Y-13778174D01*
X17238277Y-13778174D02*
X17247801Y-13797222D01*
X17247801Y-13797222D02*
X17247801Y-13901984D01*
X17247801Y-13797222D02*
X17257325Y-13778174D01*
X17257325Y-13778174D02*
X17276372Y-13768650D01*
X17276372Y-13768650D02*
X17304944Y-13768650D01*
X17304944Y-13768650D02*
X17323991Y-13778174D01*
X17323991Y-13778174D02*
X17333515Y-13797222D01*
X17333515Y-13797222D02*
X17333515Y-13901984D01*
X17723991Y-13692460D02*
X17552563Y-13949603D01*
X17981134Y-13701984D02*
X18000182Y-13701984D01*
X18000182Y-13701984D02*
X18019229Y-13711508D01*
X18019229Y-13711508D02*
X18028753Y-13721031D01*
X18028753Y-13721031D02*
X18038277Y-13740079D01*
X18038277Y-13740079D02*
X18047801Y-13778174D01*
X18047801Y-13778174D02*
X18047801Y-13825793D01*
X18047801Y-13825793D02*
X18038277Y-13863888D01*
X18038277Y-13863888D02*
X18028753Y-13882936D01*
X18028753Y-13882936D02*
X18019229Y-13892460D01*
X18019229Y-13892460D02*
X18000182Y-13901984D01*
X18000182Y-13901984D02*
X17981134Y-13901984D01*
X17981134Y-13901984D02*
X17962087Y-13892460D01*
X17962087Y-13892460D02*
X17952563Y-13882936D01*
X17952563Y-13882936D02*
X17943039Y-13863888D01*
X17943039Y-13863888D02*
X17933515Y-13825793D01*
X17933515Y-13825793D02*
X17933515Y-13778174D01*
X17933515Y-13778174D02*
X17943039Y-13740079D01*
X17943039Y-13740079D02*
X17952563Y-13721031D01*
X17952563Y-13721031D02*
X17962087Y-13711508D01*
X17962087Y-13711508D02*
X17981134Y-13701984D01*
X18133515Y-13882936D02*
X18143039Y-13892460D01*
X18143039Y-13892460D02*
X18133515Y-13901984D01*
X18133515Y-13901984D02*
X18123991Y-13892460D01*
X18123991Y-13892460D02*
X18133515Y-13882936D01*
X18133515Y-13882936D02*
X18133515Y-13901984D01*
X18266848Y-13701984D02*
X18285896Y-13701984D01*
X18285896Y-13701984D02*
X18304944Y-13711508D01*
X18304944Y-13711508D02*
X18314468Y-13721031D01*
X18314468Y-13721031D02*
X18323991Y-13740079D01*
X18323991Y-13740079D02*
X18333515Y-13778174D01*
X18333515Y-13778174D02*
X18333515Y-13825793D01*
X18333515Y-13825793D02*
X18323991Y-13863888D01*
X18323991Y-13863888D02*
X18314468Y-13882936D01*
X18314468Y-13882936D02*
X18304944Y-13892460D01*
X18304944Y-13892460D02*
X18285896Y-13901984D01*
X18285896Y-13901984D02*
X18266848Y-13901984D01*
X18266848Y-13901984D02*
X18247801Y-13892460D01*
X18247801Y-13892460D02*
X18238277Y-13882936D01*
X18238277Y-13882936D02*
X18228753Y-13863888D01*
X18228753Y-13863888D02*
X18219229Y-13825793D01*
X18219229Y-13825793D02*
X18219229Y-13778174D01*
X18219229Y-13778174D02*
X18228753Y-13740079D01*
X18228753Y-13740079D02*
X18238277Y-13721031D01*
X18238277Y-13721031D02*
X18247801Y-13711508D01*
X18247801Y-13711508D02*
X18266848Y-13701984D01*
X18504944Y-13768650D02*
X18504944Y-13901984D01*
X18457325Y-13692460D02*
X18409706Y-13835317D01*
X18409706Y-13835317D02*
X18533515Y-13835317D01*
X18590658Y-13701984D02*
X18714468Y-13701984D01*
X18714468Y-13701984D02*
X18647801Y-13778174D01*
X18647801Y-13778174D02*
X18676372Y-13778174D01*
X18676372Y-13778174D02*
X18695420Y-13787698D01*
X18695420Y-13787698D02*
X18704944Y-13797222D01*
X18704944Y-13797222D02*
X18714468Y-13816269D01*
X18714468Y-13816269D02*
X18714468Y-13863888D01*
X18714468Y-13863888D02*
X18704944Y-13882936D01*
X18704944Y-13882936D02*
X18695420Y-13892460D01*
X18695420Y-13892460D02*
X18676372Y-13901984D01*
X18676372Y-13901984D02*
X18619229Y-13901984D01*
X18619229Y-13901984D02*
X18600182Y-13892460D01*
X18600182Y-13892460D02*
X18590658Y-13882936D01*
X18781134Y-13701984D02*
X18904944Y-13701984D01*
X18904944Y-13701984D02*
X18838277Y-13778174D01*
X18838277Y-13778174D02*
X18866849Y-13778174D01*
X18866849Y-13778174D02*
X18885896Y-13787698D01*
X18885896Y-13787698D02*
X18895420Y-13797222D01*
X18895420Y-13797222D02*
X18904944Y-13816269D01*
X18904944Y-13816269D02*
X18904944Y-13863888D01*
X18904944Y-13863888D02*
X18895420Y-13882936D01*
X18895420Y-13882936D02*
X18885896Y-13892460D01*
X18885896Y-13892460D02*
X18866849Y-13901984D01*
X18866849Y-13901984D02*
X18809706Y-13901984D01*
X18809706Y-13901984D02*
X18790658Y-13892460D01*
X18790658Y-13892460D02*
X18781134Y-13882936D01*
X18981134Y-13701984D02*
X18981134Y-13740079D01*
X19057325Y-13701984D02*
X19057325Y-13740079D01*
X19352563Y-13978174D02*
X19343039Y-13968650D01*
X19343039Y-13968650D02*
X19323991Y-13940079D01*
X19323991Y-13940079D02*
X19314468Y-13921031D01*
X19314468Y-13921031D02*
X19304944Y-13892460D01*
X19304944Y-13892460D02*
X19295420Y-13844841D01*
X19295420Y-13844841D02*
X19295420Y-13806746D01*
X19295420Y-13806746D02*
X19304944Y-13759127D01*
X19304944Y-13759127D02*
X19314468Y-13730555D01*
X19314468Y-13730555D02*
X19323991Y-13711508D01*
X19323991Y-13711508D02*
X19343039Y-13682936D01*
X19343039Y-13682936D02*
X19352563Y-13673412D01*
X19409706Y-13701984D02*
X19533515Y-13701984D01*
X19533515Y-13701984D02*
X19466849Y-13778174D01*
X19466849Y-13778174D02*
X19495420Y-13778174D01*
X19495420Y-13778174D02*
X19514468Y-13787698D01*
X19514468Y-13787698D02*
X19523991Y-13797222D01*
X19523991Y-13797222D02*
X19533515Y-13816269D01*
X19533515Y-13816269D02*
X19533515Y-13863888D01*
X19533515Y-13863888D02*
X19523991Y-13882936D01*
X19523991Y-13882936D02*
X19514468Y-13892460D01*
X19514468Y-13892460D02*
X19495420Y-13901984D01*
X19495420Y-13901984D02*
X19438277Y-13901984D01*
X19438277Y-13901984D02*
X19419230Y-13892460D01*
X19419230Y-13892460D02*
X19409706Y-13882936D01*
X19771611Y-13901984D02*
X19771611Y-13701984D01*
X19857325Y-13901984D02*
X19857325Y-13797222D01*
X19857325Y-13797222D02*
X19847801Y-13778174D01*
X19847801Y-13778174D02*
X19828753Y-13768650D01*
X19828753Y-13768650D02*
X19800182Y-13768650D01*
X19800182Y-13768650D02*
X19781134Y-13778174D01*
X19781134Y-13778174D02*
X19771611Y-13787698D01*
X19981134Y-13901984D02*
X19962087Y-13892460D01*
X19962087Y-13892460D02*
X19952563Y-13882936D01*
X19952563Y-13882936D02*
X19943039Y-13863888D01*
X19943039Y-13863888D02*
X19943039Y-13806746D01*
X19943039Y-13806746D02*
X19952563Y-13787698D01*
X19952563Y-13787698D02*
X19962087Y-13778174D01*
X19962087Y-13778174D02*
X19981134Y-13768650D01*
X19981134Y-13768650D02*
X20009706Y-13768650D01*
X20009706Y-13768650D02*
X20028753Y-13778174D01*
X20028753Y-13778174D02*
X20038277Y-13787698D01*
X20038277Y-13787698D02*
X20047801Y-13806746D01*
X20047801Y-13806746D02*
X20047801Y-13863888D01*
X20047801Y-13863888D02*
X20038277Y-13882936D01*
X20038277Y-13882936D02*
X20028753Y-13892460D01*
X20028753Y-13892460D02*
X20009706Y-13901984D01*
X20009706Y-13901984D02*
X19981134Y-13901984D01*
X20162087Y-13901984D02*
X20143039Y-13892460D01*
X20143039Y-13892460D02*
X20133515Y-13873412D01*
X20133515Y-13873412D02*
X20133515Y-13701984D01*
X20314468Y-13892460D02*
X20295420Y-13901984D01*
X20295420Y-13901984D02*
X20257325Y-13901984D01*
X20257325Y-13901984D02*
X20238277Y-13892460D01*
X20238277Y-13892460D02*
X20228753Y-13873412D01*
X20228753Y-13873412D02*
X20228753Y-13797222D01*
X20228753Y-13797222D02*
X20238277Y-13778174D01*
X20238277Y-13778174D02*
X20257325Y-13768650D01*
X20257325Y-13768650D02*
X20295420Y-13768650D01*
X20295420Y-13768650D02*
X20314468Y-13778174D01*
X20314468Y-13778174D02*
X20323992Y-13797222D01*
X20323992Y-13797222D02*
X20323992Y-13816269D01*
X20323992Y-13816269D02*
X20228753Y-13835317D01*
X20400182Y-13892460D02*
X20419230Y-13901984D01*
X20419230Y-13901984D02*
X20457325Y-13901984D01*
X20457325Y-13901984D02*
X20476373Y-13892460D01*
X20476373Y-13892460D02*
X20485896Y-13873412D01*
X20485896Y-13873412D02*
X20485896Y-13863888D01*
X20485896Y-13863888D02*
X20476373Y-13844841D01*
X20476373Y-13844841D02*
X20457325Y-13835317D01*
X20457325Y-13835317D02*
X20428753Y-13835317D01*
X20428753Y-13835317D02*
X20409706Y-13825793D01*
X20409706Y-13825793D02*
X20400182Y-13806746D01*
X20400182Y-13806746D02*
X20400182Y-13797222D01*
X20400182Y-13797222D02*
X20409706Y-13778174D01*
X20409706Y-13778174D02*
X20428753Y-13768650D01*
X20428753Y-13768650D02*
X20457325Y-13768650D01*
X20457325Y-13768650D02*
X20476373Y-13778174D01*
X20552563Y-13978174D02*
X20562087Y-13968650D01*
X20562087Y-13968650D02*
X20581134Y-13940079D01*
X20581134Y-13940079D02*
X20590658Y-13921031D01*
X20590658Y-13921031D02*
X20600182Y-13892460D01*
X20600182Y-13892460D02*
X20609706Y-13844841D01*
X20609706Y-13844841D02*
X20609706Y-13806746D01*
X20609706Y-13806746D02*
X20600182Y-13759127D01*
X20600182Y-13759127D02*
X20590658Y-13730555D01*
X20590658Y-13730555D02*
X20581134Y-13711508D01*
X20581134Y-13711508D02*
X20562087Y-13682936D01*
X20562087Y-13682936D02*
X20552563Y-13673412D01*
D14*
X15758462Y-14120462D02*
X15758462Y-14028538D01*
X15666538Y-14028538D01*
X15666538Y-14120462D01*
X15758462Y-14120462D01*
D11*
X16143039Y-14165984D02*
X16028753Y-14165984D01*
X16085896Y-14165984D02*
X16085896Y-13965984D01*
X16085896Y-13965984D02*
X16066848Y-13994555D01*
X16066848Y-13994555D02*
X16047801Y-14013603D01*
X16047801Y-14013603D02*
X16028753Y-14023127D01*
X16228753Y-14146936D02*
X16238277Y-14156460D01*
X16238277Y-14156460D02*
X16228753Y-14165984D01*
X16228753Y-14165984D02*
X16219229Y-14156460D01*
X16219229Y-14156460D02*
X16228753Y-14146936D01*
X16228753Y-14146936D02*
X16228753Y-14165984D01*
X16304943Y-13965984D02*
X16428753Y-13965984D01*
X16428753Y-13965984D02*
X16362086Y-14042174D01*
X16362086Y-14042174D02*
X16390658Y-14042174D01*
X16390658Y-14042174D02*
X16409705Y-14051698D01*
X16409705Y-14051698D02*
X16419229Y-14061222D01*
X16419229Y-14061222D02*
X16428753Y-14080269D01*
X16428753Y-14080269D02*
X16428753Y-14127888D01*
X16428753Y-14127888D02*
X16419229Y-14146936D01*
X16419229Y-14146936D02*
X16409705Y-14156460D01*
X16409705Y-14156460D02*
X16390658Y-14165984D01*
X16390658Y-14165984D02*
X16333515Y-14165984D01*
X16333515Y-14165984D02*
X16314467Y-14156460D01*
X16314467Y-14156460D02*
X16304943Y-14146936D01*
X16552562Y-13965984D02*
X16571610Y-13965984D01*
X16571610Y-13965984D02*
X16590658Y-13975508D01*
X16590658Y-13975508D02*
X16600182Y-13985031D01*
X16600182Y-13985031D02*
X16609705Y-14004079D01*
X16609705Y-14004079D02*
X16619229Y-14042174D01*
X16619229Y-14042174D02*
X16619229Y-14089793D01*
X16619229Y-14089793D02*
X16609705Y-14127888D01*
X16609705Y-14127888D02*
X16600182Y-14146936D01*
X16600182Y-14146936D02*
X16590658Y-14156460D01*
X16590658Y-14156460D02*
X16571610Y-14165984D01*
X16571610Y-14165984D02*
X16552562Y-14165984D01*
X16552562Y-14165984D02*
X16533515Y-14156460D01*
X16533515Y-14156460D02*
X16523991Y-14146936D01*
X16523991Y-14146936D02*
X16514467Y-14127888D01*
X16514467Y-14127888D02*
X16504943Y-14089793D01*
X16504943Y-14089793D02*
X16504943Y-14042174D01*
X16504943Y-14042174D02*
X16514467Y-14004079D01*
X16514467Y-14004079D02*
X16523991Y-13985031D01*
X16523991Y-13985031D02*
X16533515Y-13975508D01*
X16533515Y-13975508D02*
X16552562Y-13965984D01*
X16743039Y-13965984D02*
X16762086Y-13965984D01*
X16762086Y-13965984D02*
X16781134Y-13975508D01*
X16781134Y-13975508D02*
X16790658Y-13985031D01*
X16790658Y-13985031D02*
X16800182Y-14004079D01*
X16800182Y-14004079D02*
X16809705Y-14042174D01*
X16809705Y-14042174D02*
X16809705Y-14089793D01*
X16809705Y-14089793D02*
X16800182Y-14127888D01*
X16800182Y-14127888D02*
X16790658Y-14146936D01*
X16790658Y-14146936D02*
X16781134Y-14156460D01*
X16781134Y-14156460D02*
X16762086Y-14165984D01*
X16762086Y-14165984D02*
X16743039Y-14165984D01*
X16743039Y-14165984D02*
X16723991Y-14156460D01*
X16723991Y-14156460D02*
X16714467Y-14146936D01*
X16714467Y-14146936D02*
X16704943Y-14127888D01*
X16704943Y-14127888D02*
X16695420Y-14089793D01*
X16695420Y-14089793D02*
X16695420Y-14042174D01*
X16695420Y-14042174D02*
X16704943Y-14004079D01*
X16704943Y-14004079D02*
X16714467Y-13985031D01*
X16714467Y-13985031D02*
X16723991Y-13975508D01*
X16723991Y-13975508D02*
X16743039Y-13965984D01*
X16895420Y-14165984D02*
X16895420Y-14032650D01*
X16895420Y-14051698D02*
X16904944Y-14042174D01*
X16904944Y-14042174D02*
X16923991Y-14032650D01*
X16923991Y-14032650D02*
X16952563Y-14032650D01*
X16952563Y-14032650D02*
X16971610Y-14042174D01*
X16971610Y-14042174D02*
X16981134Y-14061222D01*
X16981134Y-14061222D02*
X16981134Y-14165984D01*
X16981134Y-14061222D02*
X16990658Y-14042174D01*
X16990658Y-14042174D02*
X17009705Y-14032650D01*
X17009705Y-14032650D02*
X17038277Y-14032650D01*
X17038277Y-14032650D02*
X17057325Y-14042174D01*
X17057325Y-14042174D02*
X17066848Y-14061222D01*
X17066848Y-14061222D02*
X17066848Y-14165984D01*
X17162086Y-14165984D02*
X17162086Y-14032650D01*
X17162086Y-14051698D02*
X17171610Y-14042174D01*
X17171610Y-14042174D02*
X17190658Y-14032650D01*
X17190658Y-14032650D02*
X17219229Y-14032650D01*
X17219229Y-14032650D02*
X17238277Y-14042174D01*
X17238277Y-14042174D02*
X17247801Y-14061222D01*
X17247801Y-14061222D02*
X17247801Y-14165984D01*
X17247801Y-14061222D02*
X17257325Y-14042174D01*
X17257325Y-14042174D02*
X17276372Y-14032650D01*
X17276372Y-14032650D02*
X17304944Y-14032650D01*
X17304944Y-14032650D02*
X17323991Y-14042174D01*
X17323991Y-14042174D02*
X17333515Y-14061222D01*
X17333515Y-14061222D02*
X17333515Y-14165984D01*
X17723991Y-13956460D02*
X17552563Y-14213603D01*
X17981134Y-13965984D02*
X18000182Y-13965984D01*
X18000182Y-13965984D02*
X18019229Y-13975508D01*
X18019229Y-13975508D02*
X18028753Y-13985031D01*
X18028753Y-13985031D02*
X18038277Y-14004079D01*
X18038277Y-14004079D02*
X18047801Y-14042174D01*
X18047801Y-14042174D02*
X18047801Y-14089793D01*
X18047801Y-14089793D02*
X18038277Y-14127888D01*
X18038277Y-14127888D02*
X18028753Y-14146936D01*
X18028753Y-14146936D02*
X18019229Y-14156460D01*
X18019229Y-14156460D02*
X18000182Y-14165984D01*
X18000182Y-14165984D02*
X17981134Y-14165984D01*
X17981134Y-14165984D02*
X17962087Y-14156460D01*
X17962087Y-14156460D02*
X17952563Y-14146936D01*
X17952563Y-14146936D02*
X17943039Y-14127888D01*
X17943039Y-14127888D02*
X17933515Y-14089793D01*
X17933515Y-14089793D02*
X17933515Y-14042174D01*
X17933515Y-14042174D02*
X17943039Y-14004079D01*
X17943039Y-14004079D02*
X17952563Y-13985031D01*
X17952563Y-13985031D02*
X17962087Y-13975508D01*
X17962087Y-13975508D02*
X17981134Y-13965984D01*
X18133515Y-14146936D02*
X18143039Y-14156460D01*
X18143039Y-14156460D02*
X18133515Y-14165984D01*
X18133515Y-14165984D02*
X18123991Y-14156460D01*
X18123991Y-14156460D02*
X18133515Y-14146936D01*
X18133515Y-14146936D02*
X18133515Y-14165984D01*
X18266848Y-13965984D02*
X18285896Y-13965984D01*
X18285896Y-13965984D02*
X18304944Y-13975508D01*
X18304944Y-13975508D02*
X18314468Y-13985031D01*
X18314468Y-13985031D02*
X18323991Y-14004079D01*
X18323991Y-14004079D02*
X18333515Y-14042174D01*
X18333515Y-14042174D02*
X18333515Y-14089793D01*
X18333515Y-14089793D02*
X18323991Y-14127888D01*
X18323991Y-14127888D02*
X18314468Y-14146936D01*
X18314468Y-14146936D02*
X18304944Y-14156460D01*
X18304944Y-14156460D02*
X18285896Y-14165984D01*
X18285896Y-14165984D02*
X18266848Y-14165984D01*
X18266848Y-14165984D02*
X18247801Y-14156460D01*
X18247801Y-14156460D02*
X18238277Y-14146936D01*
X18238277Y-14146936D02*
X18228753Y-14127888D01*
X18228753Y-14127888D02*
X18219229Y-14089793D01*
X18219229Y-14089793D02*
X18219229Y-14042174D01*
X18219229Y-14042174D02*
X18228753Y-14004079D01*
X18228753Y-14004079D02*
X18238277Y-13985031D01*
X18238277Y-13985031D02*
X18247801Y-13975508D01*
X18247801Y-13975508D02*
X18266848Y-13965984D01*
X18514468Y-13965984D02*
X18419229Y-13965984D01*
X18419229Y-13965984D02*
X18409706Y-14061222D01*
X18409706Y-14061222D02*
X18419229Y-14051698D01*
X18419229Y-14051698D02*
X18438277Y-14042174D01*
X18438277Y-14042174D02*
X18485896Y-14042174D01*
X18485896Y-14042174D02*
X18504944Y-14051698D01*
X18504944Y-14051698D02*
X18514468Y-14061222D01*
X18514468Y-14061222D02*
X18523991Y-14080269D01*
X18523991Y-14080269D02*
X18523991Y-14127888D01*
X18523991Y-14127888D02*
X18514468Y-14146936D01*
X18514468Y-14146936D02*
X18504944Y-14156460D01*
X18504944Y-14156460D02*
X18485896Y-14165984D01*
X18485896Y-14165984D02*
X18438277Y-14165984D01*
X18438277Y-14165984D02*
X18419229Y-14156460D01*
X18419229Y-14156460D02*
X18409706Y-14146936D01*
X18714468Y-14165984D02*
X18600182Y-14165984D01*
X18657325Y-14165984D02*
X18657325Y-13965984D01*
X18657325Y-13965984D02*
X18638277Y-13994555D01*
X18638277Y-13994555D02*
X18619229Y-14013603D01*
X18619229Y-14013603D02*
X18600182Y-14023127D01*
X18790658Y-13985031D02*
X18800182Y-13975508D01*
X18800182Y-13975508D02*
X18819229Y-13965984D01*
X18819229Y-13965984D02*
X18866849Y-13965984D01*
X18866849Y-13965984D02*
X18885896Y-13975508D01*
X18885896Y-13975508D02*
X18895420Y-13985031D01*
X18895420Y-13985031D02*
X18904944Y-14004079D01*
X18904944Y-14004079D02*
X18904944Y-14023127D01*
X18904944Y-14023127D02*
X18895420Y-14051698D01*
X18895420Y-14051698D02*
X18781134Y-14165984D01*
X18781134Y-14165984D02*
X18904944Y-14165984D01*
X18981134Y-13965984D02*
X18981134Y-14004079D01*
X19057325Y-13965984D02*
X19057325Y-14004079D01*
X19352563Y-14242174D02*
X19343039Y-14232650D01*
X19343039Y-14232650D02*
X19323991Y-14204079D01*
X19323991Y-14204079D02*
X19314468Y-14185031D01*
X19314468Y-14185031D02*
X19304944Y-14156460D01*
X19304944Y-14156460D02*
X19295420Y-14108841D01*
X19295420Y-14108841D02*
X19295420Y-14070746D01*
X19295420Y-14070746D02*
X19304944Y-14023127D01*
X19304944Y-14023127D02*
X19314468Y-13994555D01*
X19314468Y-13994555D02*
X19323991Y-13975508D01*
X19323991Y-13975508D02*
X19343039Y-13946936D01*
X19343039Y-13946936D02*
X19352563Y-13937412D01*
X19514468Y-13965984D02*
X19476372Y-13965984D01*
X19476372Y-13965984D02*
X19457325Y-13975508D01*
X19457325Y-13975508D02*
X19447801Y-13985031D01*
X19447801Y-13985031D02*
X19428753Y-14013603D01*
X19428753Y-14013603D02*
X19419230Y-14051698D01*
X19419230Y-14051698D02*
X19419230Y-14127888D01*
X19419230Y-14127888D02*
X19428753Y-14146936D01*
X19428753Y-14146936D02*
X19438277Y-14156460D01*
X19438277Y-14156460D02*
X19457325Y-14165984D01*
X19457325Y-14165984D02*
X19495420Y-14165984D01*
X19495420Y-14165984D02*
X19514468Y-14156460D01*
X19514468Y-14156460D02*
X19523991Y-14146936D01*
X19523991Y-14146936D02*
X19533515Y-14127888D01*
X19533515Y-14127888D02*
X19533515Y-14080269D01*
X19533515Y-14080269D02*
X19523991Y-14061222D01*
X19523991Y-14061222D02*
X19514468Y-14051698D01*
X19514468Y-14051698D02*
X19495420Y-14042174D01*
X19495420Y-14042174D02*
X19457325Y-14042174D01*
X19457325Y-14042174D02*
X19438277Y-14051698D01*
X19438277Y-14051698D02*
X19428753Y-14061222D01*
X19428753Y-14061222D02*
X19419230Y-14080269D01*
X19771611Y-14165984D02*
X19771611Y-13965984D01*
X19857325Y-14165984D02*
X19857325Y-14061222D01*
X19857325Y-14061222D02*
X19847801Y-14042174D01*
X19847801Y-14042174D02*
X19828753Y-14032650D01*
X19828753Y-14032650D02*
X19800182Y-14032650D01*
X19800182Y-14032650D02*
X19781134Y-14042174D01*
X19781134Y-14042174D02*
X19771611Y-14051698D01*
X19981134Y-14165984D02*
X19962087Y-14156460D01*
X19962087Y-14156460D02*
X19952563Y-14146936D01*
X19952563Y-14146936D02*
X19943039Y-14127888D01*
X19943039Y-14127888D02*
X19943039Y-14070746D01*
X19943039Y-14070746D02*
X19952563Y-14051698D01*
X19952563Y-14051698D02*
X19962087Y-14042174D01*
X19962087Y-14042174D02*
X19981134Y-14032650D01*
X19981134Y-14032650D02*
X20009706Y-14032650D01*
X20009706Y-14032650D02*
X20028753Y-14042174D01*
X20028753Y-14042174D02*
X20038277Y-14051698D01*
X20038277Y-14051698D02*
X20047801Y-14070746D01*
X20047801Y-14070746D02*
X20047801Y-14127888D01*
X20047801Y-14127888D02*
X20038277Y-14146936D01*
X20038277Y-14146936D02*
X20028753Y-14156460D01*
X20028753Y-14156460D02*
X20009706Y-14165984D01*
X20009706Y-14165984D02*
X19981134Y-14165984D01*
X20162087Y-14165984D02*
X20143039Y-14156460D01*
X20143039Y-14156460D02*
X20133515Y-14137412D01*
X20133515Y-14137412D02*
X20133515Y-13965984D01*
X20314468Y-14156460D02*
X20295420Y-14165984D01*
X20295420Y-14165984D02*
X20257325Y-14165984D01*
X20257325Y-14165984D02*
X20238277Y-14156460D01*
X20238277Y-14156460D02*
X20228753Y-14137412D01*
X20228753Y-14137412D02*
X20228753Y-14061222D01*
X20228753Y-14061222D02*
X20238277Y-14042174D01*
X20238277Y-14042174D02*
X20257325Y-14032650D01*
X20257325Y-14032650D02*
X20295420Y-14032650D01*
X20295420Y-14032650D02*
X20314468Y-14042174D01*
X20314468Y-14042174D02*
X20323992Y-14061222D01*
X20323992Y-14061222D02*
X20323992Y-14080269D01*
X20323992Y-14080269D02*
X20228753Y-14099317D01*
X20400182Y-14156460D02*
X20419230Y-14165984D01*
X20419230Y-14165984D02*
X20457325Y-14165984D01*
X20457325Y-14165984D02*
X20476373Y-14156460D01*
X20476373Y-14156460D02*
X20485896Y-14137412D01*
X20485896Y-14137412D02*
X20485896Y-14127888D01*
X20485896Y-14127888D02*
X20476373Y-14108841D01*
X20476373Y-14108841D02*
X20457325Y-14099317D01*
X20457325Y-14099317D02*
X20428753Y-14099317D01*
X20428753Y-14099317D02*
X20409706Y-14089793D01*
X20409706Y-14089793D02*
X20400182Y-14070746D01*
X20400182Y-14070746D02*
X20400182Y-14061222D01*
X20400182Y-14061222D02*
X20409706Y-14042174D01*
X20409706Y-14042174D02*
X20428753Y-14032650D01*
X20428753Y-14032650D02*
X20457325Y-14032650D01*
X20457325Y-14032650D02*
X20476373Y-14042174D01*
X20552563Y-14242174D02*
X20562087Y-14232650D01*
X20562087Y-14232650D02*
X20581134Y-14204079D01*
X20581134Y-14204079D02*
X20590658Y-14185031D01*
X20590658Y-14185031D02*
X20600182Y-14156460D01*
X20600182Y-14156460D02*
X20609706Y-14108841D01*
X20609706Y-14108841D02*
X20609706Y-14070746D01*
X20609706Y-14070746D02*
X20600182Y-14023127D01*
X20600182Y-14023127D02*
X20590658Y-13994555D01*
X20590658Y-13994555D02*
X20581134Y-13975508D01*
X20581134Y-13975508D02*
X20562087Y-13946936D01*
X20562087Y-13946936D02*
X20552563Y-13937412D01*
M02*
