%TF.GenerationSoftware,KiCad,Pcbnew,9.0.6*%
%TF.CreationDate,2026-03-19T18:49:23+13:00*%
%TF.ProjectId,Galvanized Kaas,47616c76-616e-4697-9a65-64204b616173,rev?*%
%TF.SameCoordinates,Original*%
%TF.FileFunction,Copper,L2,Bot*%
%TF.FilePolarity,Positive*%
%FSLAX46Y46*%
G04 Gerber Fmt 4.6, Leading zero omitted, Abs format (unit mm)*
G04 Created by KiCad (PCBNEW 9.0.6) date 2026-03-19 18:49:23*
%MOMM*%
%LPD*%
G01*
G04 APERTURE LIST*
G04 Aperture macros list*
%AMRoundRect*
0 Rectangle with rounded corners*
0 $1 Rounding radius*
0 $2 $3 $4 $5 $6 $7 $8 $9 X,Y pos of 4 corners*
0 Add a 4 corners polygon primitive as box body*
4,1,4,$2,$3,$4,$5,$6,$7,$8,$9,$2,$3,0*
0 Add four circle primitives for the rounded corners*
1,1,$1+$1,$2,$3*
1,1,$1+$1,$4,$5*
1,1,$1+$1,$6,$7*
1,1,$1+$1,$8,$9*
0 Add four rect primitives between the rounded corners*
20,1,$1+$1,$2,$3,$4,$5,0*
20,1,$1+$1,$4,$5,$6,$7,0*
20,1,$1+$1,$6,$7,$8,$9,0*
20,1,$1+$1,$8,$9,$2,$3,0*%
%AMHorizOval*
0 Thick line with rounded ends*
0 $1 width*
0 $2 $3 position (X,Y) of the first rounded end (center of the circle)*
0 $4 $5 position (X,Y) of the second rounded end (center of the circle)*
0 Add line between two ends*
20,1,$1,$2,$3,$4,$5,0*
0 Add two circle primitives to create the rounded ends*
1,1,$1,$2,$3*
1,1,$1,$4,$5*%
%AMRotRect*
0 Rectangle, with rotation*
0 The origin of the aperture is its center*
0 $1 length*
0 $2 width*
0 $3 Rotation angle, in degrees counterclockwise*
0 Add horizontal line*
21,1,$1,$2,0,0,$3*%
G04 Aperture macros list end*
%TA.AperFunction,ComponentPad*%
%ADD10R,1.700000X1.700000*%
%TD*%
%TA.AperFunction,ComponentPad*%
%ADD11C,1.700000*%
%TD*%
%TA.AperFunction,ComponentPad*%
%ADD12RoundRect,0.250000X0.000000X-1.484924X1.484924X0.000000X0.000000X1.484924X-1.484924X0.000000X0*%
%TD*%
%TA.AperFunction,ComponentPad*%
%ADD13C,2.600000*%
%TD*%
%TA.AperFunction,ComponentPad*%
%ADD14RoundRect,0.250000X1.484924X0.000000X0.000000X1.484924X-1.484924X0.000000X0.000000X-1.484924X0*%
%TD*%
%TA.AperFunction,ComponentPad*%
%ADD15C,1.600000*%
%TD*%
%TA.AperFunction,ComponentPad*%
%ADD16RotRect,1.905000X2.000000X225.000000*%
%TD*%
%TA.AperFunction,ComponentPad*%
%ADD17HorizOval,1.905000X-0.033588X0.033588X0.033588X-0.033588X0*%
%TD*%
%TA.AperFunction,ComponentPad*%
%ADD18R,1.350000X1.350000*%
%TD*%
%TA.AperFunction,ComponentPad*%
%ADD19C,1.350000*%
%TD*%
%TA.AperFunction,ComponentPad*%
%ADD20R,1.600000X1.600000*%
%TD*%
%TA.AperFunction,ComponentPad*%
%ADD21O,1.600000X1.600000*%
%TD*%
%TA.AperFunction,Conductor*%
%ADD22C,0.200000*%
%TD*%
G04 APERTURE END LIST*
D10*
%TO.P,TH1,1*%
%TO.N,GND*%
X240800000Y-96400000D03*
D11*
%TO.P,TH1,2*%
%TO.N,A0*%
X240800000Y-93860000D03*
%TD*%
D10*
%TO.P,SW2,1,A*%
%TO.N,GND*%
X182800000Y-119200000D03*
D11*
%TO.P,SW2,2,B*%
%TO.N,sw2*%
X182800000Y-116660000D03*
%TD*%
D10*
%TO.P,SW1,1,A*%
%TO.N,GND*%
X187400000Y-119200000D03*
D11*
%TO.P,SW1,2,B*%
%TO.N,sw1*%
X187400000Y-116660000D03*
%TD*%
D12*
%TO.P,heater1,1,Pin_1*%
%TO.N,GND*%
X230800000Y-108200000D03*
D13*
%TO.P,heater1,2,Pin_2*%
%TO.N,d*%
X234335534Y-104664466D03*
%TD*%
D14*
%TO.P,12vmanyamp1,1,Pin_1*%
%TO.N,p12*%
X238000000Y-53000000D03*
D13*
%TO.P,12vmanyamp1,2,Pin_2*%
%TO.N,GND*%
X234464466Y-49464466D03*
%TD*%
D14*
%TO.P,5vmanyamp1,1,Pin_1*%
%TO.N,p5*%
X229735534Y-44735534D03*
D13*
%TO.P,5vmanyamp1,2,Pin_2*%
%TO.N,GND*%
X226200000Y-41200000D03*
%TD*%
D15*
%TO.P,R2,1*%
%TO.N,A0*%
X240800000Y-89000000D03*
%TO.P,R2,2*%
%TO.N,VCC5*%
X240800000Y-81380000D03*
%TD*%
%TO.P,R1,1*%
%TO.N,G*%
X227210000Y-92400000D03*
%TO.P,R1,2*%
%TO.N,GND*%
X219590000Y-92400000D03*
%TD*%
D16*
%TO.P,Q1,1,G*%
%TO.N,G*%
X227324300Y-97532198D03*
D17*
%TO.P,Q1,2,D*%
%TO.N,d*%
X225528249Y-99328249D03*
%TO.P,Q1,3,S*%
%TO.N,GND*%
X223732198Y-101124300D03*
%TD*%
D10*
%TO.P,sda1,1,Pin_1*%
%TO.N,SCL*%
X195320000Y-119000000D03*
D11*
%TO.P,sda1,2,Pin_2*%
%TO.N,SDA*%
X197860000Y-119000000D03*
%TO.P,sda1,3,Pin_3*%
%TO.N,GND*%
X200400000Y-119000000D03*
%TO.P,sda1,4,Pin_4*%
%TO.N,VCC5*%
X202940000Y-119000000D03*
%TD*%
D18*
%TO.P,SW3,1,A*%
%TO.N,VCC12*%
X219800000Y-119000000D03*
D19*
%TO.P,SW3,2,B*%
%TO.N,p12*%
X217800000Y-119000000D03*
%TO.P,SW3,3,C*%
%TO.N,p5*%
X215800000Y-119000000D03*
%TO.P,SW3,4,A*%
%TO.N,VCC5*%
X213800000Y-119000000D03*
%TD*%
D20*
%TO.P,A1,1,TX1*%
%TO.N,unconnected-(A1-TX1-Pad1)*%
X195190000Y-54150000D03*
D21*
%TO.P,A1,2,RX1*%
%TO.N,unconnected-(A1-RX1-Pad2)*%
X195190000Y-56690000D03*
%TO.P,A1,3,~{RESET}*%
%TO.N,unconnected-(A1-~{RESET}-Pad3)*%
X195190000Y-59230000D03*
%TO.P,A1,4,GND*%
%TO.N,GND*%
X195190000Y-61770000D03*
%TO.P,A1,5,D2*%
%TO.N,unconnected-(A1-D2-Pad5)*%
X195190000Y-64310000D03*
%TO.P,A1,6,D3*%
%TO.N,sw1*%
X195190000Y-66850000D03*
%TO.P,A1,7,D4*%
%TO.N,sw2*%
X195190000Y-69390000D03*
%TO.P,A1,8,D5*%
%TO.N,step*%
X195190000Y-71930000D03*
%TO.P,A1,9,D6*%
%TO.N,DIR*%
X195190000Y-74470000D03*
%TO.P,A1,10,D7*%
%TO.N,unconnected-(A1-D7-Pad10)*%
X195190000Y-77010000D03*
%TO.P,A1,11,D8*%
%TO.N,unconnected-(A1-D8-Pad11)*%
X195190000Y-79550000D03*
%TO.P,A1,12,D9*%
%TO.N,G*%
X195190000Y-82090000D03*
%TO.P,A1,13,D10*%
%TO.N,unconnected-(A1-D10-Pad13)*%
X195190000Y-84630000D03*
%TO.P,A1,14,MOSI*%
%TO.N,unconnected-(A1-MOSI-Pad14)*%
X195190000Y-87170000D03*
%TO.P,A1,15,MISO*%
%TO.N,unconnected-(A1-MISO-Pad15)*%
X195190000Y-89710000D03*
%TO.P,A1,16,SCK*%
%TO.N,unconnected-(A1-SCK-Pad16)*%
X210430000Y-89710000D03*
%TO.P,A1,17,3V3*%
%TO.N,unconnected-(A1-3V3-Pad17)*%
X210430000Y-87170000D03*
%TO.P,A1,18,AREF*%
%TO.N,unconnected-(A1-AREF-Pad18)*%
X210430000Y-84630000D03*
%TO.P,A1,19,A0*%
%TO.N,A0*%
X210430000Y-82090000D03*
%TO.P,A1,20,A1*%
%TO.N,unconnected-(A1-A1-Pad20)*%
X210430000Y-79550000D03*
%TO.P,A1,21,A2*%
%TO.N,unconnected-(A1-A2-Pad21)*%
X210430000Y-77010000D03*
%TO.P,A1,22,A3*%
%TO.N,unconnected-(A1-A3-Pad22)*%
X210430000Y-74470000D03*
%TO.P,A1,23,SDA/A4*%
%TO.N,SDA*%
X210430000Y-71930000D03*
%TO.P,A1,24,SCL/A5*%
%TO.N,SCL*%
X210430000Y-69390000D03*
%TO.P,A1,25,A6*%
%TO.N,unconnected-(A1-A6-Pad25)*%
X210430000Y-66850000D03*
%TO.P,A1,26,A7*%
%TO.N,unconnected-(A1-A7-Pad26)*%
X210430000Y-64310000D03*
%TO.P,A1,27,+5V*%
%TO.N,unconnected-(A1-+5V-Pad27)*%
X210430000Y-61770000D03*
%TO.P,A1,28,~{RESET}*%
%TO.N,unconnected-(A1-~{RESET}-Pad28)*%
X210430000Y-59230000D03*
%TO.P,A1,29,GND*%
%TO.N,GND*%
X210430000Y-56690000D03*
%TO.P,A1,30,VIN*%
%TO.N,VCC5*%
X210430000Y-54150000D03*
%TD*%
D20*
%TO.P,A2,1,GND*%
%TO.N,GND*%
X173860000Y-63510000D03*
D21*
%TO.P,A2,2,VDD*%
%TO.N,VCC5*%
X173860000Y-66050000D03*
%TO.P,A2,3,1B*%
%TO.N,Net-(A2-1B)*%
X173860000Y-68590000D03*
%TO.P,A2,4,1A*%
%TO.N,Net-(A2-1A)*%
X173860000Y-71130000D03*
%TO.P,A2,5,2A*%
%TO.N,Net-(A2-2A)*%
X173860000Y-73670000D03*
%TO.P,A2,6,2B*%
%TO.N,Net-(A2-2B)*%
X173860000Y-76210000D03*
%TO.P,A2,7,GND*%
%TO.N,GND*%
X173860000Y-78750000D03*
%TO.P,A2,8,VMOT*%
%TO.N,VCC12*%
X173860000Y-81290000D03*
%TO.P,A2,9,~{ENABLE}*%
%TO.N,unconnected-(A2-~{ENABLE}-Pad9)*%
X186560000Y-81290000D03*
%TO.P,A2,10,MS1*%
%TO.N,unconnected-(A2-MS1-Pad10)*%
X186560000Y-78750000D03*
%TO.P,A2,11,MS2*%
%TO.N,unconnected-(A2-MS2-Pad11)*%
X186560000Y-76210000D03*
%TO.P,A2,12,MS3*%
%TO.N,unconnected-(A2-MS3-Pad12)*%
X186560000Y-73670000D03*
%TO.P,A2,13,~{RESET}*%
%TO.N,Net-(A2-~{RESET})*%
X186560000Y-71130000D03*
%TO.P,A2,14,~{SLEEP}*%
X186560000Y-68590000D03*
%TO.P,A2,15,STEP*%
%TO.N,step*%
X186560000Y-66050000D03*
%TO.P,A2,16,DIR*%
%TO.N,DIR*%
X186560000Y-63510000D03*
%TD*%
D10*
%TO.P,J3,1,Pin_1*%
%TO.N,Net-(A2-1B)*%
X164000000Y-68590000D03*
D11*
%TO.P,J3,2,Pin_2*%
%TO.N,Net-(A2-1A)*%
X164000000Y-71130000D03*
%TO.P,J3,3,Pin_3*%
%TO.N,Net-(A2-2A)*%
X164000000Y-73670000D03*
%TO.P,J3,4,Pin_4*%
%TO.N,Net-(A2-2B)*%
X164000000Y-76210000D03*
%TD*%
D22*
%TO.N,G*%
X192400000Y-84880000D02*
X195190000Y-82090000D01*
X192400000Y-90400000D02*
X192400000Y-84880000D01*
X194200000Y-92200000D02*
X192400000Y-90400000D01*
X211600000Y-92200000D02*
X194200000Y-92200000D01*
X214200000Y-89600000D02*
X211600000Y-92200000D01*
X225600000Y-89600000D02*
X214200000Y-89600000D01*
X227210000Y-91210000D02*
X225600000Y-89600000D01*
X227210000Y-92400000D02*
X227210000Y-91210000D01*
%TD*%
M02*
