%TF.GenerationSoftware,KiCad,Pcbnew,9.0.6*%
%TF.CreationDate,2025-12-08T11:04:57+13:00*%
%TF.ProjectId,hacropad,68616372-6f70-4616-942e-6b696361645f,rev?*%
%TF.SameCoordinates,Original*%
%TF.FileFunction,Paste,Top*%
%TF.FilePolarity,Positive*%
%FSLAX46Y46*%
G04 Gerber Fmt 4.6, Leading zero omitted, Abs format (unit mm)*
G04 Created by KiCad (PCBNEW 9.0.6) date 2025-12-08 11:04:57*
%MOMM*%
%LPD*%
G01*
G04 APERTURE LIST*
%ADD10R,0.850000X1.600000*%
G04 APERTURE END LIST*
D10*
%TO.C,D13*%
X136720000Y-49340000D03*
X138470000Y-49340000D03*
X138470000Y-45840000D03*
X136720000Y-45840000D03*
%TD*%
%TO.C,D11*%
X175590000Y-47930000D03*
X177340000Y-47930000D03*
X177340000Y-44430000D03*
X175590000Y-44430000D03*
%TD*%
%TO.C,D19*%
X155700000Y-85010000D03*
X157450000Y-85010000D03*
X157450000Y-81510000D03*
X155700000Y-81510000D03*
%TD*%
%TO.C,D21*%
X119700000Y-101390000D03*
X117950000Y-101390000D03*
X117950000Y-104890000D03*
X119700000Y-104890000D03*
%TD*%
%TO.C,D15*%
X119580000Y-62090000D03*
X117830000Y-62090000D03*
X117830000Y-65590000D03*
X119580000Y-65590000D03*
%TD*%
%TO.C,D12*%
X156330000Y-49390000D03*
X158080000Y-49390000D03*
X158080000Y-45890000D03*
X156330000Y-45890000D03*
%TD*%
%TO.C,D18*%
X176740000Y-62720000D03*
X174990000Y-62720000D03*
X174990000Y-66220000D03*
X176740000Y-66220000D03*
%TD*%
%TO.C,D24*%
X177030000Y-100620000D03*
X175280000Y-100620000D03*
X175280000Y-104120000D03*
X177030000Y-104120000D03*
%TD*%
%TO.C,D20*%
X138520000Y-100580000D03*
X136770000Y-100580000D03*
X136770000Y-104080000D03*
X138520000Y-104080000D03*
%TD*%
%TO.C,D22*%
X136990000Y-85010000D03*
X138740000Y-85010000D03*
X138740000Y-81510000D03*
X136990000Y-81510000D03*
%TD*%
%TO.C,D17*%
X157780000Y-62230000D03*
X156030000Y-62230000D03*
X156030000Y-65730000D03*
X157780000Y-65730000D03*
%TD*%
%TO.C,D16*%
X138420000Y-62330000D03*
X136670000Y-62330000D03*
X136670000Y-65830000D03*
X138420000Y-65830000D03*
%TD*%
%TO.C,D14*%
X117990000Y-46570000D03*
X119740000Y-46570000D03*
X119740000Y-43070000D03*
X117990000Y-43070000D03*
%TD*%
%TO.C,D23*%
X157920000Y-100950000D03*
X156170000Y-100950000D03*
X156170000Y-104450000D03*
X157920000Y-104450000D03*
%TD*%
M02*
