%TF.GenerationSoftware,KiCad,Pcbnew,9.0.6*%
%TF.CreationDate,2025-12-08T11:04:57+13:00*%
%TF.ProjectId,hacropad,68616372-6f70-4616-942e-6b696361645f,rev?*%
%TF.SameCoordinates,Original*%
%TF.FileFunction,Legend,Bot*%
%TF.FilePolarity,Positive*%
%FSLAX46Y46*%
G04 Gerber Fmt 4.6, Leading zero omitted, Abs format (unit mm)*
G04 Created by KiCad (PCBNEW 9.0.6) date 2025-12-08 11:04:57*
%MOMM*%
%LPD*%
G01*
G04 APERTURE LIST*
%ADD10C,0.120000*%
G04 APERTURE END LIST*
D10*
%TO.C,D8*%
X120060000Y-113037500D02*
X120060000Y-114997500D01*
X120060000Y-114997500D02*
X118860000Y-114997500D01*
X118860000Y-113037500D02*
X118860000Y-114997500D01*
%TO.C,D10*%
X158660000Y-112690000D02*
X158660000Y-114650000D01*
X158660000Y-114650000D02*
X157460000Y-114650000D01*
X157460000Y-112690000D02*
X157460000Y-114650000D01*
%TO.C,D9*%
X139610000Y-113037500D02*
X139610000Y-114997500D01*
X139610000Y-114997500D02*
X138410000Y-114997500D01*
X138410000Y-113037500D02*
X138410000Y-114997500D01*
%TO.C,D5*%
X138110000Y-75352500D02*
X138110000Y-77312500D01*
X139310000Y-75352500D02*
X139310000Y-77312500D01*
X139310000Y-77312500D02*
X138110000Y-77312500D01*
%TO.C,D1*%
X118920000Y-56182500D02*
X118920000Y-58142500D01*
X120120000Y-56182500D02*
X120120000Y-58142500D01*
X120120000Y-58142500D02*
X118920000Y-58142500D01*
%TO.C,D7*%
X138010000Y-94240000D02*
X138010000Y-96200000D01*
X139210000Y-94240000D02*
X139210000Y-96200000D01*
X139210000Y-96200000D02*
X138010000Y-96200000D01*
%TO.C,D2*%
X138060000Y-56130000D02*
X138060000Y-58090000D01*
X139260000Y-56130000D02*
X139260000Y-58090000D01*
X139260000Y-58090000D02*
X138060000Y-58090000D01*
%TO.C,D6*%
X157260000Y-75190000D02*
X157260000Y-77150000D01*
X158460000Y-75190000D02*
X158460000Y-77150000D01*
X158460000Y-77150000D02*
X157260000Y-77150000D01*
%TO.C,D3*%
X157380000Y-56100000D02*
X157380000Y-58060000D01*
X158580000Y-56100000D02*
X158580000Y-58060000D01*
X158580000Y-58060000D02*
X157380000Y-58060000D01*
%TO.C,D4*%
X118920000Y-75162500D02*
X118920000Y-77122500D01*
X120120000Y-75162500D02*
X120120000Y-77122500D01*
X120120000Y-77122500D02*
X118920000Y-77122500D01*
%TD*%
M02*
