%TF.GenerationSoftware,KiCad,Pcbnew,9.0.6*%
%TF.CreationDate,2025-12-08T11:04:53+13:00*%
%TF.ProjectId,hacropad,68616372-6f70-4616-942e-6b696361645f,rev?*%
%TF.SameCoordinates,Original*%
%TF.FileFunction,Plated,1,2,PTH,Drill*%
%TF.FilePolarity,Positive*%
%FSLAX46Y46*%
G04 Gerber Fmt 4.6, Leading zero omitted, Abs format (unit mm)*
G04 Created by KiCad (PCBNEW 9.0.6) date 2025-12-08 11:04:53*
%MOMM*%
%LPD*%
G01*
G04 APERTURE LIST*
%TA.AperFunction,ViaDrill*%
%ADD10C,0.300000*%
%TD*%
%TA.AperFunction,ComponentDrill*%
%ADD11C,0.889000*%
%TD*%
%TA.AperFunction,ComponentDrill*%
%ADD12C,1.500000*%
%TD*%
G04 APERTURE END LIST*
D10*
X117000000Y-95540000D03*
X119500000Y-78100000D03*
X119540000Y-59800000D03*
X134740000Y-95530000D03*
X138680000Y-59800000D03*
X138720000Y-78080000D03*
X157825000Y-78105000D03*
X157850000Y-59800000D03*
X159105000Y-34105000D03*
X181170000Y-34080000D03*
D11*
%TO.C,U1*%
X139840000Y-26468500D03*
X139840000Y-29008500D03*
X139840000Y-31548500D03*
X139840000Y-34088500D03*
X139840000Y-36628500D03*
X139840000Y-39168500D03*
X139840000Y-41708500D03*
X155080000Y-26468500D03*
X155080000Y-29008500D03*
X155080000Y-31548500D03*
X155080000Y-34088500D03*
X155080000Y-36628500D03*
X155080000Y-39168500D03*
X155080000Y-41708500D03*
D12*
%TO.C,SW1*%
X124320000Y-51620000D03*
%TO.C,SW4*%
X124320000Y-70820000D03*
%TO.C,SW8*%
X124320000Y-109210000D03*
%TO.C,SW1*%
X130670000Y-49080000D03*
%TO.C,SW4*%
X130670000Y-68280000D03*
%TO.C,SW8*%
X130670000Y-106670000D03*
%TO.C,SW2*%
X143520000Y-51620000D03*
%TO.C,SW5*%
X143520000Y-70820000D03*
%TO.C,SW7*%
X143520000Y-90020000D03*
%TO.C,SW9*%
X143520000Y-109210000D03*
%TO.C,SW2*%
X149870000Y-49080000D03*
%TO.C,SW5*%
X149870000Y-68280000D03*
%TO.C,SW7*%
X149870000Y-87480000D03*
%TO.C,SW9*%
X149870000Y-106670000D03*
%TO.C,SW3*%
X162720000Y-51620000D03*
%TO.C,SW6*%
X162720000Y-70820000D03*
%TO.C,SW10*%
X162720000Y-109210000D03*
%TO.C,SW3*%
X169070000Y-49080000D03*
%TO.C,SW6*%
X169070000Y-68280000D03*
%TO.C,SW10*%
X169070000Y-106670000D03*
M02*
