%TF.GenerationSoftware,KiCad,Pcbnew,9.0.6*%
%TF.CreationDate,2025-12-08T11:04:57+13:00*%
%TF.ProjectId,hacropad,68616372-6f70-4616-942e-6b696361645f,rev?*%
%TF.SameCoordinates,Original*%
%TF.FileFunction,Legend,Top*%
%TF.FilePolarity,Positive*%
%FSLAX46Y46*%
G04 Gerber Fmt 4.6, Leading zero omitted, Abs format (unit mm)*
G04 Created by KiCad (PCBNEW 9.0.6) date 2025-12-08 11:04:57*
%MOMM*%
%LPD*%
G01*
G04 APERTURE LIST*
%ADD10C,0.150000*%
%ADD11C,0.101600*%
%ADD12C,0.120000*%
%ADD13C,0.127000*%
%ADD14C,0.100000*%
%ADD15C,0.504000*%
G04 APERTURE END LIST*
D10*
X135254819Y-47014285D02*
X134254819Y-47014285D01*
X134254819Y-47014285D02*
X134254819Y-46776190D01*
X134254819Y-46776190D02*
X134302438Y-46633333D01*
X134302438Y-46633333D02*
X134397676Y-46538095D01*
X134397676Y-46538095D02*
X134492914Y-46490476D01*
X134492914Y-46490476D02*
X134683390Y-46442857D01*
X134683390Y-46442857D02*
X134826247Y-46442857D01*
X134826247Y-46442857D02*
X135016723Y-46490476D01*
X135016723Y-46490476D02*
X135111961Y-46538095D01*
X135111961Y-46538095D02*
X135207200Y-46633333D01*
X135207200Y-46633333D02*
X135254819Y-46776190D01*
X135254819Y-46776190D02*
X135254819Y-47014285D01*
X135254819Y-45490476D02*
X135254819Y-46061904D01*
X135254819Y-45776190D02*
X134254819Y-45776190D01*
X134254819Y-45776190D02*
X134397676Y-45871428D01*
X134397676Y-45871428D02*
X134492914Y-45966666D01*
X134492914Y-45966666D02*
X134540533Y-46061904D01*
X134254819Y-45157142D02*
X134254819Y-44538095D01*
X134254819Y-44538095D02*
X134635771Y-44871428D01*
X134635771Y-44871428D02*
X134635771Y-44728571D01*
X134635771Y-44728571D02*
X134683390Y-44633333D01*
X134683390Y-44633333D02*
X134731009Y-44585714D01*
X134731009Y-44585714D02*
X134826247Y-44538095D01*
X134826247Y-44538095D02*
X135064342Y-44538095D01*
X135064342Y-44538095D02*
X135159580Y-44585714D01*
X135159580Y-44585714D02*
X135207200Y-44633333D01*
X135207200Y-44633333D02*
X135254819Y-44728571D01*
X135254819Y-44728571D02*
X135254819Y-45014285D01*
X135254819Y-45014285D02*
X135207200Y-45109523D01*
X135207200Y-45109523D02*
X135159580Y-45157142D01*
X137082295Y-50561428D02*
X137082295Y-51018571D01*
X137082295Y-50789999D02*
X136282295Y-50789999D01*
X136282295Y-50789999D02*
X136396580Y-50866190D01*
X136396580Y-50866190D02*
X136472771Y-50942380D01*
X136472771Y-50942380D02*
X136510866Y-51018571D01*
X164720476Y-104283200D02*
X164863333Y-104330819D01*
X164863333Y-104330819D02*
X165101428Y-104330819D01*
X165101428Y-104330819D02*
X165196666Y-104283200D01*
X165196666Y-104283200D02*
X165244285Y-104235580D01*
X165244285Y-104235580D02*
X165291904Y-104140342D01*
X165291904Y-104140342D02*
X165291904Y-104045104D01*
X165291904Y-104045104D02*
X165244285Y-103949866D01*
X165244285Y-103949866D02*
X165196666Y-103902247D01*
X165196666Y-103902247D02*
X165101428Y-103854628D01*
X165101428Y-103854628D02*
X164910952Y-103807009D01*
X164910952Y-103807009D02*
X164815714Y-103759390D01*
X164815714Y-103759390D02*
X164768095Y-103711771D01*
X164768095Y-103711771D02*
X164720476Y-103616533D01*
X164720476Y-103616533D02*
X164720476Y-103521295D01*
X164720476Y-103521295D02*
X164768095Y-103426057D01*
X164768095Y-103426057D02*
X164815714Y-103378438D01*
X164815714Y-103378438D02*
X164910952Y-103330819D01*
X164910952Y-103330819D02*
X165149047Y-103330819D01*
X165149047Y-103330819D02*
X165291904Y-103378438D01*
X165625238Y-103330819D02*
X165863333Y-104330819D01*
X165863333Y-104330819D02*
X166053809Y-103616533D01*
X166053809Y-103616533D02*
X166244285Y-104330819D01*
X166244285Y-104330819D02*
X166482381Y-103330819D01*
X167387142Y-104330819D02*
X166815714Y-104330819D01*
X167101428Y-104330819D02*
X167101428Y-103330819D01*
X167101428Y-103330819D02*
X167006190Y-103473676D01*
X167006190Y-103473676D02*
X166910952Y-103568914D01*
X166910952Y-103568914D02*
X166815714Y-103616533D01*
X168006190Y-103330819D02*
X168101428Y-103330819D01*
X168101428Y-103330819D02*
X168196666Y-103378438D01*
X168196666Y-103378438D02*
X168244285Y-103426057D01*
X168244285Y-103426057D02*
X168291904Y-103521295D01*
X168291904Y-103521295D02*
X168339523Y-103711771D01*
X168339523Y-103711771D02*
X168339523Y-103949866D01*
X168339523Y-103949866D02*
X168291904Y-104140342D01*
X168291904Y-104140342D02*
X168244285Y-104235580D01*
X168244285Y-104235580D02*
X168196666Y-104283200D01*
X168196666Y-104283200D02*
X168101428Y-104330819D01*
X168101428Y-104330819D02*
X168006190Y-104330819D01*
X168006190Y-104330819D02*
X167910952Y-104283200D01*
X167910952Y-104283200D02*
X167863333Y-104235580D01*
X167863333Y-104235580D02*
X167815714Y-104140342D01*
X167815714Y-104140342D02*
X167768095Y-103949866D01*
X167768095Y-103949866D02*
X167768095Y-103711771D01*
X167768095Y-103711771D02*
X167815714Y-103521295D01*
X167815714Y-103521295D02*
X167863333Y-103426057D01*
X167863333Y-103426057D02*
X167910952Y-103378438D01*
X167910952Y-103378438D02*
X168006190Y-103330819D01*
X126796667Y-104283200D02*
X126939524Y-104330819D01*
X126939524Y-104330819D02*
X127177619Y-104330819D01*
X127177619Y-104330819D02*
X127272857Y-104283200D01*
X127272857Y-104283200D02*
X127320476Y-104235580D01*
X127320476Y-104235580D02*
X127368095Y-104140342D01*
X127368095Y-104140342D02*
X127368095Y-104045104D01*
X127368095Y-104045104D02*
X127320476Y-103949866D01*
X127320476Y-103949866D02*
X127272857Y-103902247D01*
X127272857Y-103902247D02*
X127177619Y-103854628D01*
X127177619Y-103854628D02*
X126987143Y-103807009D01*
X126987143Y-103807009D02*
X126891905Y-103759390D01*
X126891905Y-103759390D02*
X126844286Y-103711771D01*
X126844286Y-103711771D02*
X126796667Y-103616533D01*
X126796667Y-103616533D02*
X126796667Y-103521295D01*
X126796667Y-103521295D02*
X126844286Y-103426057D01*
X126844286Y-103426057D02*
X126891905Y-103378438D01*
X126891905Y-103378438D02*
X126987143Y-103330819D01*
X126987143Y-103330819D02*
X127225238Y-103330819D01*
X127225238Y-103330819D02*
X127368095Y-103378438D01*
X127701429Y-103330819D02*
X127939524Y-104330819D01*
X127939524Y-104330819D02*
X128130000Y-103616533D01*
X128130000Y-103616533D02*
X128320476Y-104330819D01*
X128320476Y-104330819D02*
X128558572Y-103330819D01*
X129082381Y-103759390D02*
X128987143Y-103711771D01*
X128987143Y-103711771D02*
X128939524Y-103664152D01*
X128939524Y-103664152D02*
X128891905Y-103568914D01*
X128891905Y-103568914D02*
X128891905Y-103521295D01*
X128891905Y-103521295D02*
X128939524Y-103426057D01*
X128939524Y-103426057D02*
X128987143Y-103378438D01*
X128987143Y-103378438D02*
X129082381Y-103330819D01*
X129082381Y-103330819D02*
X129272857Y-103330819D01*
X129272857Y-103330819D02*
X129368095Y-103378438D01*
X129368095Y-103378438D02*
X129415714Y-103426057D01*
X129415714Y-103426057D02*
X129463333Y-103521295D01*
X129463333Y-103521295D02*
X129463333Y-103568914D01*
X129463333Y-103568914D02*
X129415714Y-103664152D01*
X129415714Y-103664152D02*
X129368095Y-103711771D01*
X129368095Y-103711771D02*
X129272857Y-103759390D01*
X129272857Y-103759390D02*
X129082381Y-103759390D01*
X129082381Y-103759390D02*
X128987143Y-103807009D01*
X128987143Y-103807009D02*
X128939524Y-103854628D01*
X128939524Y-103854628D02*
X128891905Y-103949866D01*
X128891905Y-103949866D02*
X128891905Y-104140342D01*
X128891905Y-104140342D02*
X128939524Y-104235580D01*
X128939524Y-104235580D02*
X128987143Y-104283200D01*
X128987143Y-104283200D02*
X129082381Y-104330819D01*
X129082381Y-104330819D02*
X129272857Y-104330819D01*
X129272857Y-104330819D02*
X129368095Y-104283200D01*
X129368095Y-104283200D02*
X129415714Y-104235580D01*
X129415714Y-104235580D02*
X129463333Y-104140342D01*
X129463333Y-104140342D02*
X129463333Y-103949866D01*
X129463333Y-103949866D02*
X129415714Y-103854628D01*
X129415714Y-103854628D02*
X129368095Y-103807009D01*
X129368095Y-103807009D02*
X129272857Y-103759390D01*
X165196667Y-65893200D02*
X165339524Y-65940819D01*
X165339524Y-65940819D02*
X165577619Y-65940819D01*
X165577619Y-65940819D02*
X165672857Y-65893200D01*
X165672857Y-65893200D02*
X165720476Y-65845580D01*
X165720476Y-65845580D02*
X165768095Y-65750342D01*
X165768095Y-65750342D02*
X165768095Y-65655104D01*
X165768095Y-65655104D02*
X165720476Y-65559866D01*
X165720476Y-65559866D02*
X165672857Y-65512247D01*
X165672857Y-65512247D02*
X165577619Y-65464628D01*
X165577619Y-65464628D02*
X165387143Y-65417009D01*
X165387143Y-65417009D02*
X165291905Y-65369390D01*
X165291905Y-65369390D02*
X165244286Y-65321771D01*
X165244286Y-65321771D02*
X165196667Y-65226533D01*
X165196667Y-65226533D02*
X165196667Y-65131295D01*
X165196667Y-65131295D02*
X165244286Y-65036057D01*
X165244286Y-65036057D02*
X165291905Y-64988438D01*
X165291905Y-64988438D02*
X165387143Y-64940819D01*
X165387143Y-64940819D02*
X165625238Y-64940819D01*
X165625238Y-64940819D02*
X165768095Y-64988438D01*
X166101429Y-64940819D02*
X166339524Y-65940819D01*
X166339524Y-65940819D02*
X166530000Y-65226533D01*
X166530000Y-65226533D02*
X166720476Y-65940819D01*
X166720476Y-65940819D02*
X166958572Y-64940819D01*
X167768095Y-64940819D02*
X167577619Y-64940819D01*
X167577619Y-64940819D02*
X167482381Y-64988438D01*
X167482381Y-64988438D02*
X167434762Y-65036057D01*
X167434762Y-65036057D02*
X167339524Y-65178914D01*
X167339524Y-65178914D02*
X167291905Y-65369390D01*
X167291905Y-65369390D02*
X167291905Y-65750342D01*
X167291905Y-65750342D02*
X167339524Y-65845580D01*
X167339524Y-65845580D02*
X167387143Y-65893200D01*
X167387143Y-65893200D02*
X167482381Y-65940819D01*
X167482381Y-65940819D02*
X167672857Y-65940819D01*
X167672857Y-65940819D02*
X167768095Y-65893200D01*
X167768095Y-65893200D02*
X167815714Y-65845580D01*
X167815714Y-65845580D02*
X167863333Y-65750342D01*
X167863333Y-65750342D02*
X167863333Y-65512247D01*
X167863333Y-65512247D02*
X167815714Y-65417009D01*
X167815714Y-65417009D02*
X167768095Y-65369390D01*
X167768095Y-65369390D02*
X167672857Y-65321771D01*
X167672857Y-65321771D02*
X167482381Y-65321771D01*
X167482381Y-65321771D02*
X167387143Y-65369390D01*
X167387143Y-65369390D02*
X167339524Y-65417009D01*
X167339524Y-65417009D02*
X167291905Y-65512247D01*
X126796667Y-46693200D02*
X126939524Y-46740819D01*
X126939524Y-46740819D02*
X127177619Y-46740819D01*
X127177619Y-46740819D02*
X127272857Y-46693200D01*
X127272857Y-46693200D02*
X127320476Y-46645580D01*
X127320476Y-46645580D02*
X127368095Y-46550342D01*
X127368095Y-46550342D02*
X127368095Y-46455104D01*
X127368095Y-46455104D02*
X127320476Y-46359866D01*
X127320476Y-46359866D02*
X127272857Y-46312247D01*
X127272857Y-46312247D02*
X127177619Y-46264628D01*
X127177619Y-46264628D02*
X126987143Y-46217009D01*
X126987143Y-46217009D02*
X126891905Y-46169390D01*
X126891905Y-46169390D02*
X126844286Y-46121771D01*
X126844286Y-46121771D02*
X126796667Y-46026533D01*
X126796667Y-46026533D02*
X126796667Y-45931295D01*
X126796667Y-45931295D02*
X126844286Y-45836057D01*
X126844286Y-45836057D02*
X126891905Y-45788438D01*
X126891905Y-45788438D02*
X126987143Y-45740819D01*
X126987143Y-45740819D02*
X127225238Y-45740819D01*
X127225238Y-45740819D02*
X127368095Y-45788438D01*
X127701429Y-45740819D02*
X127939524Y-46740819D01*
X127939524Y-46740819D02*
X128130000Y-46026533D01*
X128130000Y-46026533D02*
X128320476Y-46740819D01*
X128320476Y-46740819D02*
X128558572Y-45740819D01*
X129463333Y-46740819D02*
X128891905Y-46740819D01*
X129177619Y-46740819D02*
X129177619Y-45740819D01*
X129177619Y-45740819D02*
X129082381Y-45883676D01*
X129082381Y-45883676D02*
X128987143Y-45978914D01*
X128987143Y-45978914D02*
X128891905Y-46026533D01*
X145996667Y-104283200D02*
X146139524Y-104330819D01*
X146139524Y-104330819D02*
X146377619Y-104330819D01*
X146377619Y-104330819D02*
X146472857Y-104283200D01*
X146472857Y-104283200D02*
X146520476Y-104235580D01*
X146520476Y-104235580D02*
X146568095Y-104140342D01*
X146568095Y-104140342D02*
X146568095Y-104045104D01*
X146568095Y-104045104D02*
X146520476Y-103949866D01*
X146520476Y-103949866D02*
X146472857Y-103902247D01*
X146472857Y-103902247D02*
X146377619Y-103854628D01*
X146377619Y-103854628D02*
X146187143Y-103807009D01*
X146187143Y-103807009D02*
X146091905Y-103759390D01*
X146091905Y-103759390D02*
X146044286Y-103711771D01*
X146044286Y-103711771D02*
X145996667Y-103616533D01*
X145996667Y-103616533D02*
X145996667Y-103521295D01*
X145996667Y-103521295D02*
X146044286Y-103426057D01*
X146044286Y-103426057D02*
X146091905Y-103378438D01*
X146091905Y-103378438D02*
X146187143Y-103330819D01*
X146187143Y-103330819D02*
X146425238Y-103330819D01*
X146425238Y-103330819D02*
X146568095Y-103378438D01*
X146901429Y-103330819D02*
X147139524Y-104330819D01*
X147139524Y-104330819D02*
X147330000Y-103616533D01*
X147330000Y-103616533D02*
X147520476Y-104330819D01*
X147520476Y-104330819D02*
X147758572Y-103330819D01*
X148187143Y-104330819D02*
X148377619Y-104330819D01*
X148377619Y-104330819D02*
X148472857Y-104283200D01*
X148472857Y-104283200D02*
X148520476Y-104235580D01*
X148520476Y-104235580D02*
X148615714Y-104092723D01*
X148615714Y-104092723D02*
X148663333Y-103902247D01*
X148663333Y-103902247D02*
X148663333Y-103521295D01*
X148663333Y-103521295D02*
X148615714Y-103426057D01*
X148615714Y-103426057D02*
X148568095Y-103378438D01*
X148568095Y-103378438D02*
X148472857Y-103330819D01*
X148472857Y-103330819D02*
X148282381Y-103330819D01*
X148282381Y-103330819D02*
X148187143Y-103378438D01*
X148187143Y-103378438D02*
X148139524Y-103426057D01*
X148139524Y-103426057D02*
X148091905Y-103521295D01*
X148091905Y-103521295D02*
X148091905Y-103759390D01*
X148091905Y-103759390D02*
X148139524Y-103854628D01*
X148139524Y-103854628D02*
X148187143Y-103902247D01*
X148187143Y-103902247D02*
X148282381Y-103949866D01*
X148282381Y-103949866D02*
X148472857Y-103949866D01*
X148472857Y-103949866D02*
X148568095Y-103902247D01*
X148568095Y-103902247D02*
X148615714Y-103854628D01*
X148615714Y-103854628D02*
X148663333Y-103759390D01*
X174169819Y-47394285D02*
X173169819Y-47394285D01*
X173169819Y-47394285D02*
X173169819Y-47156190D01*
X173169819Y-47156190D02*
X173217438Y-47013333D01*
X173217438Y-47013333D02*
X173312676Y-46918095D01*
X173312676Y-46918095D02*
X173407914Y-46870476D01*
X173407914Y-46870476D02*
X173598390Y-46822857D01*
X173598390Y-46822857D02*
X173741247Y-46822857D01*
X173741247Y-46822857D02*
X173931723Y-46870476D01*
X173931723Y-46870476D02*
X174026961Y-46918095D01*
X174026961Y-46918095D02*
X174122200Y-47013333D01*
X174122200Y-47013333D02*
X174169819Y-47156190D01*
X174169819Y-47156190D02*
X174169819Y-47394285D01*
X174169819Y-45870476D02*
X174169819Y-46441904D01*
X174169819Y-46156190D02*
X173169819Y-46156190D01*
X173169819Y-46156190D02*
X173312676Y-46251428D01*
X173312676Y-46251428D02*
X173407914Y-46346666D01*
X173407914Y-46346666D02*
X173455533Y-46441904D01*
X174169819Y-44918095D02*
X174169819Y-45489523D01*
X174169819Y-45203809D02*
X173169819Y-45203809D01*
X173169819Y-45203809D02*
X173312676Y-45299047D01*
X173312676Y-45299047D02*
X173407914Y-45394285D01*
X173407914Y-45394285D02*
X173455533Y-45489523D01*
X175952295Y-49151428D02*
X175952295Y-49608571D01*
X175952295Y-49379999D02*
X175152295Y-49379999D01*
X175152295Y-49379999D02*
X175266580Y-49456190D01*
X175266580Y-49456190D02*
X175342771Y-49532380D01*
X175342771Y-49532380D02*
X175380866Y-49608571D01*
X154279819Y-84474285D02*
X153279819Y-84474285D01*
X153279819Y-84474285D02*
X153279819Y-84236190D01*
X153279819Y-84236190D02*
X153327438Y-84093333D01*
X153327438Y-84093333D02*
X153422676Y-83998095D01*
X153422676Y-83998095D02*
X153517914Y-83950476D01*
X153517914Y-83950476D02*
X153708390Y-83902857D01*
X153708390Y-83902857D02*
X153851247Y-83902857D01*
X153851247Y-83902857D02*
X154041723Y-83950476D01*
X154041723Y-83950476D02*
X154136961Y-83998095D01*
X154136961Y-83998095D02*
X154232200Y-84093333D01*
X154232200Y-84093333D02*
X154279819Y-84236190D01*
X154279819Y-84236190D02*
X154279819Y-84474285D01*
X154279819Y-82950476D02*
X154279819Y-83521904D01*
X154279819Y-83236190D02*
X153279819Y-83236190D01*
X153279819Y-83236190D02*
X153422676Y-83331428D01*
X153422676Y-83331428D02*
X153517914Y-83426666D01*
X153517914Y-83426666D02*
X153565533Y-83521904D01*
X154279819Y-82474285D02*
X154279819Y-82283809D01*
X154279819Y-82283809D02*
X154232200Y-82188571D01*
X154232200Y-82188571D02*
X154184580Y-82140952D01*
X154184580Y-82140952D02*
X154041723Y-82045714D01*
X154041723Y-82045714D02*
X153851247Y-81998095D01*
X153851247Y-81998095D02*
X153470295Y-81998095D01*
X153470295Y-81998095D02*
X153375057Y-82045714D01*
X153375057Y-82045714D02*
X153327438Y-82093333D01*
X153327438Y-82093333D02*
X153279819Y-82188571D01*
X153279819Y-82188571D02*
X153279819Y-82379047D01*
X153279819Y-82379047D02*
X153327438Y-82474285D01*
X153327438Y-82474285D02*
X153375057Y-82521904D01*
X153375057Y-82521904D02*
X153470295Y-82569523D01*
X153470295Y-82569523D02*
X153708390Y-82569523D01*
X153708390Y-82569523D02*
X153803628Y-82521904D01*
X153803628Y-82521904D02*
X153851247Y-82474285D01*
X153851247Y-82474285D02*
X153898866Y-82379047D01*
X153898866Y-82379047D02*
X153898866Y-82188571D01*
X153898866Y-82188571D02*
X153851247Y-82093333D01*
X153851247Y-82093333D02*
X153803628Y-82045714D01*
X153803628Y-82045714D02*
X153708390Y-81998095D01*
X156062295Y-86231428D02*
X156062295Y-86688571D01*
X156062295Y-86459999D02*
X155262295Y-86459999D01*
X155262295Y-86459999D02*
X155376580Y-86536190D01*
X155376580Y-86536190D02*
X155452771Y-86612380D01*
X155452771Y-86612380D02*
X155490866Y-86688571D01*
X122029819Y-104354285D02*
X121029819Y-104354285D01*
X121029819Y-104354285D02*
X121029819Y-104116190D01*
X121029819Y-104116190D02*
X121077438Y-103973333D01*
X121077438Y-103973333D02*
X121172676Y-103878095D01*
X121172676Y-103878095D02*
X121267914Y-103830476D01*
X121267914Y-103830476D02*
X121458390Y-103782857D01*
X121458390Y-103782857D02*
X121601247Y-103782857D01*
X121601247Y-103782857D02*
X121791723Y-103830476D01*
X121791723Y-103830476D02*
X121886961Y-103878095D01*
X121886961Y-103878095D02*
X121982200Y-103973333D01*
X121982200Y-103973333D02*
X122029819Y-104116190D01*
X122029819Y-104116190D02*
X122029819Y-104354285D01*
X121125057Y-103401904D02*
X121077438Y-103354285D01*
X121077438Y-103354285D02*
X121029819Y-103259047D01*
X121029819Y-103259047D02*
X121029819Y-103020952D01*
X121029819Y-103020952D02*
X121077438Y-102925714D01*
X121077438Y-102925714D02*
X121125057Y-102878095D01*
X121125057Y-102878095D02*
X121220295Y-102830476D01*
X121220295Y-102830476D02*
X121315533Y-102830476D01*
X121315533Y-102830476D02*
X121458390Y-102878095D01*
X121458390Y-102878095D02*
X122029819Y-103449523D01*
X122029819Y-103449523D02*
X122029819Y-102830476D01*
X122029819Y-101878095D02*
X122029819Y-102449523D01*
X122029819Y-102163809D02*
X121029819Y-102163809D01*
X121029819Y-102163809D02*
X121172676Y-102259047D01*
X121172676Y-102259047D02*
X121267914Y-102354285D01*
X121267914Y-102354285D02*
X121315533Y-102449523D01*
X119337704Y-100168571D02*
X119337704Y-99711428D01*
X119337704Y-99940000D02*
X120137704Y-99940000D01*
X120137704Y-99940000D02*
X120023419Y-99863809D01*
X120023419Y-99863809D02*
X119947228Y-99787619D01*
X119947228Y-99787619D02*
X119909133Y-99711428D01*
X121909819Y-65054285D02*
X120909819Y-65054285D01*
X120909819Y-65054285D02*
X120909819Y-64816190D01*
X120909819Y-64816190D02*
X120957438Y-64673333D01*
X120957438Y-64673333D02*
X121052676Y-64578095D01*
X121052676Y-64578095D02*
X121147914Y-64530476D01*
X121147914Y-64530476D02*
X121338390Y-64482857D01*
X121338390Y-64482857D02*
X121481247Y-64482857D01*
X121481247Y-64482857D02*
X121671723Y-64530476D01*
X121671723Y-64530476D02*
X121766961Y-64578095D01*
X121766961Y-64578095D02*
X121862200Y-64673333D01*
X121862200Y-64673333D02*
X121909819Y-64816190D01*
X121909819Y-64816190D02*
X121909819Y-65054285D01*
X121909819Y-63530476D02*
X121909819Y-64101904D01*
X121909819Y-63816190D02*
X120909819Y-63816190D01*
X120909819Y-63816190D02*
X121052676Y-63911428D01*
X121052676Y-63911428D02*
X121147914Y-64006666D01*
X121147914Y-64006666D02*
X121195533Y-64101904D01*
X120909819Y-62625714D02*
X120909819Y-63101904D01*
X120909819Y-63101904D02*
X121386009Y-63149523D01*
X121386009Y-63149523D02*
X121338390Y-63101904D01*
X121338390Y-63101904D02*
X121290771Y-63006666D01*
X121290771Y-63006666D02*
X121290771Y-62768571D01*
X121290771Y-62768571D02*
X121338390Y-62673333D01*
X121338390Y-62673333D02*
X121386009Y-62625714D01*
X121386009Y-62625714D02*
X121481247Y-62578095D01*
X121481247Y-62578095D02*
X121719342Y-62578095D01*
X121719342Y-62578095D02*
X121814580Y-62625714D01*
X121814580Y-62625714D02*
X121862200Y-62673333D01*
X121862200Y-62673333D02*
X121909819Y-62768571D01*
X121909819Y-62768571D02*
X121909819Y-63006666D01*
X121909819Y-63006666D02*
X121862200Y-63101904D01*
X121862200Y-63101904D02*
X121814580Y-63149523D01*
X119217704Y-60868571D02*
X119217704Y-60411428D01*
X119217704Y-60640000D02*
X120017704Y-60640000D01*
X120017704Y-60640000D02*
X119903419Y-60563809D01*
X119903419Y-60563809D02*
X119827228Y-60487619D01*
X119827228Y-60487619D02*
X119789133Y-60411428D01*
X154909819Y-48854285D02*
X153909819Y-48854285D01*
X153909819Y-48854285D02*
X153909819Y-48616190D01*
X153909819Y-48616190D02*
X153957438Y-48473333D01*
X153957438Y-48473333D02*
X154052676Y-48378095D01*
X154052676Y-48378095D02*
X154147914Y-48330476D01*
X154147914Y-48330476D02*
X154338390Y-48282857D01*
X154338390Y-48282857D02*
X154481247Y-48282857D01*
X154481247Y-48282857D02*
X154671723Y-48330476D01*
X154671723Y-48330476D02*
X154766961Y-48378095D01*
X154766961Y-48378095D02*
X154862200Y-48473333D01*
X154862200Y-48473333D02*
X154909819Y-48616190D01*
X154909819Y-48616190D02*
X154909819Y-48854285D01*
X154909819Y-47330476D02*
X154909819Y-47901904D01*
X154909819Y-47616190D02*
X153909819Y-47616190D01*
X153909819Y-47616190D02*
X154052676Y-47711428D01*
X154052676Y-47711428D02*
X154147914Y-47806666D01*
X154147914Y-47806666D02*
X154195533Y-47901904D01*
X154005057Y-46949523D02*
X153957438Y-46901904D01*
X153957438Y-46901904D02*
X153909819Y-46806666D01*
X153909819Y-46806666D02*
X153909819Y-46568571D01*
X153909819Y-46568571D02*
X153957438Y-46473333D01*
X153957438Y-46473333D02*
X154005057Y-46425714D01*
X154005057Y-46425714D02*
X154100295Y-46378095D01*
X154100295Y-46378095D02*
X154195533Y-46378095D01*
X154195533Y-46378095D02*
X154338390Y-46425714D01*
X154338390Y-46425714D02*
X154909819Y-46997142D01*
X154909819Y-46997142D02*
X154909819Y-46378095D01*
X156692295Y-50611428D02*
X156692295Y-51068571D01*
X156692295Y-50839999D02*
X155892295Y-50839999D01*
X155892295Y-50839999D02*
X156006580Y-50916190D01*
X156006580Y-50916190D02*
X156082771Y-50992380D01*
X156082771Y-50992380D02*
X156120866Y-51068571D01*
X126796667Y-65893200D02*
X126939524Y-65940819D01*
X126939524Y-65940819D02*
X127177619Y-65940819D01*
X127177619Y-65940819D02*
X127272857Y-65893200D01*
X127272857Y-65893200D02*
X127320476Y-65845580D01*
X127320476Y-65845580D02*
X127368095Y-65750342D01*
X127368095Y-65750342D02*
X127368095Y-65655104D01*
X127368095Y-65655104D02*
X127320476Y-65559866D01*
X127320476Y-65559866D02*
X127272857Y-65512247D01*
X127272857Y-65512247D02*
X127177619Y-65464628D01*
X127177619Y-65464628D02*
X126987143Y-65417009D01*
X126987143Y-65417009D02*
X126891905Y-65369390D01*
X126891905Y-65369390D02*
X126844286Y-65321771D01*
X126844286Y-65321771D02*
X126796667Y-65226533D01*
X126796667Y-65226533D02*
X126796667Y-65131295D01*
X126796667Y-65131295D02*
X126844286Y-65036057D01*
X126844286Y-65036057D02*
X126891905Y-64988438D01*
X126891905Y-64988438D02*
X126987143Y-64940819D01*
X126987143Y-64940819D02*
X127225238Y-64940819D01*
X127225238Y-64940819D02*
X127368095Y-64988438D01*
X127701429Y-64940819D02*
X127939524Y-65940819D01*
X127939524Y-65940819D02*
X128130000Y-65226533D01*
X128130000Y-65226533D02*
X128320476Y-65940819D01*
X128320476Y-65940819D02*
X128558572Y-64940819D01*
X129368095Y-65274152D02*
X129368095Y-65940819D01*
X129130000Y-64893200D02*
X128891905Y-65607485D01*
X128891905Y-65607485D02*
X129510952Y-65607485D01*
D11*
X140916190Y-24453479D02*
X140916190Y-24967526D01*
X140916190Y-24967526D02*
X140946428Y-25028002D01*
X140946428Y-25028002D02*
X140976666Y-25058241D01*
X140976666Y-25058241D02*
X141037142Y-25088479D01*
X141037142Y-25088479D02*
X141158095Y-25088479D01*
X141158095Y-25088479D02*
X141218571Y-25058241D01*
X141218571Y-25058241D02*
X141248809Y-25028002D01*
X141248809Y-25028002D02*
X141279047Y-24967526D01*
X141279047Y-24967526D02*
X141279047Y-24453479D01*
X141914047Y-25088479D02*
X141551190Y-25088479D01*
X141732618Y-25088479D02*
X141732618Y-24453479D01*
X141732618Y-24453479D02*
X141672142Y-24544193D01*
X141672142Y-24544193D02*
X141611666Y-24604669D01*
X141611666Y-24604669D02*
X141551190Y-24634907D01*
D10*
X179069819Y-65684285D02*
X178069819Y-65684285D01*
X178069819Y-65684285D02*
X178069819Y-65446190D01*
X178069819Y-65446190D02*
X178117438Y-65303333D01*
X178117438Y-65303333D02*
X178212676Y-65208095D01*
X178212676Y-65208095D02*
X178307914Y-65160476D01*
X178307914Y-65160476D02*
X178498390Y-65112857D01*
X178498390Y-65112857D02*
X178641247Y-65112857D01*
X178641247Y-65112857D02*
X178831723Y-65160476D01*
X178831723Y-65160476D02*
X178926961Y-65208095D01*
X178926961Y-65208095D02*
X179022200Y-65303333D01*
X179022200Y-65303333D02*
X179069819Y-65446190D01*
X179069819Y-65446190D02*
X179069819Y-65684285D01*
X179069819Y-64160476D02*
X179069819Y-64731904D01*
X179069819Y-64446190D02*
X178069819Y-64446190D01*
X178069819Y-64446190D02*
X178212676Y-64541428D01*
X178212676Y-64541428D02*
X178307914Y-64636666D01*
X178307914Y-64636666D02*
X178355533Y-64731904D01*
X178498390Y-63589047D02*
X178450771Y-63684285D01*
X178450771Y-63684285D02*
X178403152Y-63731904D01*
X178403152Y-63731904D02*
X178307914Y-63779523D01*
X178307914Y-63779523D02*
X178260295Y-63779523D01*
X178260295Y-63779523D02*
X178165057Y-63731904D01*
X178165057Y-63731904D02*
X178117438Y-63684285D01*
X178117438Y-63684285D02*
X178069819Y-63589047D01*
X178069819Y-63589047D02*
X178069819Y-63398571D01*
X178069819Y-63398571D02*
X178117438Y-63303333D01*
X178117438Y-63303333D02*
X178165057Y-63255714D01*
X178165057Y-63255714D02*
X178260295Y-63208095D01*
X178260295Y-63208095D02*
X178307914Y-63208095D01*
X178307914Y-63208095D02*
X178403152Y-63255714D01*
X178403152Y-63255714D02*
X178450771Y-63303333D01*
X178450771Y-63303333D02*
X178498390Y-63398571D01*
X178498390Y-63398571D02*
X178498390Y-63589047D01*
X178498390Y-63589047D02*
X178546009Y-63684285D01*
X178546009Y-63684285D02*
X178593628Y-63731904D01*
X178593628Y-63731904D02*
X178688866Y-63779523D01*
X178688866Y-63779523D02*
X178879342Y-63779523D01*
X178879342Y-63779523D02*
X178974580Y-63731904D01*
X178974580Y-63731904D02*
X179022200Y-63684285D01*
X179022200Y-63684285D02*
X179069819Y-63589047D01*
X179069819Y-63589047D02*
X179069819Y-63398571D01*
X179069819Y-63398571D02*
X179022200Y-63303333D01*
X179022200Y-63303333D02*
X178974580Y-63255714D01*
X178974580Y-63255714D02*
X178879342Y-63208095D01*
X178879342Y-63208095D02*
X178688866Y-63208095D01*
X178688866Y-63208095D02*
X178593628Y-63255714D01*
X178593628Y-63255714D02*
X178546009Y-63303333D01*
X178546009Y-63303333D02*
X178498390Y-63398571D01*
X176377704Y-61498571D02*
X176377704Y-61041428D01*
X176377704Y-61270000D02*
X177177704Y-61270000D01*
X177177704Y-61270000D02*
X177063419Y-61193809D01*
X177063419Y-61193809D02*
X176987228Y-61117619D01*
X176987228Y-61117619D02*
X176949133Y-61041428D01*
X145996667Y-46693200D02*
X146139524Y-46740819D01*
X146139524Y-46740819D02*
X146377619Y-46740819D01*
X146377619Y-46740819D02*
X146472857Y-46693200D01*
X146472857Y-46693200D02*
X146520476Y-46645580D01*
X146520476Y-46645580D02*
X146568095Y-46550342D01*
X146568095Y-46550342D02*
X146568095Y-46455104D01*
X146568095Y-46455104D02*
X146520476Y-46359866D01*
X146520476Y-46359866D02*
X146472857Y-46312247D01*
X146472857Y-46312247D02*
X146377619Y-46264628D01*
X146377619Y-46264628D02*
X146187143Y-46217009D01*
X146187143Y-46217009D02*
X146091905Y-46169390D01*
X146091905Y-46169390D02*
X146044286Y-46121771D01*
X146044286Y-46121771D02*
X145996667Y-46026533D01*
X145996667Y-46026533D02*
X145996667Y-45931295D01*
X145996667Y-45931295D02*
X146044286Y-45836057D01*
X146044286Y-45836057D02*
X146091905Y-45788438D01*
X146091905Y-45788438D02*
X146187143Y-45740819D01*
X146187143Y-45740819D02*
X146425238Y-45740819D01*
X146425238Y-45740819D02*
X146568095Y-45788438D01*
X146901429Y-45740819D02*
X147139524Y-46740819D01*
X147139524Y-46740819D02*
X147330000Y-46026533D01*
X147330000Y-46026533D02*
X147520476Y-46740819D01*
X147520476Y-46740819D02*
X147758572Y-45740819D01*
X148091905Y-45836057D02*
X148139524Y-45788438D01*
X148139524Y-45788438D02*
X148234762Y-45740819D01*
X148234762Y-45740819D02*
X148472857Y-45740819D01*
X148472857Y-45740819D02*
X148568095Y-45788438D01*
X148568095Y-45788438D02*
X148615714Y-45836057D01*
X148615714Y-45836057D02*
X148663333Y-45931295D01*
X148663333Y-45931295D02*
X148663333Y-46026533D01*
X148663333Y-46026533D02*
X148615714Y-46169390D01*
X148615714Y-46169390D02*
X148044286Y-46740819D01*
X148044286Y-46740819D02*
X148663333Y-46740819D01*
X179359819Y-103584285D02*
X178359819Y-103584285D01*
X178359819Y-103584285D02*
X178359819Y-103346190D01*
X178359819Y-103346190D02*
X178407438Y-103203333D01*
X178407438Y-103203333D02*
X178502676Y-103108095D01*
X178502676Y-103108095D02*
X178597914Y-103060476D01*
X178597914Y-103060476D02*
X178788390Y-103012857D01*
X178788390Y-103012857D02*
X178931247Y-103012857D01*
X178931247Y-103012857D02*
X179121723Y-103060476D01*
X179121723Y-103060476D02*
X179216961Y-103108095D01*
X179216961Y-103108095D02*
X179312200Y-103203333D01*
X179312200Y-103203333D02*
X179359819Y-103346190D01*
X179359819Y-103346190D02*
X179359819Y-103584285D01*
X178455057Y-102631904D02*
X178407438Y-102584285D01*
X178407438Y-102584285D02*
X178359819Y-102489047D01*
X178359819Y-102489047D02*
X178359819Y-102250952D01*
X178359819Y-102250952D02*
X178407438Y-102155714D01*
X178407438Y-102155714D02*
X178455057Y-102108095D01*
X178455057Y-102108095D02*
X178550295Y-102060476D01*
X178550295Y-102060476D02*
X178645533Y-102060476D01*
X178645533Y-102060476D02*
X178788390Y-102108095D01*
X178788390Y-102108095D02*
X179359819Y-102679523D01*
X179359819Y-102679523D02*
X179359819Y-102060476D01*
X178693152Y-101203333D02*
X179359819Y-101203333D01*
X178312200Y-101441428D02*
X179026485Y-101679523D01*
X179026485Y-101679523D02*
X179026485Y-101060476D01*
X176667704Y-99398571D02*
X176667704Y-98941428D01*
X176667704Y-99170000D02*
X177467704Y-99170000D01*
X177467704Y-99170000D02*
X177353419Y-99093809D01*
X177353419Y-99093809D02*
X177277228Y-99017619D01*
X177277228Y-99017619D02*
X177239133Y-98941428D01*
X165196667Y-46693200D02*
X165339524Y-46740819D01*
X165339524Y-46740819D02*
X165577619Y-46740819D01*
X165577619Y-46740819D02*
X165672857Y-46693200D01*
X165672857Y-46693200D02*
X165720476Y-46645580D01*
X165720476Y-46645580D02*
X165768095Y-46550342D01*
X165768095Y-46550342D02*
X165768095Y-46455104D01*
X165768095Y-46455104D02*
X165720476Y-46359866D01*
X165720476Y-46359866D02*
X165672857Y-46312247D01*
X165672857Y-46312247D02*
X165577619Y-46264628D01*
X165577619Y-46264628D02*
X165387143Y-46217009D01*
X165387143Y-46217009D02*
X165291905Y-46169390D01*
X165291905Y-46169390D02*
X165244286Y-46121771D01*
X165244286Y-46121771D02*
X165196667Y-46026533D01*
X165196667Y-46026533D02*
X165196667Y-45931295D01*
X165196667Y-45931295D02*
X165244286Y-45836057D01*
X165244286Y-45836057D02*
X165291905Y-45788438D01*
X165291905Y-45788438D02*
X165387143Y-45740819D01*
X165387143Y-45740819D02*
X165625238Y-45740819D01*
X165625238Y-45740819D02*
X165768095Y-45788438D01*
X166101429Y-45740819D02*
X166339524Y-46740819D01*
X166339524Y-46740819D02*
X166530000Y-46026533D01*
X166530000Y-46026533D02*
X166720476Y-46740819D01*
X166720476Y-46740819D02*
X166958572Y-45740819D01*
X167244286Y-45740819D02*
X167863333Y-45740819D01*
X167863333Y-45740819D02*
X167530000Y-46121771D01*
X167530000Y-46121771D02*
X167672857Y-46121771D01*
X167672857Y-46121771D02*
X167768095Y-46169390D01*
X167768095Y-46169390D02*
X167815714Y-46217009D01*
X167815714Y-46217009D02*
X167863333Y-46312247D01*
X167863333Y-46312247D02*
X167863333Y-46550342D01*
X167863333Y-46550342D02*
X167815714Y-46645580D01*
X167815714Y-46645580D02*
X167768095Y-46693200D01*
X167768095Y-46693200D02*
X167672857Y-46740819D01*
X167672857Y-46740819D02*
X167387143Y-46740819D01*
X167387143Y-46740819D02*
X167291905Y-46693200D01*
X167291905Y-46693200D02*
X167244286Y-46645580D01*
X145996667Y-65893200D02*
X146139524Y-65940819D01*
X146139524Y-65940819D02*
X146377619Y-65940819D01*
X146377619Y-65940819D02*
X146472857Y-65893200D01*
X146472857Y-65893200D02*
X146520476Y-65845580D01*
X146520476Y-65845580D02*
X146568095Y-65750342D01*
X146568095Y-65750342D02*
X146568095Y-65655104D01*
X146568095Y-65655104D02*
X146520476Y-65559866D01*
X146520476Y-65559866D02*
X146472857Y-65512247D01*
X146472857Y-65512247D02*
X146377619Y-65464628D01*
X146377619Y-65464628D02*
X146187143Y-65417009D01*
X146187143Y-65417009D02*
X146091905Y-65369390D01*
X146091905Y-65369390D02*
X146044286Y-65321771D01*
X146044286Y-65321771D02*
X145996667Y-65226533D01*
X145996667Y-65226533D02*
X145996667Y-65131295D01*
X145996667Y-65131295D02*
X146044286Y-65036057D01*
X146044286Y-65036057D02*
X146091905Y-64988438D01*
X146091905Y-64988438D02*
X146187143Y-64940819D01*
X146187143Y-64940819D02*
X146425238Y-64940819D01*
X146425238Y-64940819D02*
X146568095Y-64988438D01*
X146901429Y-64940819D02*
X147139524Y-65940819D01*
X147139524Y-65940819D02*
X147330000Y-65226533D01*
X147330000Y-65226533D02*
X147520476Y-65940819D01*
X147520476Y-65940819D02*
X147758572Y-64940819D01*
X148615714Y-64940819D02*
X148139524Y-64940819D01*
X148139524Y-64940819D02*
X148091905Y-65417009D01*
X148091905Y-65417009D02*
X148139524Y-65369390D01*
X148139524Y-65369390D02*
X148234762Y-65321771D01*
X148234762Y-65321771D02*
X148472857Y-65321771D01*
X148472857Y-65321771D02*
X148568095Y-65369390D01*
X148568095Y-65369390D02*
X148615714Y-65417009D01*
X148615714Y-65417009D02*
X148663333Y-65512247D01*
X148663333Y-65512247D02*
X148663333Y-65750342D01*
X148663333Y-65750342D02*
X148615714Y-65845580D01*
X148615714Y-65845580D02*
X148568095Y-65893200D01*
X148568095Y-65893200D02*
X148472857Y-65940819D01*
X148472857Y-65940819D02*
X148234762Y-65940819D01*
X148234762Y-65940819D02*
X148139524Y-65893200D01*
X148139524Y-65893200D02*
X148091905Y-65845580D01*
X140849819Y-103544285D02*
X139849819Y-103544285D01*
X139849819Y-103544285D02*
X139849819Y-103306190D01*
X139849819Y-103306190D02*
X139897438Y-103163333D01*
X139897438Y-103163333D02*
X139992676Y-103068095D01*
X139992676Y-103068095D02*
X140087914Y-103020476D01*
X140087914Y-103020476D02*
X140278390Y-102972857D01*
X140278390Y-102972857D02*
X140421247Y-102972857D01*
X140421247Y-102972857D02*
X140611723Y-103020476D01*
X140611723Y-103020476D02*
X140706961Y-103068095D01*
X140706961Y-103068095D02*
X140802200Y-103163333D01*
X140802200Y-103163333D02*
X140849819Y-103306190D01*
X140849819Y-103306190D02*
X140849819Y-103544285D01*
X139945057Y-102591904D02*
X139897438Y-102544285D01*
X139897438Y-102544285D02*
X139849819Y-102449047D01*
X139849819Y-102449047D02*
X139849819Y-102210952D01*
X139849819Y-102210952D02*
X139897438Y-102115714D01*
X139897438Y-102115714D02*
X139945057Y-102068095D01*
X139945057Y-102068095D02*
X140040295Y-102020476D01*
X140040295Y-102020476D02*
X140135533Y-102020476D01*
X140135533Y-102020476D02*
X140278390Y-102068095D01*
X140278390Y-102068095D02*
X140849819Y-102639523D01*
X140849819Y-102639523D02*
X140849819Y-102020476D01*
X139849819Y-101401428D02*
X139849819Y-101306190D01*
X139849819Y-101306190D02*
X139897438Y-101210952D01*
X139897438Y-101210952D02*
X139945057Y-101163333D01*
X139945057Y-101163333D02*
X140040295Y-101115714D01*
X140040295Y-101115714D02*
X140230771Y-101068095D01*
X140230771Y-101068095D02*
X140468866Y-101068095D01*
X140468866Y-101068095D02*
X140659342Y-101115714D01*
X140659342Y-101115714D02*
X140754580Y-101163333D01*
X140754580Y-101163333D02*
X140802200Y-101210952D01*
X140802200Y-101210952D02*
X140849819Y-101306190D01*
X140849819Y-101306190D02*
X140849819Y-101401428D01*
X140849819Y-101401428D02*
X140802200Y-101496666D01*
X140802200Y-101496666D02*
X140754580Y-101544285D01*
X140754580Y-101544285D02*
X140659342Y-101591904D01*
X140659342Y-101591904D02*
X140468866Y-101639523D01*
X140468866Y-101639523D02*
X140230771Y-101639523D01*
X140230771Y-101639523D02*
X140040295Y-101591904D01*
X140040295Y-101591904D02*
X139945057Y-101544285D01*
X139945057Y-101544285D02*
X139897438Y-101496666D01*
X139897438Y-101496666D02*
X139849819Y-101401428D01*
X138157704Y-99358571D02*
X138157704Y-98901428D01*
X138157704Y-99130000D02*
X138957704Y-99130000D01*
X138957704Y-99130000D02*
X138843419Y-99053809D01*
X138843419Y-99053809D02*
X138767228Y-98977619D01*
X138767228Y-98977619D02*
X138729133Y-98901428D01*
X135569819Y-84474285D02*
X134569819Y-84474285D01*
X134569819Y-84474285D02*
X134569819Y-84236190D01*
X134569819Y-84236190D02*
X134617438Y-84093333D01*
X134617438Y-84093333D02*
X134712676Y-83998095D01*
X134712676Y-83998095D02*
X134807914Y-83950476D01*
X134807914Y-83950476D02*
X134998390Y-83902857D01*
X134998390Y-83902857D02*
X135141247Y-83902857D01*
X135141247Y-83902857D02*
X135331723Y-83950476D01*
X135331723Y-83950476D02*
X135426961Y-83998095D01*
X135426961Y-83998095D02*
X135522200Y-84093333D01*
X135522200Y-84093333D02*
X135569819Y-84236190D01*
X135569819Y-84236190D02*
X135569819Y-84474285D01*
X134665057Y-83521904D02*
X134617438Y-83474285D01*
X134617438Y-83474285D02*
X134569819Y-83379047D01*
X134569819Y-83379047D02*
X134569819Y-83140952D01*
X134569819Y-83140952D02*
X134617438Y-83045714D01*
X134617438Y-83045714D02*
X134665057Y-82998095D01*
X134665057Y-82998095D02*
X134760295Y-82950476D01*
X134760295Y-82950476D02*
X134855533Y-82950476D01*
X134855533Y-82950476D02*
X134998390Y-82998095D01*
X134998390Y-82998095D02*
X135569819Y-83569523D01*
X135569819Y-83569523D02*
X135569819Y-82950476D01*
X134665057Y-82569523D02*
X134617438Y-82521904D01*
X134617438Y-82521904D02*
X134569819Y-82426666D01*
X134569819Y-82426666D02*
X134569819Y-82188571D01*
X134569819Y-82188571D02*
X134617438Y-82093333D01*
X134617438Y-82093333D02*
X134665057Y-82045714D01*
X134665057Y-82045714D02*
X134760295Y-81998095D01*
X134760295Y-81998095D02*
X134855533Y-81998095D01*
X134855533Y-81998095D02*
X134998390Y-82045714D01*
X134998390Y-82045714D02*
X135569819Y-82617142D01*
X135569819Y-82617142D02*
X135569819Y-81998095D01*
X137352295Y-86231428D02*
X137352295Y-86688571D01*
X137352295Y-86459999D02*
X136552295Y-86459999D01*
X136552295Y-86459999D02*
X136666580Y-86536190D01*
X136666580Y-86536190D02*
X136742771Y-86612380D01*
X136742771Y-86612380D02*
X136780866Y-86688571D01*
X160109819Y-65194285D02*
X159109819Y-65194285D01*
X159109819Y-65194285D02*
X159109819Y-64956190D01*
X159109819Y-64956190D02*
X159157438Y-64813333D01*
X159157438Y-64813333D02*
X159252676Y-64718095D01*
X159252676Y-64718095D02*
X159347914Y-64670476D01*
X159347914Y-64670476D02*
X159538390Y-64622857D01*
X159538390Y-64622857D02*
X159681247Y-64622857D01*
X159681247Y-64622857D02*
X159871723Y-64670476D01*
X159871723Y-64670476D02*
X159966961Y-64718095D01*
X159966961Y-64718095D02*
X160062200Y-64813333D01*
X160062200Y-64813333D02*
X160109819Y-64956190D01*
X160109819Y-64956190D02*
X160109819Y-65194285D01*
X160109819Y-63670476D02*
X160109819Y-64241904D01*
X160109819Y-63956190D02*
X159109819Y-63956190D01*
X159109819Y-63956190D02*
X159252676Y-64051428D01*
X159252676Y-64051428D02*
X159347914Y-64146666D01*
X159347914Y-64146666D02*
X159395533Y-64241904D01*
X159109819Y-63337142D02*
X159109819Y-62670476D01*
X159109819Y-62670476D02*
X160109819Y-63099047D01*
X157417704Y-61008571D02*
X157417704Y-60551428D01*
X157417704Y-60780000D02*
X158217704Y-60780000D01*
X158217704Y-60780000D02*
X158103419Y-60703809D01*
X158103419Y-60703809D02*
X158027228Y-60627619D01*
X158027228Y-60627619D02*
X157989133Y-60551428D01*
X140749819Y-65294285D02*
X139749819Y-65294285D01*
X139749819Y-65294285D02*
X139749819Y-65056190D01*
X139749819Y-65056190D02*
X139797438Y-64913333D01*
X139797438Y-64913333D02*
X139892676Y-64818095D01*
X139892676Y-64818095D02*
X139987914Y-64770476D01*
X139987914Y-64770476D02*
X140178390Y-64722857D01*
X140178390Y-64722857D02*
X140321247Y-64722857D01*
X140321247Y-64722857D02*
X140511723Y-64770476D01*
X140511723Y-64770476D02*
X140606961Y-64818095D01*
X140606961Y-64818095D02*
X140702200Y-64913333D01*
X140702200Y-64913333D02*
X140749819Y-65056190D01*
X140749819Y-65056190D02*
X140749819Y-65294285D01*
X140749819Y-63770476D02*
X140749819Y-64341904D01*
X140749819Y-64056190D02*
X139749819Y-64056190D01*
X139749819Y-64056190D02*
X139892676Y-64151428D01*
X139892676Y-64151428D02*
X139987914Y-64246666D01*
X139987914Y-64246666D02*
X140035533Y-64341904D01*
X139749819Y-62913333D02*
X139749819Y-63103809D01*
X139749819Y-63103809D02*
X139797438Y-63199047D01*
X139797438Y-63199047D02*
X139845057Y-63246666D01*
X139845057Y-63246666D02*
X139987914Y-63341904D01*
X139987914Y-63341904D02*
X140178390Y-63389523D01*
X140178390Y-63389523D02*
X140559342Y-63389523D01*
X140559342Y-63389523D02*
X140654580Y-63341904D01*
X140654580Y-63341904D02*
X140702200Y-63294285D01*
X140702200Y-63294285D02*
X140749819Y-63199047D01*
X140749819Y-63199047D02*
X140749819Y-63008571D01*
X140749819Y-63008571D02*
X140702200Y-62913333D01*
X140702200Y-62913333D02*
X140654580Y-62865714D01*
X140654580Y-62865714D02*
X140559342Y-62818095D01*
X140559342Y-62818095D02*
X140321247Y-62818095D01*
X140321247Y-62818095D02*
X140226009Y-62865714D01*
X140226009Y-62865714D02*
X140178390Y-62913333D01*
X140178390Y-62913333D02*
X140130771Y-63008571D01*
X140130771Y-63008571D02*
X140130771Y-63199047D01*
X140130771Y-63199047D02*
X140178390Y-63294285D01*
X140178390Y-63294285D02*
X140226009Y-63341904D01*
X140226009Y-63341904D02*
X140321247Y-63389523D01*
X138057704Y-61108571D02*
X138057704Y-60651428D01*
X138057704Y-60880000D02*
X138857704Y-60880000D01*
X138857704Y-60880000D02*
X138743419Y-60803809D01*
X138743419Y-60803809D02*
X138667228Y-60727619D01*
X138667228Y-60727619D02*
X138629133Y-60651428D01*
X116569819Y-46034285D02*
X115569819Y-46034285D01*
X115569819Y-46034285D02*
X115569819Y-45796190D01*
X115569819Y-45796190D02*
X115617438Y-45653333D01*
X115617438Y-45653333D02*
X115712676Y-45558095D01*
X115712676Y-45558095D02*
X115807914Y-45510476D01*
X115807914Y-45510476D02*
X115998390Y-45462857D01*
X115998390Y-45462857D02*
X116141247Y-45462857D01*
X116141247Y-45462857D02*
X116331723Y-45510476D01*
X116331723Y-45510476D02*
X116426961Y-45558095D01*
X116426961Y-45558095D02*
X116522200Y-45653333D01*
X116522200Y-45653333D02*
X116569819Y-45796190D01*
X116569819Y-45796190D02*
X116569819Y-46034285D01*
X116569819Y-44510476D02*
X116569819Y-45081904D01*
X116569819Y-44796190D02*
X115569819Y-44796190D01*
X115569819Y-44796190D02*
X115712676Y-44891428D01*
X115712676Y-44891428D02*
X115807914Y-44986666D01*
X115807914Y-44986666D02*
X115855533Y-45081904D01*
X115903152Y-43653333D02*
X116569819Y-43653333D01*
X115522200Y-43891428D02*
X116236485Y-44129523D01*
X116236485Y-44129523D02*
X116236485Y-43510476D01*
X118352295Y-47791428D02*
X118352295Y-48248571D01*
X118352295Y-48019999D02*
X117552295Y-48019999D01*
X117552295Y-48019999D02*
X117666580Y-48096190D01*
X117666580Y-48096190D02*
X117742771Y-48172380D01*
X117742771Y-48172380D02*
X117780866Y-48248571D01*
X160249819Y-103914285D02*
X159249819Y-103914285D01*
X159249819Y-103914285D02*
X159249819Y-103676190D01*
X159249819Y-103676190D02*
X159297438Y-103533333D01*
X159297438Y-103533333D02*
X159392676Y-103438095D01*
X159392676Y-103438095D02*
X159487914Y-103390476D01*
X159487914Y-103390476D02*
X159678390Y-103342857D01*
X159678390Y-103342857D02*
X159821247Y-103342857D01*
X159821247Y-103342857D02*
X160011723Y-103390476D01*
X160011723Y-103390476D02*
X160106961Y-103438095D01*
X160106961Y-103438095D02*
X160202200Y-103533333D01*
X160202200Y-103533333D02*
X160249819Y-103676190D01*
X160249819Y-103676190D02*
X160249819Y-103914285D01*
X159345057Y-102961904D02*
X159297438Y-102914285D01*
X159297438Y-102914285D02*
X159249819Y-102819047D01*
X159249819Y-102819047D02*
X159249819Y-102580952D01*
X159249819Y-102580952D02*
X159297438Y-102485714D01*
X159297438Y-102485714D02*
X159345057Y-102438095D01*
X159345057Y-102438095D02*
X159440295Y-102390476D01*
X159440295Y-102390476D02*
X159535533Y-102390476D01*
X159535533Y-102390476D02*
X159678390Y-102438095D01*
X159678390Y-102438095D02*
X160249819Y-103009523D01*
X160249819Y-103009523D02*
X160249819Y-102390476D01*
X159249819Y-102057142D02*
X159249819Y-101438095D01*
X159249819Y-101438095D02*
X159630771Y-101771428D01*
X159630771Y-101771428D02*
X159630771Y-101628571D01*
X159630771Y-101628571D02*
X159678390Y-101533333D01*
X159678390Y-101533333D02*
X159726009Y-101485714D01*
X159726009Y-101485714D02*
X159821247Y-101438095D01*
X159821247Y-101438095D02*
X160059342Y-101438095D01*
X160059342Y-101438095D02*
X160154580Y-101485714D01*
X160154580Y-101485714D02*
X160202200Y-101533333D01*
X160202200Y-101533333D02*
X160249819Y-101628571D01*
X160249819Y-101628571D02*
X160249819Y-101914285D01*
X160249819Y-101914285D02*
X160202200Y-102009523D01*
X160202200Y-102009523D02*
X160154580Y-102057142D01*
X157557704Y-99728571D02*
X157557704Y-99271428D01*
X157557704Y-99500000D02*
X158357704Y-99500000D01*
X158357704Y-99500000D02*
X158243419Y-99423809D01*
X158243419Y-99423809D02*
X158167228Y-99347619D01*
X158167228Y-99347619D02*
X158129133Y-99271428D01*
X145996667Y-85093200D02*
X146139524Y-85140819D01*
X146139524Y-85140819D02*
X146377619Y-85140819D01*
X146377619Y-85140819D02*
X146472857Y-85093200D01*
X146472857Y-85093200D02*
X146520476Y-85045580D01*
X146520476Y-85045580D02*
X146568095Y-84950342D01*
X146568095Y-84950342D02*
X146568095Y-84855104D01*
X146568095Y-84855104D02*
X146520476Y-84759866D01*
X146520476Y-84759866D02*
X146472857Y-84712247D01*
X146472857Y-84712247D02*
X146377619Y-84664628D01*
X146377619Y-84664628D02*
X146187143Y-84617009D01*
X146187143Y-84617009D02*
X146091905Y-84569390D01*
X146091905Y-84569390D02*
X146044286Y-84521771D01*
X146044286Y-84521771D02*
X145996667Y-84426533D01*
X145996667Y-84426533D02*
X145996667Y-84331295D01*
X145996667Y-84331295D02*
X146044286Y-84236057D01*
X146044286Y-84236057D02*
X146091905Y-84188438D01*
X146091905Y-84188438D02*
X146187143Y-84140819D01*
X146187143Y-84140819D02*
X146425238Y-84140819D01*
X146425238Y-84140819D02*
X146568095Y-84188438D01*
X146901429Y-84140819D02*
X147139524Y-85140819D01*
X147139524Y-85140819D02*
X147330000Y-84426533D01*
X147330000Y-84426533D02*
X147520476Y-85140819D01*
X147520476Y-85140819D02*
X147758572Y-84140819D01*
X148044286Y-84140819D02*
X148710952Y-84140819D01*
X148710952Y-84140819D02*
X148282381Y-85140819D01*
D12*
%TO.C,D13*%
X135595000Y-50390000D02*
X135595000Y-44790000D01*
X135595000Y-50390000D02*
X139595000Y-50390000D01*
X138995000Y-44790000D02*
X135595000Y-44790000D01*
X138995000Y-44790000D02*
X139595000Y-45390000D01*
X139595000Y-50390000D02*
X139595000Y-45390000D01*
%TO.C,SW10*%
X159545000Y-104765000D02*
X173515000Y-104765000D01*
X159545000Y-118735000D02*
X159545000Y-104765000D01*
X173515000Y-104765000D02*
X173515000Y-118735000D01*
X173515000Y-118735000D02*
X159545000Y-118735000D01*
%TO.C,SW8*%
X121145000Y-104765000D02*
X135115000Y-104765000D01*
X121145000Y-118735000D02*
X121145000Y-104765000D01*
X135115000Y-104765000D02*
X135115000Y-118735000D01*
X135115000Y-118735000D02*
X121145000Y-118735000D01*
%TO.C,SW6*%
X159545000Y-66375000D02*
X173515000Y-66375000D01*
X159545000Y-80345000D02*
X159545000Y-66375000D01*
X173515000Y-66375000D02*
X173515000Y-80345000D01*
X173515000Y-80345000D02*
X159545000Y-80345000D01*
%TO.C,SW1*%
X121145000Y-47175000D02*
X135115000Y-47175000D01*
X121145000Y-61145000D02*
X121145000Y-47175000D01*
X135115000Y-47175000D02*
X135115000Y-61145000D01*
X135115000Y-61145000D02*
X121145000Y-61145000D01*
%TO.C,SW9*%
X140345000Y-104765000D02*
X154315000Y-104765000D01*
X140345000Y-118735000D02*
X140345000Y-104765000D01*
X154315000Y-104765000D02*
X154315000Y-118735000D01*
X154315000Y-118735000D02*
X140345000Y-118735000D01*
%TO.C,D11*%
X174465000Y-48980000D02*
X174465000Y-43380000D01*
X174465000Y-48980000D02*
X178465000Y-48980000D01*
X177865000Y-43380000D02*
X174465000Y-43380000D01*
X177865000Y-43380000D02*
X178465000Y-43980000D01*
X178465000Y-48980000D02*
X178465000Y-43980000D01*
%TO.C,D19*%
X154575000Y-86060000D02*
X154575000Y-80460000D01*
X154575000Y-86060000D02*
X158575000Y-86060000D01*
X157975000Y-80460000D02*
X154575000Y-80460000D01*
X157975000Y-80460000D02*
X158575000Y-81060000D01*
X158575000Y-86060000D02*
X158575000Y-81060000D01*
%TO.C,D21*%
X116825000Y-100340000D02*
X116825000Y-105340000D01*
X117425000Y-105940000D02*
X116825000Y-105340000D01*
X117425000Y-105940000D02*
X120825000Y-105940000D01*
X120825000Y-100340000D02*
X116825000Y-100340000D01*
X120825000Y-100340000D02*
X120825000Y-105940000D01*
%TO.C,D15*%
X116705000Y-61040000D02*
X116705000Y-66040000D01*
X117305000Y-66640000D02*
X116705000Y-66040000D01*
X117305000Y-66640000D02*
X120705000Y-66640000D01*
X120705000Y-61040000D02*
X116705000Y-61040000D01*
X120705000Y-61040000D02*
X120705000Y-66640000D01*
%TO.C,D12*%
X155205000Y-50440000D02*
X155205000Y-44840000D01*
X155205000Y-50440000D02*
X159205000Y-50440000D01*
X158605000Y-44840000D02*
X155205000Y-44840000D01*
X158605000Y-44840000D02*
X159205000Y-45440000D01*
X159205000Y-50440000D02*
X159205000Y-45440000D01*
%TO.C,SW4*%
X121145000Y-66375000D02*
X135115000Y-66375000D01*
X121145000Y-80345000D02*
X121145000Y-66375000D01*
X135115000Y-66375000D02*
X135115000Y-80345000D01*
X135115000Y-80345000D02*
X121145000Y-80345000D01*
D13*
%TO.C,U1*%
X138570000Y-42597500D02*
X138570000Y-25452500D01*
X140475000Y-44502500D02*
X154445000Y-44502500D01*
X142965000Y-23547500D02*
X142968728Y-22637228D01*
X143468728Y-22137500D02*
X151464000Y-22137500D01*
X151964000Y-22637500D02*
X151964000Y-23547500D01*
D14*
X154445000Y-23547500D02*
X140475000Y-23547500D01*
D13*
X154445000Y-23547500D02*
X140475000Y-23547500D01*
X156350000Y-42597500D02*
X156350000Y-25452500D01*
X138570000Y-25452500D02*
G75*
G02*
X140475000Y-23547500I1905001J-1D01*
G01*
X140475000Y-44502500D02*
G75*
G02*
X138570000Y-42597500I1J1905001D01*
G01*
X142968728Y-22637228D02*
G75*
G02*
X143468728Y-22137501I500018J-291D01*
G01*
X151464000Y-22137500D02*
G75*
G02*
X151964000Y-22637500I0J-500000D01*
G01*
X154445000Y-23547500D02*
G75*
G02*
X156350000Y-25452500I0J-1905000D01*
G01*
X156350000Y-42597500D02*
G75*
G02*
X154445000Y-44502500I-1905000J0D01*
G01*
D15*
X138762000Y-23788500D02*
G75*
G02*
X138258000Y-23788500I-252000J0D01*
G01*
X138258000Y-23788500D02*
G75*
G02*
X138762000Y-23788500I252000J0D01*
G01*
X139905000Y-24668500D02*
G75*
G02*
X139401000Y-24668500I-252000J0D01*
G01*
X139401000Y-24668500D02*
G75*
G02*
X139905000Y-24668500I252000J0D01*
G01*
D12*
%TO.C,D18*%
X173865000Y-61670000D02*
X173865000Y-66670000D01*
X174465000Y-67270000D02*
X173865000Y-66670000D01*
X174465000Y-67270000D02*
X177865000Y-67270000D01*
X177865000Y-61670000D02*
X173865000Y-61670000D01*
X177865000Y-61670000D02*
X177865000Y-67270000D01*
%TO.C,SW2*%
X140345000Y-47175000D02*
X154315000Y-47175000D01*
X140345000Y-61145000D02*
X140345000Y-47175000D01*
X154315000Y-47175000D02*
X154315000Y-61145000D01*
X154315000Y-61145000D02*
X140345000Y-61145000D01*
%TO.C,D24*%
X174155000Y-99570000D02*
X174155000Y-104570000D01*
X174755000Y-105170000D02*
X174155000Y-104570000D01*
X174755000Y-105170000D02*
X178155000Y-105170000D01*
X178155000Y-99570000D02*
X174155000Y-99570000D01*
X178155000Y-99570000D02*
X178155000Y-105170000D01*
%TO.C,SW3*%
X159545000Y-47175000D02*
X173515000Y-47175000D01*
X159545000Y-61145000D02*
X159545000Y-47175000D01*
X173515000Y-47175000D02*
X173515000Y-61145000D01*
X173515000Y-61145000D02*
X159545000Y-61145000D01*
%TO.C,SW5*%
X140345000Y-66375000D02*
X154315000Y-66375000D01*
X140345000Y-80345000D02*
X140345000Y-66375000D01*
X154315000Y-66375000D02*
X154315000Y-80345000D01*
X154315000Y-80345000D02*
X140345000Y-80345000D01*
%TO.C,D20*%
X135645000Y-99530000D02*
X135645000Y-104530000D01*
X136245000Y-105130000D02*
X135645000Y-104530000D01*
X136245000Y-105130000D02*
X139645000Y-105130000D01*
X139645000Y-99530000D02*
X135645000Y-99530000D01*
X139645000Y-99530000D02*
X139645000Y-105130000D01*
%TO.C,D22*%
X135865000Y-86060000D02*
X135865000Y-80460000D01*
X135865000Y-86060000D02*
X139865000Y-86060000D01*
X139265000Y-80460000D02*
X135865000Y-80460000D01*
X139265000Y-80460000D02*
X139865000Y-81060000D01*
X139865000Y-86060000D02*
X139865000Y-81060000D01*
%TO.C,D17*%
X154905000Y-61180000D02*
X154905000Y-66180000D01*
X155505000Y-66780000D02*
X154905000Y-66180000D01*
X155505000Y-66780000D02*
X158905000Y-66780000D01*
X158905000Y-61180000D02*
X154905000Y-61180000D01*
X158905000Y-61180000D02*
X158905000Y-66780000D01*
%TO.C,D16*%
X135545000Y-61280000D02*
X135545000Y-66280000D01*
X136145000Y-66880000D02*
X135545000Y-66280000D01*
X136145000Y-66880000D02*
X139545000Y-66880000D01*
X139545000Y-61280000D02*
X135545000Y-61280000D01*
X139545000Y-61280000D02*
X139545000Y-66880000D01*
%TO.C,D14*%
X116865000Y-47620000D02*
X116865000Y-42020000D01*
X116865000Y-47620000D02*
X120865000Y-47620000D01*
X120265000Y-42020000D02*
X116865000Y-42020000D01*
X120265000Y-42020000D02*
X120865000Y-42620000D01*
X120865000Y-47620000D02*
X120865000Y-42620000D01*
%TO.C,D23*%
X155045000Y-99900000D02*
X155045000Y-104900000D01*
X155645000Y-105500000D02*
X155045000Y-104900000D01*
X155645000Y-105500000D02*
X159045000Y-105500000D01*
X159045000Y-99900000D02*
X155045000Y-99900000D01*
X159045000Y-99900000D02*
X159045000Y-105500000D01*
%TO.C,SW7*%
X140345000Y-85575000D02*
X154315000Y-85575000D01*
X140345000Y-99545000D02*
X140345000Y-85575000D01*
X154315000Y-85575000D02*
X154315000Y-99545000D01*
X154315000Y-99545000D02*
X140345000Y-99545000D01*
%TD*%
M02*
