%TF.GenerationSoftware,KiCad,Pcbnew,9.0.6*%
%TF.CreationDate,2025-12-08T11:04:57+13:00*%
%TF.ProjectId,hacropad,68616372-6f70-4616-942e-6b696361645f,rev?*%
%TF.SameCoordinates,Original*%
%TF.FileFunction,Soldermask,Top*%
%TF.FilePolarity,Negative*%
%FSLAX46Y46*%
G04 Gerber Fmt 4.6, Leading zero omitted, Abs format (unit mm)*
G04 Created by KiCad (PCBNEW 9.0.6) date 2025-12-08 11:04:57*
%MOMM*%
%LPD*%
G01*
G04 APERTURE LIST*
G04 Aperture macros list*
%AMRoundRect*
0 Rectangle with rounded corners*
0 $1 Rounding radius*
0 $2 $3 $4 $5 $6 $7 $8 $9 X,Y pos of 4 corners*
0 Add a 4 corners polygon primitive as box body*
4,1,4,$2,$3,$4,$5,$6,$7,$8,$9,$2,$3,0*
0 Add four circle primitives for the rounded corners*
1,1,$1+$1,$2,$3*
1,1,$1+$1,$4,$5*
1,1,$1+$1,$6,$7*
1,1,$1+$1,$8,$9*
0 Add four rect primitives between the rounded corners*
20,1,$1+$1,$2,$3,$4,$5,0*
20,1,$1+$1,$4,$5,$6,$7,0*
20,1,$1+$1,$6,$7,$8,$9,0*
20,1,$1+$1,$8,$9,$2,$3,0*%
G04 Aperture macros list end*
%ADD10R,0.850000X1.600000*%
%ADD11C,1.700000*%
%ADD12C,4.000000*%
%ADD13C,2.200000*%
%ADD14RoundRect,0.152400X1.063600X0.609600X-1.063600X0.609600X-1.063600X-0.609600X1.063600X-0.609600X0*%
%ADD15C,1.524000*%
%ADD16RoundRect,0.152400X-1.063600X-0.609600X1.063600X-0.609600X1.063600X0.609600X-1.063600X0.609600X0*%
G04 APERTURE END LIST*
D10*
%TO.C,D13*%
X136720000Y-49340000D03*
X138470000Y-49340000D03*
X138470000Y-45840000D03*
X136720000Y-45840000D03*
%TD*%
D11*
%TO.C,SW10*%
X161450000Y-111750000D03*
D12*
X166530000Y-111750000D03*
D11*
X171610000Y-111750000D03*
D13*
X169070000Y-106670000D03*
X162720000Y-109210000D03*
%TD*%
D11*
%TO.C,SW8*%
X123050000Y-111750000D03*
D12*
X128130000Y-111750000D03*
D11*
X133210000Y-111750000D03*
D13*
X130670000Y-106670000D03*
X124320000Y-109210000D03*
%TD*%
D11*
%TO.C,SW6*%
X161450000Y-73360000D03*
D12*
X166530000Y-73360000D03*
D11*
X171610000Y-73360000D03*
D13*
X169070000Y-68280000D03*
X162720000Y-70820000D03*
%TD*%
D11*
%TO.C,SW1*%
X123050000Y-54160000D03*
D12*
X128130000Y-54160000D03*
D11*
X133210000Y-54160000D03*
D13*
X130670000Y-49080000D03*
X124320000Y-51620000D03*
%TD*%
D11*
%TO.C,SW9*%
X142250000Y-111750000D03*
D12*
X147330000Y-111750000D03*
D11*
X152410000Y-111750000D03*
D13*
X149870000Y-106670000D03*
X143520000Y-109210000D03*
%TD*%
D10*
%TO.C,D11*%
X175590000Y-47930000D03*
X177340000Y-47930000D03*
X177340000Y-44430000D03*
X175590000Y-44430000D03*
%TD*%
%TO.C,D19*%
X155700000Y-85010000D03*
X157450000Y-85010000D03*
X157450000Y-81510000D03*
X155700000Y-81510000D03*
%TD*%
%TO.C,D21*%
X119700000Y-101390000D03*
X117950000Y-101390000D03*
X117950000Y-104890000D03*
X119700000Y-104890000D03*
%TD*%
%TO.C,D15*%
X119580000Y-62090000D03*
X117830000Y-62090000D03*
X117830000Y-65590000D03*
X119580000Y-65590000D03*
%TD*%
%TO.C,D12*%
X156330000Y-49390000D03*
X158080000Y-49390000D03*
X158080000Y-45890000D03*
X156330000Y-45890000D03*
%TD*%
D11*
%TO.C,SW4*%
X123050000Y-73360000D03*
D12*
X128130000Y-73360000D03*
D11*
X133210000Y-73360000D03*
D13*
X130670000Y-68280000D03*
X124320000Y-70820000D03*
%TD*%
D14*
%TO.C,U1*%
X139005000Y-26468500D03*
D15*
X139840000Y-26468500D03*
D14*
X139005000Y-29008500D03*
D15*
X139840000Y-29008500D03*
D14*
X139005000Y-31548500D03*
D15*
X139840000Y-31548500D03*
D14*
X139005000Y-34088500D03*
D15*
X139840000Y-34088500D03*
D14*
X139005000Y-36628500D03*
D15*
X139840000Y-36628500D03*
D14*
X139005000Y-39168500D03*
D15*
X139840000Y-39168500D03*
D14*
X139005000Y-41708500D03*
D15*
X139840000Y-41708500D03*
X155080000Y-41708500D03*
D16*
X155915000Y-41708500D03*
D15*
X155080000Y-39168500D03*
D16*
X155915000Y-39168500D03*
D15*
X155080000Y-36628500D03*
D16*
X155915000Y-36628500D03*
D15*
X155080000Y-34088500D03*
D16*
X155915000Y-34088500D03*
D15*
X155080000Y-31548500D03*
D16*
X155915000Y-31548500D03*
D15*
X155080000Y-29008500D03*
D16*
X155915000Y-29008500D03*
D15*
X155080000Y-26468500D03*
D16*
X155915000Y-26468500D03*
%TD*%
D10*
%TO.C,D18*%
X176740000Y-62720000D03*
X174990000Y-62720000D03*
X174990000Y-66220000D03*
X176740000Y-66220000D03*
%TD*%
D11*
%TO.C,SW2*%
X142250000Y-54160000D03*
D12*
X147330000Y-54160000D03*
D11*
X152410000Y-54160000D03*
D13*
X149870000Y-49080000D03*
X143520000Y-51620000D03*
%TD*%
D10*
%TO.C,D24*%
X177030000Y-100620000D03*
X175280000Y-100620000D03*
X175280000Y-104120000D03*
X177030000Y-104120000D03*
%TD*%
D11*
%TO.C,SW3*%
X161450000Y-54160000D03*
D12*
X166530000Y-54160000D03*
D11*
X171610000Y-54160000D03*
D13*
X169070000Y-49080000D03*
X162720000Y-51620000D03*
%TD*%
D11*
%TO.C,SW5*%
X142250000Y-73360000D03*
D12*
X147330000Y-73360000D03*
D11*
X152410000Y-73360000D03*
D13*
X149870000Y-68280000D03*
X143520000Y-70820000D03*
%TD*%
D10*
%TO.C,D20*%
X138520000Y-100580000D03*
X136770000Y-100580000D03*
X136770000Y-104080000D03*
X138520000Y-104080000D03*
%TD*%
%TO.C,D22*%
X136990000Y-85010000D03*
X138740000Y-85010000D03*
X138740000Y-81510000D03*
X136990000Y-81510000D03*
%TD*%
%TO.C,D17*%
X157780000Y-62230000D03*
X156030000Y-62230000D03*
X156030000Y-65730000D03*
X157780000Y-65730000D03*
%TD*%
%TO.C,D16*%
X138420000Y-62330000D03*
X136670000Y-62330000D03*
X136670000Y-65830000D03*
X138420000Y-65830000D03*
%TD*%
%TO.C,D14*%
X117990000Y-46570000D03*
X119740000Y-46570000D03*
X119740000Y-43070000D03*
X117990000Y-43070000D03*
%TD*%
%TO.C,D23*%
X157920000Y-100950000D03*
X156170000Y-100950000D03*
X156170000Y-104450000D03*
X157920000Y-104450000D03*
%TD*%
D11*
%TO.C,SW7*%
X142250000Y-92560000D03*
D12*
X147330000Y-92560000D03*
D11*
X152410000Y-92560000D03*
D13*
X149870000Y-87480000D03*
X143520000Y-90020000D03*
%TD*%
M02*
