%TF.GenerationSoftware,KiCad,Pcbnew,9.0.6*%
%TF.CreationDate,2025-12-08T11:04:57+13:00*%
%TF.ProjectId,hacropad,68616372-6f70-4616-942e-6b696361645f,rev?*%
%TF.SameCoordinates,Original*%
%TF.FileFunction,Soldermask,Bot*%
%TF.FilePolarity,Negative*%
%FSLAX46Y46*%
G04 Gerber Fmt 4.6, Leading zero omitted, Abs format (unit mm)*
G04 Created by KiCad (PCBNEW 9.0.6) date 2025-12-08 11:04:57*
%MOMM*%
%LPD*%
G01*
G04 APERTURE LIST*
G04 Aperture macros list*
%AMRoundRect*
0 Rectangle with rounded corners*
0 $1 Rounding radius*
0 $2 $3 $4 $5 $6 $7 $8 $9 X,Y pos of 4 corners*
0 Add a 4 corners polygon primitive as box body*
4,1,4,$2,$3,$4,$5,$6,$7,$8,$9,$2,$3,0*
0 Add four circle primitives for the rounded corners*
1,1,$1+$1,$2,$3*
1,1,$1+$1,$4,$5*
1,1,$1+$1,$6,$7*
1,1,$1+$1,$8,$9*
0 Add four rect primitives between the rounded corners*
20,1,$1+$1,$2,$3,$4,$5,0*
20,1,$1+$1,$4,$5,$6,$7,0*
20,1,$1+$1,$6,$7,$8,$9,0*
20,1,$1+$1,$8,$9,$2,$3,0*%
G04 Aperture macros list end*
%ADD10C,1.700000*%
%ADD11C,4.000000*%
%ADD12C,2.200000*%
%ADD13RoundRect,0.150000X-0.200000X0.150000X-0.200000X-0.150000X0.200000X-0.150000X0.200000X0.150000X0*%
%ADD14C,1.524000*%
G04 APERTURE END LIST*
D10*
%TO.C,SW10*%
X161450000Y-111750000D03*
D11*
X166530000Y-111750000D03*
D10*
X171610000Y-111750000D03*
D12*
X169070000Y-106670000D03*
X162720000Y-109210000D03*
%TD*%
D10*
%TO.C,SW8*%
X123050000Y-111750000D03*
D11*
X128130000Y-111750000D03*
D10*
X133210000Y-111750000D03*
D12*
X130670000Y-106670000D03*
X124320000Y-109210000D03*
%TD*%
D10*
%TO.C,SW6*%
X161450000Y-73360000D03*
D11*
X166530000Y-73360000D03*
D10*
X171610000Y-73360000D03*
D12*
X169070000Y-68280000D03*
X162720000Y-70820000D03*
%TD*%
D13*
%TO.C,D8*%
X119460000Y-114437500D03*
X119460000Y-113037500D03*
%TD*%
%TO.C,D10*%
X158060000Y-114090000D03*
X158060000Y-112690000D03*
%TD*%
D10*
%TO.C,SW1*%
X123050000Y-54160000D03*
D11*
X128130000Y-54160000D03*
D10*
X133210000Y-54160000D03*
D12*
X130670000Y-49080000D03*
X124320000Y-51620000D03*
%TD*%
D10*
%TO.C,SW9*%
X142250000Y-111750000D03*
D11*
X147330000Y-111750000D03*
D10*
X152410000Y-111750000D03*
D12*
X149870000Y-106670000D03*
X143520000Y-109210000D03*
%TD*%
D10*
%TO.C,SW4*%
X123050000Y-73360000D03*
D11*
X128130000Y-73360000D03*
D10*
X133210000Y-73360000D03*
D12*
X130670000Y-68280000D03*
X124320000Y-70820000D03*
%TD*%
D14*
%TO.C,U1*%
X139840000Y-26468500D03*
X139840000Y-29008500D03*
X139840000Y-31548500D03*
X139840000Y-34088500D03*
X139840000Y-36628500D03*
X139840000Y-39168500D03*
X139840000Y-41708500D03*
X155080000Y-41708500D03*
X155080000Y-39168500D03*
X155080000Y-36628500D03*
X155080000Y-34088500D03*
X155080000Y-31548500D03*
X155080000Y-29008500D03*
X155080000Y-26468500D03*
%TD*%
D10*
%TO.C,SW2*%
X142250000Y-54160000D03*
D11*
X147330000Y-54160000D03*
D10*
X152410000Y-54160000D03*
D12*
X149870000Y-49080000D03*
X143520000Y-51620000D03*
%TD*%
D13*
%TO.C,D9*%
X139010000Y-114437500D03*
X139010000Y-113037500D03*
%TD*%
D10*
%TO.C,SW3*%
X161450000Y-54160000D03*
D11*
X166530000Y-54160000D03*
D10*
X171610000Y-54160000D03*
D12*
X169070000Y-49080000D03*
X162720000Y-51620000D03*
%TD*%
D10*
%TO.C,SW5*%
X142250000Y-73360000D03*
D11*
X147330000Y-73360000D03*
D10*
X152410000Y-73360000D03*
D12*
X149870000Y-68280000D03*
X143520000Y-70820000D03*
%TD*%
D10*
%TO.C,SW7*%
X142250000Y-92560000D03*
D11*
X147330000Y-92560000D03*
D10*
X152410000Y-92560000D03*
D12*
X149870000Y-87480000D03*
X143520000Y-90020000D03*
%TD*%
D13*
%TO.C,D5*%
X138710000Y-76752500D03*
X138710000Y-75352500D03*
%TD*%
%TO.C,D1*%
X119520000Y-57582500D03*
X119520000Y-56182500D03*
%TD*%
%TO.C,D7*%
X138610000Y-95640000D03*
X138610000Y-94240000D03*
%TD*%
%TO.C,D2*%
X138660000Y-57530000D03*
X138660000Y-56130000D03*
%TD*%
%TO.C,D6*%
X157860000Y-76590000D03*
X157860000Y-75190000D03*
%TD*%
%TO.C,D3*%
X157980000Y-57500000D03*
X157980000Y-56100000D03*
%TD*%
%TO.C,D4*%
X119520000Y-76562500D03*
X119520000Y-75162500D03*
%TD*%
M02*
